<svg width="594" height="710" fill="none" xmlns="http://www.w3.org/2000/svg"><g clip-path="url(#clip0_119_128)"><g filter="url(#filter0_d_119_128)" shape-rendering="crispEdges"><rect y="247.349" width="212.349" height="181.377" rx="21.933" transform="rotate(-90 0 247.349)" fill="url(#paint0_linear_119_128)"/><rect x=".366" y="246.984" width="211.618" height="180.646" rx="21.567" transform="rotate(-90 .366 246.984)" stroke="url(#paint1_linear_119_128)" stroke-opacity=".3" stroke-width=".731"/></g><path d="M31.062 177.768l-3.888 7.52V189h-2.736v-3.712l-3.888-7.52h3.104l2.176 4.704 2.16-4.704h3.072zm6.974 11.344a5.903 5.903 0 01-2.912-.736 5.595 5.595 0 01-2.096-2.048c-.511-.885-.767-1.877-.767-2.976s.255-2.085.767-2.96a5.595 5.595 0 012.096-2.048 5.903 5.903 0 012.912-.736c1.056 0 2.022.245 2.896.736a5.332 5.332 0 012.08 2.048c.513.875.769 1.861.769 2.96s-.256 2.091-.768 2.976a5.477 5.477 0 01-2.08 2.048c-.875.491-1.84.736-2.897.736zm0-2.496c.896 0 1.611-.299 2.145-.896.544-.597.816-1.387.816-2.368 0-.992-.273-1.781-.816-2.368-.534-.597-1.248-.896-2.145-.896-.906 0-1.632.293-2.175.88-.534.587-.8 1.381-.8 2.384 0 .992.266 1.787.8 2.384.544.587 1.269.88 2.175.88zm10.515-8.848v6.72c0 .672.165 1.189.496 1.552.33.363.816.544 1.456.544s1.13-.181 1.472-.544c.341-.363.512-.88.512-1.552v-6.72h2.736v6.704c0 1.003-.214 1.851-.64 2.544a4.088 4.088 0 01-1.728 1.568c-.715.352-1.515.528-2.4.528-.886 0-1.68-.171-2.384-.512a3.955 3.955 0 01-1.648-1.568c-.406-.704-.608-1.557-.608-2.56v-6.704h2.736zM63.43 189l-2.335-4.24h-.656V189h-2.736v-11.232h4.592c.885 0 1.637.155 2.256.464.63.309 1.098.736 1.408 1.28a3.5 3.5 0 01.464 1.792 3.32 3.32 0 01-.64 2c-.416.587-1.035 1.003-1.856 1.248L66.52 189h-3.088zm-2.991-6.176h1.696c.501 0 .874-.123 1.12-.368.256-.245.384-.592.384-1.04 0-.427-.128-.763-.384-1.008-.245-.245-.619-.368-1.12-.368H60.44v2.784zM82.7 189h-2.736l-4.576-6.928V189h-2.736v-11.232h2.736l4.576 6.96v-6.96H82.7V189zm9.855-11.232v2.192H87.98v2.368h3.424v2.128H87.98V189h-2.736v-11.232h7.312zm10.078 0v2.192h-2.976V189h-2.736v-9.04h-2.976v-2.192h8.688zm16.332 4.224l-.448 2.096h1.92v2.464h-2.448l-.528 2.448h-2.56l.528-2.448h-2.656l-.528 2.448h-2.56l.528-2.448h-2.368v-2.464h2.896l.448-2.096h-2.32v-2.464h2.832l.512-2.368h2.56l-.512 2.368h2.656l.512-2.368h2.56l-.512 2.368h1.984v2.464h-2.496zm-2.56 0h-2.656l-.448 2.096h2.656l.448-2.096zm6.869 1.008c0-1.835.352-3.28 1.056-4.336.714-1.056 1.861-1.584 3.44-1.584 1.578 0 2.72.528 3.424 1.584.714 1.056 1.072 2.501 1.072 4.336 0 1.856-.358 3.312-1.072 4.368-.704 1.056-1.846 1.584-3.424 1.584-1.579 0-2.726-.528-3.44-1.584-.704-1.056-1.056-2.512-1.056-4.368zm6.304 0c0-1.077-.118-1.904-.352-2.48-.235-.587-.72-.88-1.456-.88s-1.222.293-1.456.88c-.235.576-.352 1.403-.352 2.48 0 .725.042 1.328.128 1.808.085.469.256.853.512 1.152.266.288.656.432 1.168.432.512 0 .896-.144 1.152-.432.266-.299.442-.683.528-1.152.085-.48.128-1.083.128-1.808zm4.693 0c0-1.835.352-3.28 1.056-4.336.715-1.056 1.862-1.584 3.44-1.584 1.579 0 2.72.528 3.424 1.584.715 1.056 1.072 2.501 1.072 4.336 0 1.856-.357 3.312-1.072 4.368-.704 1.056-1.845 1.584-3.424 1.584-1.578 0-2.725-.528-3.44-1.584-.704-1.056-1.056-2.512-1.056-4.368zm6.304 0c0-1.077-.117-1.904-.352-2.48-.234-.587-.72-.88-1.456-.88s-1.221.293-1.456.88c-.234.576-.352 1.403-.352 2.48 0 .725.043 1.328.128 1.808.086.469.256.853.512 1.152.267.288.656.432 1.168.432.512 0 .896-.144 1.152-.432.267-.299.443-.683.528-1.152.086-.48.128-1.083.128-1.808zm4.694 0c0-1.835.352-3.28 1.056-4.336.714-1.056 1.861-1.584 3.44-1.584 1.578 0 2.72.528 3.424 1.584.714 1.056 1.072 2.501 1.072 4.336 0 1.856-.358 3.312-1.072 4.368-.704 1.056-1.846 1.584-3.424 1.584-1.579 0-2.726-.528-3.44-1.584-.704-1.056-1.056-2.512-1.056-4.368zm6.304 0c0-1.077-.118-1.904-.352-2.48-.235-.587-.72-.88-1.456-.88s-1.222.293-1.456.88c-.235.576-.352 1.403-.352 2.48 0 .725.042 1.328.128 1.808.085.469.256.853.512 1.152.266.288.656.432 1.168.432.512 0 .896-.144 1.152-.432.266-.299.442-.683.528-1.152.085-.48.128-1.083.128-1.808zm4.405-3.136v-2.544h4.432V189h-2.848v-9.136h-1.584z" fill="#fff"/><g opacity=".5" filter="url(#filter1_f_119_128)"><ellipse cx="90.86" cy="147.326" rx="35.578" ry="9.149" fill="#000"/></g><g opacity=".5" filter="url(#filter2_f_119_128)"><ellipse cx="90.883" cy="100.823" rx="40.883" ry="40.823" fill="url(#paint2_linear_119_128)"/></g><g filter="url(#filter3_dddddd_119_128)"><rect x="48.5" y="57.5" width="87" height="87" rx="19.5" stroke="#fff"/></g><rect x="44.257" y="208.257" width="93.486" height="25.169" rx="6.934" fill="#23232F"/><path d="M72.938 220.741c.407.087.734.29.98.61a1.7 1.7 0 01.37 1.08c0 .587-.206 1.054-.62 1.4-.406.34-.976.51-1.71.51h-3.27v-7.02h3.16c.714 0 1.27.164 1.67.49.407.327.61.77.61 1.33 0 .414-.11.757-.33 1.03-.213.274-.5.464-.86.57zm-2.54-.58h1.12c.28 0 .494-.06.64-.18.154-.126.23-.31.23-.55 0-.24-.076-.423-.23-.55-.146-.126-.36-.19-.64-.19h-1.12v1.47zm1.26 2.8c.287 0 .507-.063.66-.19.16-.133.24-.323.24-.57 0-.246-.083-.44-.25-.58-.16-.14-.383-.21-.67-.21h-1.24v1.55h1.26zm5.652-5.64v4.2c0 .42.103.744.31.97.207.227.51.34.91.34s.707-.113.92-.34c.213-.226.32-.55.32-.97v-4.2h1.71v4.19c0 .627-.133 1.157-.4 1.59a2.55 2.55 0 01-1.08.98 3.35 3.35 0 01-1.5.33c-.553 0-1.05-.106-1.49-.32a2.466 2.466 0 01-1.03-.98c-.253-.44-.38-.973-.38-1.6v-4.19h1.71zm11.74 0l-2.43 4.7v2.32h-1.71v-2.32l-2.43-4.7h1.94l1.36 2.94 1.35-2.94h1.92zm9.79 7.02h-1.71l-2.86-4.33v4.33h-1.71v-7.02h1.71l2.86 4.35v-4.35h1.71v7.02zm4.909.07c-.66 0-1.267-.153-1.82-.46a3.483 3.483 0 01-1.31-1.28 3.646 3.646 0 01-.48-1.86c0-.686.16-1.303.48-1.85a3.497 3.497 0 011.31-1.28 3.698 3.698 0 011.82-.46c.66 0 1.263.154 1.81.46.553.307.986.734 1.3 1.28.32.547.48 1.164.48 1.85 0 .687-.16 1.307-.48 1.86-.32.547-.754.974-1.3 1.28-.547.307-1.15.46-1.81.46zm0-1.56c.56 0 1.006-.186 1.34-.56.34-.373.51-.866.51-1.48 0-.62-.17-1.113-.51-1.48-.334-.373-.78-.56-1.34-.56-.567 0-1.02.184-1.36.55-.334.367-.5.864-.5 1.49 0 .62.166 1.117.5 1.49.34.367.793.55 1.36.55zm14.551-5.53l-1.83 7.02h-2.07l-1.12-4.62-1.16 4.62h-2.07l-1.78-7.02h1.83l1.01 5.11 1.25-5.11h1.88l1.2 5.11 1.02-5.11h1.84z" fill="#fff"/><rect x="44.257" y="208.257" width="93.486" height="25.169" rx="6.934" stroke="#454558" stroke-width=".514"/></g><g clip-path="url(#clip1_119_128)"><g filter="url(#filter4_d_119_128)" shape-rendering="crispEdges"><rect y="478.349" width="212.349" height="181.377" rx="21.933" transform="rotate(-90 0 478.349)" fill="url(#paint3_linear_119_128)"/><rect x=".366" y="477.984" width="211.618" height="180.646" rx="21.567" transform="rotate(-90 .366 477.984)" stroke="url(#paint4_linear_119_128)" stroke-opacity=".3" stroke-width=".731"/></g><path d="M28.656 408.768l-3.888 7.52V420h-2.736v-3.712l-3.888-7.52h3.104l2.176 4.704 2.16-4.704h3.072zm6.974 11.344a5.903 5.903 0 01-2.912-.736 5.595 5.595 0 01-2.096-2.048c-.512-.885-.768-1.877-.768-2.976s.256-2.085.768-2.96a5.595 5.595 0 012.096-2.048 5.903 5.903 0 012.912-.736c1.056 0 2.022.245 2.896.736a5.333 5.333 0 012.08 2.048c.512.875.768 1.861.768 2.96s-.256 2.091-.768 2.976a5.478 5.478 0 01-2.08 2.048c-.874.491-1.84.736-2.896.736zm0-2.496c.896 0 1.61-.299 2.144-.896.544-.597.816-1.387.816-2.368 0-.992-.272-1.781-.816-2.368-.533-.597-1.248-.896-2.144-.896-.906 0-1.632.293-2.176.88-.533.587-.8 1.381-.8 2.384 0 .992.267 1.787.8 2.384.544.587 1.27.88 2.176.88zm10.514-8.848v6.72c0 .672.166 1.189.496 1.552.331.363.816.544 1.456.544s1.131-.181 1.472-.544c.342-.363.512-.88.512-1.552v-6.72h2.736v6.704c0 1.003-.213 1.851-.64 2.544a4.09 4.09 0 01-1.728 1.568c-.714.352-1.514.528-2.4.528-.885 0-1.68-.171-2.384-.512a3.954 3.954 0 01-1.648-1.568c-.405-.704-.608-1.557-.608-2.56v-6.704h2.736zM61.026 420l-2.336-4.24h-.656V420h-2.736v-11.232h4.592c.885 0 1.637.155 2.256.464.629.309 1.098.736 1.408 1.28a3.51 3.51 0 01.464 1.792 3.32 3.32 0 01-.64 2c-.416.587-1.035 1.003-1.856 1.248L64.114 420h-3.088zm-2.992-6.176h1.696c.501 0 .874-.123 1.12-.368.256-.245.384-.592.384-1.04 0-.427-.128-.763-.384-1.008-.246-.245-.619-.368-1.12-.368h-1.696v2.784zM80.294 420h-2.736l-4.576-6.928V420h-2.736v-11.232h2.736l4.576 6.96v-6.96h2.736V420zm9.855-11.232v2.192h-4.576v2.368h3.424v2.128h-3.424V420h-2.736v-11.232h7.312zm10.078 0v2.192h-2.976V420h-2.736v-9.04h-2.976v-2.192h8.688zm16.332 4.224l-.448 2.096h1.92v2.464h-2.448l-.528 2.448h-2.56l.528-2.448h-2.656l-.528 2.448h-2.56l.528-2.448h-2.368v-2.464h2.896l.448-2.096h-2.32v-2.464h2.832l.512-2.368h2.56l-.512 2.368h2.656l.512-2.368h2.56l-.512 2.368h1.984v2.464h-2.496zm-2.56 0h-2.656l-.448 2.096h2.656l.448-2.096zm6.868 1.008c0-1.835.352-3.28 1.056-4.336.715-1.056 1.862-1.584 3.44-1.584 1.579 0 2.72.528 3.424 1.584.715 1.056 1.072 2.501 1.072 4.336 0 1.856-.357 3.312-1.072 4.368-.704 1.056-1.845 1.584-3.424 1.584-1.578 0-2.725-.528-3.44-1.584-.704-1.056-1.056-2.512-1.056-4.368zm6.304 0c0-1.077-.117-1.904-.352-2.48-.234-.587-.72-.88-1.456-.88s-1.221.293-1.456.88c-.234.576-.352 1.403-.352 2.48 0 .725.043 1.328.128 1.808.086.469.256.853.512 1.152.267.288.656.432 1.168.432.512 0 .896-.144 1.152-.432.267-.299.443-.683.528-1.152.086-.48.128-1.083.128-1.808zm4.694 0c0-1.835.352-3.28 1.056-4.336.715-1.056 1.861-1.584 3.44-1.584s2.72.528 3.424 1.584c.715 1.056 1.072 2.501 1.072 4.336 0 1.856-.357 3.312-1.072 4.368-.704 1.056-1.845 1.584-3.424 1.584s-2.725-.528-3.44-1.584c-.704-1.056-1.056-2.512-1.056-4.368zm6.304 0c0-1.077-.117-1.904-.352-2.48-.235-.587-.72-.88-1.456-.88s-1.221.293-1.456.88c-.235.576-.352 1.403-.352 2.48 0 .725.043 1.328.128 1.808.085.469.256.853.512 1.152.267.288.656.432 1.168.432.512 0 .896-.144 1.152-.432.267-.299.443-.683.528-1.152.085-.48.128-1.083.128-1.808zm4.694 0c0-1.835.352-3.28 1.056-4.336.714-1.056 1.861-1.584 3.44-1.584 1.578 0 2.72.528 3.424 1.584.714 1.056 1.072 2.501 1.072 4.336 0 1.856-.358 3.312-1.072 4.368-.704 1.056-1.846 1.584-3.424 1.584-1.579 0-2.726-.528-3.44-1.584-.704-1.056-1.056-2.512-1.056-4.368zm6.304 0c0-1.077-.118-1.904-.352-2.48-.235-.587-.72-.88-1.456-.88s-1.222.293-1.456.88c-.235.576-.352 1.403-.352 2.48 0 .725.042 1.328.128 1.808.085.469.256.853.512 1.152.266.288.656.432 1.168.432.512 0 .896-.144 1.152-.432.266-.299.442-.683.528-1.152.085-.48.128-1.083.128-1.808zm4.757 3.92v-2.208l5.056-7.232h3.056v7.072h1.312v2.368h-1.312V420H159.3v-2.08h-5.376zm5.568-6.432l-2.688 4.064h2.688v-4.064z" fill="#fff"/><g opacity=".5" filter="url(#filter5_f_119_128)"><ellipse cx="90.86" cy="378.327" rx="35.578" ry="9.149" fill="#000"/></g><g opacity=".5" filter="url(#filter6_f_119_128)"><ellipse cx="90.883" cy="331.823" rx="40.883" ry="40.823" fill="url(#paint5_linear_119_128)"/></g><g filter="url(#filter7_dddddd_119_128)"><rect x="48.5" y="288.5" width="87" height="87" rx="19.5" stroke="#fff"/></g><rect x="44.257" y="439.257" width="93.486" height="25.169" rx="6.934" fill="#23232F"/><path d="M72.938 451.741c.407.087.734.29.98.61a1.7 1.7 0 01.37 1.08c0 .587-.206 1.054-.62 1.4-.406.34-.976.51-1.71.51h-3.27v-7.02h3.16c.714 0 1.27.164 1.67.49.407.327.61.77.61 1.33 0 .414-.11.757-.33 1.03-.213.274-.5.464-.86.57zm-2.54-.58h1.12c.28 0 .494-.06.64-.18.154-.126.23-.31.23-.55 0-.24-.076-.423-.23-.55-.146-.126-.36-.19-.64-.19h-1.12v1.47zm1.26 2.8c.287 0 .507-.063.66-.19.16-.133.24-.323.24-.57 0-.246-.083-.44-.25-.58-.16-.14-.383-.21-.67-.21h-1.24v1.55h1.26zm5.652-5.64v4.2c0 .42.103.744.31.97.207.227.51.34.91.34s.707-.113.92-.34c.213-.226.32-.55.32-.97v-4.2h1.71v4.19c0 .627-.133 1.157-.4 1.59a2.55 2.55 0 01-1.08.98 3.35 3.35 0 01-1.5.33c-.553 0-1.05-.106-1.49-.32a2.466 2.466 0 01-1.03-.98c-.253-.44-.38-.973-.38-1.6v-4.19h1.71zm11.74 0l-2.43 4.7v2.32h-1.71v-2.32l-2.43-4.7h1.94l1.36 2.94 1.35-2.94h1.92zm9.79 7.02h-1.71l-2.86-4.33v4.33h-1.71v-7.02h1.71l2.86 4.35v-4.35h1.71v7.02zm4.909.07c-.66 0-1.267-.153-1.82-.46a3.483 3.483 0 01-1.31-1.28 3.646 3.646 0 01-.48-1.86c0-.686.16-1.303.48-1.85a3.497 3.497 0 011.31-1.28 3.698 3.698 0 011.82-.46c.66 0 1.263.154 1.81.46.553.307.986.734 1.3 1.28.32.547.48 1.164.48 1.85 0 .687-.16 1.307-.48 1.86-.32.547-.754.974-1.3 1.28-.547.307-1.15.46-1.81.46zm0-1.56c.56 0 1.006-.186 1.34-.56.34-.373.51-.866.51-1.48 0-.62-.17-1.113-.51-1.48-.334-.373-.78-.56-1.34-.56-.567 0-1.02.184-1.36.55-.334.367-.5.864-.5 1.49 0 .62.166 1.117.5 1.49.34.367.793.55 1.36.55zm14.551-5.53l-1.83 7.02h-2.07l-1.12-4.62-1.16 4.62h-2.07l-1.78-7.02h1.83l1.01 5.11 1.25-5.11h1.88l1.2 5.11 1.02-5.11h1.84z" fill="#fff"/><rect x="44.257" y="439.257" width="93.486" height="25.169" rx="6.934" stroke="#454558" stroke-width=".514"/></g><g clip-path="url(#clip2_119_128)"><g filter="url(#filter8_d_119_128)" shape-rendering="crispEdges"><rect y="709.349" width="212.349" height="181.377" rx="21.933" transform="rotate(-90 0 709.349)" fill="url(#paint6_linear_119_128)"/><rect x=".366" y="708.984" width="211.618" height="180.646" rx="21.567" transform="rotate(-90 .366 708.984)" stroke="url(#paint7_linear_119_128)" stroke-opacity=".3" stroke-width=".731"/></g><path d="M29.789 639.768l-3.888 7.52V651h-2.736v-3.712l-3.888-7.52h3.104l2.176 4.704 2.16-4.704h3.072zm6.974 11.344a5.903 5.903 0 01-2.912-.736 5.595 5.595 0 01-2.096-2.048c-.512-.885-.768-1.877-.768-2.976s.256-2.085.768-2.96a5.595 5.595 0 012.096-2.048 5.903 5.903 0 012.912-.736c1.056 0 2.021.245 2.896.736a5.333 5.333 0 012.08 2.048c.512.875.768 1.861.768 2.96s-.256 2.091-.768 2.976a5.478 5.478 0 01-2.08 2.048c-.875.491-1.84.736-2.896.736zm0-2.496c.896 0 1.61-.299 2.144-.896.544-.597.816-1.387.816-2.368 0-.992-.272-1.781-.816-2.368-.533-.597-1.248-.896-2.144-.896-.907 0-1.632.293-2.176.88-.533.587-.8 1.381-.8 2.384 0 .992.267 1.787.8 2.384.544.587 1.27.88 2.176.88zm10.514-8.848v6.72c0 .672.166 1.189.496 1.552.33.363.816.544 1.456.544s1.13-.181 1.472-.544c.341-.363.512-.88.512-1.552v-6.72h2.736v6.704c0 1.003-.213 1.851-.64 2.544a4.09 4.09 0 01-1.728 1.568c-.715.352-1.515.528-2.4.528s-1.68-.171-2.384-.512a3.954 3.954 0 01-1.648-1.568c-.405-.704-.608-1.557-.608-2.56v-6.704h2.736zM62.158 651l-2.336-4.24h-.656V651H56.43v-11.232h4.592c.886 0 1.638.155 2.256.464.63.309 1.1.736 1.408 1.28a3.5 3.5 0 01.464 1.792c0 .747-.213 1.413-.64 2-.416.587-1.034 1.003-1.856 1.248L65.246 651h-3.088zm-2.992-6.176h1.696c.502 0 .875-.123 1.12-.368.256-.245.384-.592.384-1.04 0-.427-.128-.763-.384-1.008-.245-.245-.618-.368-1.12-.368h-1.696v2.784zM81.426 651h-2.735l-4.576-6.928V651h-2.736v-11.232h2.736l4.576 6.96v-6.96h2.736V651zm9.856-11.232v2.192h-4.576v2.368h3.424v2.128h-3.424V651H83.97v-11.232h7.312zm10.078 0v2.192h-2.976V651h-2.736v-9.04h-2.976v-2.192h8.688zm16.332 4.224l-.448 2.096h1.92v2.464h-2.448l-.528 2.448h-2.56l.528-2.448H111.5l-.528 2.448h-2.56l.528-2.448h-2.368v-2.464h2.896l.448-2.096h-2.32v-2.464h2.832l.512-2.368h2.56l-.512 2.368h2.656l.512-2.368h2.56l-.512 2.368h1.984v2.464h-2.496zm-2.56 0h-2.656l-.448 2.096h2.656l.448-2.096zM122 645c0-1.835.352-3.28 1.056-4.336.715-1.056 1.862-1.584 3.44-1.584 1.579 0 2.72.528 3.424 1.584.715 1.056 1.072 2.501 1.072 4.336 0 1.856-.357 3.312-1.072 4.368-.704 1.056-1.845 1.584-3.424 1.584-1.578 0-2.725-.528-3.44-1.584-.704-1.056-1.056-2.512-1.056-4.368zm6.304 0c0-1.077-.117-1.904-.352-2.48-.234-.587-.72-.88-1.456-.88s-1.221.293-1.456.88c-.234.576-.352 1.403-.352 2.48 0 .725.043 1.328.128 1.808.086.469.256.853.512 1.152.267.288.656.432 1.168.432.512 0 .896-.144 1.152-.432.267-.299.443-.683.528-1.152.086-.48.128-1.083.128-1.808zm4.694 0c0-1.835.352-3.28 1.056-4.336.714-1.056 1.861-1.584 3.44-1.584 1.578 0 2.72.528 3.424 1.584.714 1.056 1.072 2.501 1.072 4.336 0 1.856-.358 3.312-1.072 4.368-.704 1.056-1.846 1.584-3.424 1.584-1.579 0-2.726-.528-3.44-1.584-.704-1.056-1.056-2.512-1.056-4.368zm6.304 0c0-1.077-.118-1.904-.352-2.48-.235-.587-.72-.88-1.456-.88s-1.222.293-1.456.88c-.235.576-.352 1.403-.352 2.48 0 .725.042 1.328.128 1.808.085.469.256.853.512 1.152.266.288.656.432 1.168.432.512 0 .896-.144 1.152-.432.266-.299.442-.683.528-1.152.085-.48.128-1.083.128-1.808zm4.693 0c0-1.835.352-3.28 1.056-4.336.715-1.056 1.862-1.584 3.44-1.584 1.579 0 2.72.528 3.424 1.584.715 1.056 1.072 2.501 1.072 4.336 0 1.856-.357 3.312-1.072 4.368-.704 1.056-1.845 1.584-3.424 1.584-1.578 0-2.725-.528-3.44-1.584-.704-1.056-1.056-2.512-1.056-4.368zm6.304 0c0-1.077-.117-1.904-.352-2.48-.234-.587-.72-.88-1.456-.88s-1.221.293-1.456.88c-.234.576-.352 1.403-.352 2.48 0 .725.043 1.328.128 1.808.086.469.256.853.512 1.152.267.288.656.432 1.168.432.512 0 .896-.144 1.152-.432.267-.299.443-.683.528-1.152.086-.48.128-1.083.128-1.808zm12.15-3.632L158.433 651h-2.8l4.064-9.328h-4.976v-2.336h7.728v2.032z" fill="#fff"/><g opacity=".5" filter="url(#filter9_f_119_128)"><ellipse cx="90.86" cy="609.326" rx="35.578" ry="9.149" fill="#000"/></g><g opacity=".5" filter="url(#filter10_f_119_128)"><ellipse cx="90.883" cy="562.823" rx="40.883" ry="40.823" fill="url(#paint8_linear_119_128)"/></g><g filter="url(#filter11_dddddd_119_128)"><rect x="48.5" y="519.5" width="87" height="87" rx="19.5" stroke="#fff"/></g><rect x="44.257" y="670.257" width="93.486" height="25.169" rx="6.934" fill="#23232F"/><path d="M72.938 682.741c.407.087.734.29.98.61a1.7 1.7 0 01.37 1.08c0 .587-.206 1.054-.62 1.4-.406.34-.976.51-1.71.51h-3.27v-7.02h3.16c.714 0 1.27.164 1.67.49.407.327.61.77.61 1.33 0 .414-.11.757-.33 1.03-.213.274-.5.464-.86.57zm-2.54-.58h1.12c.28 0 .494-.06.64-.18.154-.126.23-.31.23-.55 0-.24-.076-.423-.23-.55-.146-.126-.36-.19-.64-.19h-1.12v1.47zm1.26 2.8c.287 0 .507-.063.66-.19.16-.133.24-.323.24-.57 0-.246-.083-.44-.25-.58-.16-.14-.383-.21-.67-.21h-1.24v1.55h1.26zm5.652-5.64v4.2c0 .42.103.744.31.97.207.227.51.34.91.34s.707-.113.92-.34c.213-.226.32-.55.32-.97v-4.2h1.71v4.19c0 .627-.133 1.157-.4 1.59a2.55 2.55 0 01-1.08.98 3.35 3.35 0 01-1.5.33c-.553 0-1.05-.106-1.49-.32a2.466 2.466 0 01-1.03-.98c-.253-.44-.38-.973-.38-1.6v-4.19h1.71zm11.74 0l-2.43 4.7v2.32h-1.71v-2.32l-2.43-4.7h1.94l1.36 2.94 1.35-2.94h1.92zm9.79 7.02h-1.71l-2.86-4.33v4.33h-1.71v-7.02h1.71l2.86 4.35v-4.35h1.71v7.02zm4.909.07c-.66 0-1.267-.153-1.82-.46a3.483 3.483 0 01-1.31-1.28 3.646 3.646 0 01-.48-1.86c0-.686.16-1.303.48-1.85a3.497 3.497 0 011.31-1.28 3.698 3.698 0 011.82-.46c.66 0 1.263.154 1.81.46.553.307.986.734 1.3 1.28.32.547.48 1.164.48 1.85 0 .687-.16 1.307-.48 1.86-.32.547-.754.974-1.3 1.28-.547.307-1.15.46-1.81.46zm0-1.56c.56 0 1.006-.186 1.34-.56.34-.373.51-.866.51-1.48 0-.62-.17-1.113-.51-1.48-.334-.373-.78-.56-1.34-.56-.567 0-1.02.184-1.36.55-.334.367-.5.864-.5 1.49 0 .62.166 1.117.5 1.49.34.367.793.55 1.36.55zm14.551-5.53l-1.83 7.02h-2.07l-1.12-4.62-1.16 4.62h-2.07l-1.78-7.02h1.83l1.01 5.11 1.25-5.11h1.88l1.2 5.11 1.02-5.11h1.84z" fill="#fff"/><rect x="44.257" y="670.257" width="93.486" height="25.169" rx="6.934" stroke="#454558" stroke-width=".514"/></g><g clip-path="url(#clip3_119_128)"><g filter="url(#filter12_d_119_128)" shape-rendering="crispEdges"><rect x="206" y="212.349" width="212.349" height="181.377" rx="21.933" transform="rotate(-90 206 212.349)" fill="url(#paint9_linear_119_128)"/><rect x="206.366" y="211.984" width="211.618" height="180.646" rx="21.567" transform="rotate(-90 206.366 211.984)" stroke="url(#paint10_linear_119_128)" stroke-opacity=".3" stroke-width=".731"/></g><path d="M236 142.768l-3.888 7.52V154h-2.736v-3.712l-3.888-7.52h3.104l2.176 4.704 2.16-4.704H236zm6.974 11.344a5.902 5.902 0 01-2.912-.736 5.595 5.595 0 01-2.096-2.048c-.512-.885-.768-1.877-.768-2.976s.256-2.085.768-2.96a5.595 5.595 0 012.096-2.048 5.902 5.902 0 012.912-.736c1.056 0 2.021.245 2.896.736a5.332 5.332 0 012.08 2.048c.512.875.768 1.861.768 2.96s-.256 2.091-.768 2.976a5.475 5.475 0 01-2.08 2.048c-.875.491-1.84.736-2.896.736zm0-2.496c.896 0 1.611-.299 2.144-.896.544-.597.816-1.387.816-2.368 0-.992-.272-1.781-.816-2.368-.533-.597-1.248-.896-2.144-.896-.907 0-1.632.293-2.176.88-.533.587-.8 1.381-.8 2.384 0 .992.267 1.787.8 2.384.544.587 1.269.88 2.176.88zm10.514-8.848v6.72c0 .672.165 1.189.496 1.552.331.363.816.544 1.456.544s1.131-.181 1.472-.544c.341-.363.512-.88.512-1.552v-6.72h2.736v6.704c0 1.003-.213 1.851-.64 2.544a4.093 4.093 0 01-1.728 1.568c-.715.352-1.515.528-2.4.528s-1.68-.171-2.384-.512a3.954 3.954 0 01-1.648-1.568c-.405-.704-.608-1.557-.608-2.56v-6.704h2.736zM268.369 154l-2.336-4.24h-.656V154h-2.736v-11.232h4.592c.886 0 1.638.155 2.256.464.63.309 1.099.736 1.408 1.28a3.5 3.5 0 01.464 1.792c0 .747-.213 1.413-.64 2-.416.587-1.034 1.003-1.856 1.248l2.592 4.448h-3.088zm-2.992-6.176h1.696c.502 0 .875-.123 1.12-.368.256-.245.384-.592.384-1.04 0-.427-.128-.763-.384-1.008-.245-.245-.618-.368-1.12-.368h-1.696v2.784zM287.638 154h-2.736l-4.576-6.928V154h-2.737v-11.232h2.737l4.576 6.96v-6.96h2.736V154zm9.855-11.232v2.192h-4.576v2.368h3.424v2.128h-3.424V154h-2.736v-11.232h7.312zm10.078 0v2.192h-2.976V154h-2.736v-9.04h-2.976v-2.192h8.688zm16.332 4.224l-.448 2.096h1.92v2.464h-2.448l-.528 2.448h-2.56l.528-2.448h-2.656l-.528 2.448h-2.56l.528-2.448h-2.368v-2.464h2.896l.448-2.096h-2.32v-2.464h2.832l.512-2.368h2.56l-.512 2.368h2.656l.512-2.368h2.56l-.512 2.368h1.984v2.464h-2.496zm-2.56 0h-2.656l-.448 2.096h2.656l.448-2.096zm6.868 1.008c0-1.835.352-3.28 1.056-4.336.715-1.056 1.862-1.584 3.44-1.584 1.579 0 2.72.528 3.424 1.584.715 1.056 1.072 2.501 1.072 4.336 0 1.856-.357 3.312-1.072 4.368-.704 1.056-1.845 1.584-3.424 1.584-1.578 0-2.725-.528-3.44-1.584-.704-1.056-1.056-2.512-1.056-4.368zm6.304 0c0-1.077-.117-1.904-.352-2.48-.234-.587-.72-.88-1.456-.88s-1.221.293-1.456.88c-.234.576-.352 1.403-.352 2.48 0 .725.043 1.328.128 1.808.086.469.256.853.512 1.152.267.288.656.432 1.168.432.512 0 .896-.144 1.152-.432.267-.299.443-.683.528-1.152.086-.48.128-1.083.128-1.808zm4.694 0c0-1.835.352-3.28 1.056-4.336.714-1.056 1.861-1.584 3.44-1.584 1.578 0 2.72.528 3.424 1.584.714 1.056 1.072 2.501 1.072 4.336 0 1.856-.358 3.312-1.072 4.368-.704 1.056-1.846 1.584-3.424 1.584-1.579 0-2.726-.528-3.44-1.584-.704-1.056-1.056-2.512-1.056-4.368zm6.304 0c0-1.077-.118-1.904-.352-2.48-.235-.587-.72-.88-1.456-.88s-1.222.293-1.456.88c-.235.576-.352 1.403-.352 2.48 0 .725.042 1.328.128 1.808.085.469.256.853.512 1.152.266.288.656.432 1.168.432.512 0 .896-.144 1.152-.432.266-.299.442-.683.528-1.152.085-.48.128-1.083.128-1.808zm4.693 0c0-1.835.352-3.28 1.056-4.336.715-1.056 1.862-1.584 3.44-1.584 1.579 0 2.72.528 3.424 1.584.715 1.056 1.072 2.501 1.072 4.336 0 1.856-.357 3.312-1.072 4.368-.704 1.056-1.845 1.584-3.424 1.584-1.578 0-2.725-.528-3.44-1.584-.704-1.056-1.056-2.512-1.056-4.368zm6.304 0c0-1.077-.117-1.904-.352-2.48-.234-.587-.72-.88-1.456-.88s-1.221.293-1.456.88c-.234.576-.352 1.403-.352 2.48 0 .725.043 1.328.128 1.808.086.469.256.853.512 1.152.267.288.656.432 1.168.432.512 0 .896-.144 1.152-.432.267-.299.443-.683.528-1.152.086-.48.128-1.083.128-1.808zm4.598 3.808a59.667 59.667 0 002.96-2.528 10.077 10.077 0 001.536-1.744c.416-.608.624-1.2.624-1.776 0-.437-.102-.779-.304-1.024-.203-.245-.507-.368-.912-.368-.406 0-.726.155-.96.464-.224.299-.336.725-.336 1.28h-2.64c.021-.907.213-1.664.576-2.272.373-.608.858-1.056 1.456-1.344a4.65 4.65 0 012.016-.432c1.269 0 2.224.325 2.864.976.65.651.976 1.499.976 2.544 0 1.141-.39 2.203-1.168 3.184-.779.971-1.771 1.92-2.976 2.848h4.32v2.224h-8.032v-2.032z" fill="#fff"/><g opacity=".5" filter="url(#filter13_f_119_128)"><ellipse cx="296.86" cy="112.326" rx="35.578" ry="9.149" fill="#000"/></g><g opacity=".5" filter="url(#filter14_f_119_128)"><ellipse cx="296.883" cy="65.823" rx="40.883" ry="40.823" fill="url(#paint11_linear_119_128)"/></g><g filter="url(#filter15_dddddd_119_128)"><rect x="254.5" y="22.5" width="87" height="87" rx="19.5" stroke="#fff"/></g><rect x="250.257" y="173.257" width="93.486" height="25.169" rx="6.934" fill="#23232F"/><path d="M278.938 185.741c.407.087.734.29.98.61.247.314.37.674.37 1.08 0 .587-.206 1.054-.62 1.4-.406.34-.976.51-1.71.51h-3.27v-7.02h3.16c.714 0 1.27.164 1.67.49.407.327.61.77.61 1.33 0 .414-.11.757-.33 1.03-.213.274-.5.464-.86.57zm-2.54-.58h1.12c.28 0 .494-.06.64-.18.154-.126.23-.31.23-.55 0-.24-.076-.423-.23-.55-.146-.126-.36-.19-.64-.19h-1.12v1.47zm1.26 2.8c.287 0 .507-.063.66-.19.16-.133.24-.323.24-.57 0-.246-.083-.44-.25-.58-.16-.14-.383-.21-.67-.21h-1.24v1.55h1.26zm5.652-5.64v4.2c0 .42.103.744.31.97.207.227.51.34.91.34s.707-.113.92-.34c.213-.226.32-.55.32-.97v-4.2h1.71v4.19c0 .627-.133 1.157-.4 1.59-.267.434-.627.76-1.08.98-.447.22-.947.33-1.5.33s-1.05-.106-1.49-.32a2.466 2.466 0 01-1.03-.98c-.253-.44-.38-.973-.38-1.6v-4.19h1.71zm11.741 0l-2.43 4.7v2.32h-1.71v-2.32l-2.43-4.7h1.94l1.36 2.94 1.35-2.94h1.92zm9.788 7.02h-1.71l-2.86-4.33v4.33h-1.71v-7.02h1.71l2.86 4.35v-4.35h1.71v7.02zm4.91.07c-.66 0-1.267-.153-1.82-.46a3.483 3.483 0 01-1.31-1.28 3.646 3.646 0 01-.48-1.86c0-.686.16-1.303.48-1.85a3.497 3.497 0 011.31-1.28 3.698 3.698 0 011.82-.46c.66 0 1.263.154 1.81.46.553.307.986.734 1.3 1.28.32.547.48 1.164.48 1.85 0 .687-.16 1.307-.48 1.86-.32.547-.754.974-1.3 1.28-.547.307-1.15.46-1.81.46zm0-1.56c.56 0 1.006-.186 1.34-.56.34-.373.51-.866.51-1.48 0-.62-.17-1.113-.51-1.48-.334-.373-.78-.56-1.34-.56-.567 0-1.02.184-1.36.55-.334.367-.5.864-.5 1.49 0 .62.166 1.117.5 1.49.34.367.793.55 1.36.55zm14.551-5.53l-1.83 7.02h-2.07l-1.12-4.62-1.16 4.62h-2.07l-1.78-7.02h1.83l1.01 5.11 1.25-5.11h1.88l1.2 5.11 1.02-5.11h1.84z" fill="#fff"/><rect x="250.257" y="173.257" width="93.486" height="25.169" rx="6.934" stroke="#454558" stroke-width=".514"/></g><g clip-path="url(#clip4_119_128)"><g filter="url(#filter16_d_119_128)" shape-rendering="crispEdges"><rect x="206" y="443.349" width="212.349" height="181.377" rx="21.933" transform="rotate(-90 206 443.349)" fill="url(#paint12_linear_119_128)"/><rect x="206.366" y="442.984" width="211.618" height="180.646" rx="21.567" transform="rotate(-90 206.366 442.984)" stroke="url(#paint13_linear_119_128)" stroke-opacity=".3" stroke-width=".731"/></g><path d="M234.867 373.768l-3.888 7.52V385h-2.736v-3.712l-3.888-7.52h3.104l2.176 4.704 2.16-4.704h3.072zm6.974 11.344a5.905 5.905 0 01-2.912-.736 5.603 5.603 0 01-2.096-2.048c-.512-.885-.768-1.877-.768-2.976s.256-2.085.768-2.96a5.603 5.603 0 012.096-2.048 5.905 5.905 0 012.912-.736c1.056 0 2.022.245 2.896.736a5.325 5.325 0 012.08 2.048c.512.875.768 1.861.768 2.96s-.256 2.091-.768 2.976a5.475 5.475 0 01-2.08 2.048c-.874.491-1.84.736-2.896.736zm0-2.496c.896 0 1.611-.299 2.144-.896.544-.597.816-1.387.816-2.368 0-.992-.272-1.781-.816-2.368-.533-.597-1.248-.896-2.144-.896-.906 0-1.632.293-2.176.88-.533.587-.8 1.381-.8 2.384 0 .992.267 1.787.8 2.384.544.587 1.27.88 2.176.88zm10.514-8.848v6.72c0 .672.166 1.189.496 1.552.331.363.816.544 1.456.544s1.131-.181 1.472-.544c.342-.363.512-.88.512-1.552v-6.72h2.736v6.704c0 1.003-.213 1.851-.64 2.544a4.082 4.082 0 01-1.728 1.568c-.714.352-1.514.528-2.4.528-.885 0-1.68-.171-2.384-.512a3.96 3.96 0 01-1.648-1.568c-.405-.704-.608-1.557-.608-2.56v-6.704h2.736zM267.237 385l-2.336-4.24h-.656V385h-2.736v-11.232h4.592c.885 0 1.637.155 2.256.464.629.309 1.098.736 1.408 1.28a3.51 3.51 0 01.464 1.792 3.32 3.32 0 01-.64 2c-.416.587-1.035 1.003-1.856 1.248l2.592 4.448h-3.088zm-2.992-6.176h1.696c.501 0 .874-.123 1.12-.368.256-.245.384-.592.384-1.04 0-.427-.128-.763-.384-1.008-.246-.245-.619-.368-1.12-.368h-1.696v2.784zm22.26 6.176h-2.736l-4.576-6.928V385h-2.736v-11.232h2.736l4.576 6.96v-6.96h2.736V385zm9.855-11.232v2.192h-4.576v2.368h3.424v2.128h-3.424V385h-2.736v-11.232h7.312zm10.078 0v2.192h-2.976V385h-2.736v-9.04h-2.976v-2.192h8.688zm16.332 4.224l-.448 2.096h1.92v2.464h-2.448l-.528 2.448h-2.56l.528-2.448h-2.656L316.05 385h-2.56l.528-2.448h-2.368v-2.464h2.896l.448-2.096h-2.32v-2.464h2.832l.512-2.368h2.56l-.512 2.368h2.656l.512-2.368h2.56l-.512 2.368h1.984v2.464h-2.496zm-2.56 0h-2.656l-.448 2.096h2.656l.448-2.096zm6.868 1.008c0-1.835.352-3.28 1.056-4.336.715-1.056 1.862-1.584 3.44-1.584 1.579 0 2.72.528 3.424 1.584.715 1.056 1.072 2.501 1.072 4.336 0 1.856-.357 3.312-1.072 4.368-.704 1.056-1.845 1.584-3.424 1.584-1.578 0-2.725-.528-3.44-1.584-.704-1.056-1.056-2.512-1.056-4.368zm6.304 0c0-1.077-.117-1.904-.352-2.48-.234-.587-.72-.88-1.456-.88s-1.221.293-1.456.88c-.234.576-.352 1.403-.352 2.48 0 .725.043 1.328.128 1.808.086.469.256.853.512 1.152.267.288.656.432 1.168.432.512 0 .896-.144 1.152-.432.267-.299.443-.683.528-1.152.086-.48.128-1.083.128-1.808zm4.694 0c0-1.835.352-3.28 1.056-4.336.715-1.056 1.861-1.584 3.44-1.584s2.72.528 3.424 1.584c.715 1.056 1.072 2.501 1.072 4.336 0 1.856-.357 3.312-1.072 4.368-.704 1.056-1.845 1.584-3.424 1.584s-2.725-.528-3.44-1.584c-.704-1.056-1.056-2.512-1.056-4.368zm6.304 0c0-1.077-.117-1.904-.352-2.48-.235-.587-.72-.88-1.456-.88s-1.221.293-1.456.88c-.235.576-.352 1.403-.352 2.48 0 .725.043 1.328.128 1.808.085.469.256.853.512 1.152.267.288.656.432 1.168.432.512 0 .896-.144 1.152-.432.267-.299.443-.683.528-1.152.085-.48.128-1.083.128-1.808zm4.693 0c0-1.835.352-3.28 1.056-4.336.715-1.056 1.862-1.584 3.44-1.584 1.579 0 2.72.528 3.424 1.584.715 1.056 1.072 2.501 1.072 4.336 0 1.856-.357 3.312-1.072 4.368-.704 1.056-1.845 1.584-3.424 1.584-1.578 0-2.725-.528-3.44-1.584-.704-1.056-1.056-2.512-1.056-4.368zm6.304 0c0-1.077-.117-1.904-.352-2.48-.234-.587-.72-.88-1.456-.88s-1.221.293-1.456.88c-.234.576-.352 1.403-.352 2.48 0 .725.043 1.328.128 1.808.086.469.256.853.512 1.152.267.288.656.432 1.168.432.512 0 .896-.144 1.152-.432.267-.299.443-.683.528-1.152.086-.48.128-1.083.128-1.808zm12.918-3.296h-4.992v2.208c.213-.235.512-.427.896-.576a3.42 3.42 0 011.248-.224c.8 0 1.461.181 1.984.544.533.363.923.832 1.168 1.408.245.576.368 1.2.368 1.872 0 1.248-.352 2.24-1.056 2.976-.704.725-1.696 1.088-2.976 1.088-.853 0-1.595-.144-2.224-.432-.629-.299-1.115-.709-1.456-1.232-.341-.523-.528-1.125-.56-1.808h2.672c.064.331.219.608.464.832.245.213.581.32 1.008.32.501 0 .875-.16 1.12-.48.245-.32.368-.747.368-1.28 0-.523-.128-.923-.384-1.2-.256-.277-.629-.416-1.12-.416-.363 0-.661.091-.896.272-.235.171-.389.4-.464.688h-2.64v-6.96h7.472v2.4z" fill="#fff"/><g opacity=".5" filter="url(#filter17_f_119_128)"><ellipse cx="296.86" cy="343.327" rx="35.578" ry="9.149" fill="#000"/></g><g opacity=".5" filter="url(#filter18_f_119_128)"><ellipse cx="296.883" cy="296.823" rx="40.883" ry="40.823" fill="url(#paint14_linear_119_128)"/></g><g filter="url(#filter19_dddddd_119_128)"><rect x="254.5" y="253.5" width="87" height="87" rx="19.5" stroke="#fff"/></g><rect x="250.257" y="404.257" width="93.486" height="25.169" rx="6.934" fill="#23232F"/><path d="M278.938 416.741c.407.087.734.29.98.61.247.314.37.674.37 1.08 0 .587-.206 1.054-.62 1.4-.406.34-.976.51-1.71.51h-3.27v-7.02h3.16c.714 0 1.27.164 1.67.49.407.327.61.77.61 1.33 0 .414-.11.757-.33 1.03-.213.274-.5.464-.86.57zm-2.54-.58h1.12c.28 0 .494-.06.64-.18.154-.126.23-.31.23-.55 0-.24-.076-.423-.23-.55-.146-.126-.36-.19-.64-.19h-1.12v1.47zm1.26 2.8c.287 0 .507-.063.66-.19.16-.133.24-.323.24-.57 0-.246-.083-.44-.25-.58-.16-.14-.383-.21-.67-.21h-1.24v1.55h1.26zm5.652-5.64v4.2c0 .42.103.744.31.97.207.227.51.34.91.34s.707-.113.92-.34c.213-.226.32-.55.32-.97v-4.2h1.71v4.19c0 .627-.133 1.157-.4 1.59-.267.434-.627.76-1.08.98-.447.22-.947.33-1.5.33s-1.05-.106-1.49-.32a2.466 2.466 0 01-1.03-.98c-.253-.44-.38-.973-.38-1.6v-4.19h1.71zm11.741 0l-2.43 4.7v2.32h-1.71v-2.32l-2.43-4.7h1.94l1.36 2.94 1.35-2.94h1.92zm9.788 7.02h-1.71l-2.86-4.33v4.33h-1.71v-7.02h1.71l2.86 4.35v-4.35h1.71v7.02zm4.91.07c-.66 0-1.267-.153-1.82-.46a3.483 3.483 0 01-1.31-1.28 3.646 3.646 0 01-.48-1.86c0-.686.16-1.303.48-1.85a3.497 3.497 0 011.31-1.28 3.698 3.698 0 011.82-.46c.66 0 1.263.154 1.81.46.553.307.986.734 1.3 1.28.32.547.48 1.164.48 1.85 0 .687-.16 1.307-.48 1.86-.32.547-.754.974-1.3 1.28-.547.307-1.15.46-1.81.46zm0-1.56c.56 0 1.006-.186 1.34-.56.34-.373.51-.866.51-1.48 0-.62-.17-1.113-.51-1.48-.334-.373-.78-.56-1.34-.56-.567 0-1.02.184-1.36.55-.334.367-.5.864-.5 1.49 0 .62.166 1.117.5 1.49.34.367.793.55 1.36.55zm14.551-5.53l-1.83 7.02h-2.07l-1.12-4.62-1.16 4.62h-2.07l-1.78-7.02h1.83l1.01 5.11 1.25-5.11h1.88l1.2 5.11 1.02-5.11h1.84z" fill="#fff"/><rect x="250.257" y="404.257" width="93.486" height="25.169" rx="6.934" stroke="#454558" stroke-width=".514"/></g><g clip-path="url(#clip5_119_128)"><g filter="url(#filter20_d_119_128)" shape-rendering="crispEdges"><rect x="206" y="674.349" width="212.349" height="181.377" rx="21.933" transform="rotate(-90 206 674.349)" fill="url(#paint15_linear_119_128)"/><rect x="206.366" y="673.984" width="211.618" height="180.646" rx="21.567" transform="rotate(-90 206.366 673.984)" stroke="url(#paint16_linear_119_128)" stroke-opacity=".3" stroke-width=".731"/></g><path d="M234.882 604.768l-3.888 7.52V616h-2.736v-3.712l-3.888-7.52h3.104l2.176 4.704 2.16-4.704h3.072zm6.975 11.344a5.902 5.902 0 01-2.912-.736 5.588 5.588 0 01-2.096-2.048c-.512-.885-.768-1.877-.768-2.976s.256-2.085.768-2.96a5.588 5.588 0 012.096-2.048 5.902 5.902 0 012.912-.736c1.056 0 2.021.245 2.896.736a5.339 5.339 0 012.08 2.048c.512.875.768 1.861.768 2.96s-.256 2.091-.768 2.976a5.482 5.482 0 01-2.08 2.048c-.875.491-1.84.736-2.896.736zm0-2.496c.896 0 1.61-.299 2.144-.896.544-.597.816-1.387.816-2.368 0-.992-.272-1.781-.816-2.368-.534-.597-1.248-.896-2.144-.896-.907 0-1.632.293-2.176.88-.534.587-.8 1.381-.8 2.384 0 .992.266 1.787.8 2.384.544.587 1.269.88 2.176.88zm10.514-8.848v6.72c0 .672.165 1.189.496 1.552.331.363.816.544 1.456.544s1.131-.181 1.472-.544c.341-.363.512-.88.512-1.552v-6.72h2.736v6.704c0 1.003-.213 1.851-.64 2.544a4.093 4.093 0 01-1.728 1.568c-.715.352-1.515.528-2.4.528s-1.68-.171-2.384-.512a3.954 3.954 0 01-1.648-1.568c-.405-.704-.608-1.557-.608-2.56v-6.704h2.736zM267.252 616l-2.336-4.24h-.656V616h-2.736v-11.232h4.592c.886 0 1.638.155 2.256.464.63.309 1.099.736 1.408 1.28a3.5 3.5 0 01.464 1.792c0 .747-.213 1.413-.64 2-.416.587-1.034 1.003-1.856 1.248L270.34 616h-3.088zm-2.992-6.176h1.696c.502 0 .875-.123 1.12-.368.256-.245.384-.592.384-1.04 0-.427-.128-.763-.384-1.008-.245-.245-.618-.368-1.12-.368h-1.696v2.784zM286.52 616h-2.736l-4.576-6.928V616h-2.736v-11.232h2.736l4.576 6.96v-6.96h2.736V616zm9.856-11.232v2.192H291.8v2.368h3.424v2.128H291.8V616h-2.736v-11.232h7.312zm10.078 0v2.192h-2.976V616h-2.736v-9.04h-2.976v-2.192h8.688zm16.331 4.224l-.448 2.096h1.92v2.464h-2.448l-.528 2.448h-2.56l.528-2.448h-2.656l-.528 2.448h-2.56l.528-2.448h-2.368v-2.464h2.896l.448-2.096h-2.32v-2.464h2.832l.512-2.368h2.56l-.512 2.368h2.656l.512-2.368h2.56l-.512 2.368h1.984v2.464h-2.496zm-2.56 0h-2.656l-.448 2.096h2.656l.448-2.096zm6.869 1.008c0-1.835.352-3.28 1.056-4.336.715-1.056 1.861-1.584 3.44-1.584s2.72.528 3.424 1.584c.715 1.056 1.072 2.501 1.072 4.336 0 1.856-.357 3.312-1.072 4.368-.704 1.056-1.845 1.584-3.424 1.584s-2.725-.528-3.44-1.584c-.704-1.056-1.056-2.512-1.056-4.368zm6.304 0c0-1.077-.117-1.904-.352-2.48-.235-.587-.72-.88-1.456-.88s-1.221.293-1.456.88c-.235.576-.352 1.403-.352 2.48 0 .725.043 1.328.128 1.808.085.469.256.853.512 1.152.267.288.656.432 1.168.432.512 0 .896-.144 1.152-.432.267-.299.443-.683.528-1.152.085-.48.128-1.083.128-1.808zm4.694 0c0-1.835.352-3.28 1.056-4.336.714-1.056 1.861-1.584 3.44-1.584 1.578 0 2.72.528 3.424 1.584.714 1.056 1.072 2.501 1.072 4.336 0 1.856-.358 3.312-1.072 4.368-.704 1.056-1.846 1.584-3.424 1.584-1.579 0-2.726-.528-3.44-1.584-.704-1.056-1.056-2.512-1.056-4.368zm6.304 0c0-1.077-.118-1.904-.352-2.48-.235-.587-.72-.88-1.456-.88s-1.222.293-1.456.88c-.235.576-.352 1.403-.352 2.48 0 .725.042 1.328.128 1.808.085.469.256.853.512 1.152.266.288.656.432 1.168.432.512 0 .896-.144 1.152-.432.266-.299.442-.683.528-1.152.085-.48.128-1.083.128-1.808zm4.693 0c0-1.835.352-3.28 1.056-4.336.715-1.056 1.861-1.584 3.44-1.584s2.72.528 3.424 1.584c.715 1.056 1.072 2.501 1.072 4.336 0 1.856-.357 3.312-1.072 4.368-.704 1.056-1.845 1.584-3.424 1.584s-2.725-.528-3.44-1.584c-.704-1.056-1.056-2.512-1.056-4.368zm6.304 0c0-1.077-.117-1.904-.352-2.48-.235-.587-.72-.88-1.456-.88s-1.221.293-1.456.88c-.235.576-.352 1.403-.352 2.48 0 .725.043 1.328.128 1.808.085.469.256.853.512 1.152.267.288.656.432 1.168.432.512 0 .896-.144 1.152-.432.267-.299.443-.683.528-1.152.085-.48.128-1.083.128-1.808zm6.614-.272c-1.003-.533-1.504-1.371-1.504-2.512 0-.576.149-1.099.448-1.568.298-.48.752-.859 1.36-1.136.608-.288 1.354-.432 2.24-.432.885 0 1.626.144 2.224.432.608.277 1.061.656 1.36 1.136.298.469.448.992.448 1.568 0 .576-.139 1.077-.416 1.504-.267.427-.63.763-1.088 1.008.576.277 1.018.661 1.328 1.152.309.48.464 1.045.464 1.696 0 .757-.192 1.413-.576 1.968-.384.544-.907.96-1.568 1.248-.651.288-1.376.432-2.176.432-.8 0-1.531-.144-2.192-.432a3.672 3.672 0 01-1.552-1.248c-.384-.555-.576-1.211-.576-1.968 0-.661.154-1.232.464-1.712a3.036 3.036 0 011.312-1.136zm3.92-2.096c0-.437-.128-.773-.384-1.008-.246-.245-.576-.368-.992-.368-.416 0-.752.123-1.008.368-.246.245-.368.587-.368 1.024 0 .416.128.747.384.992.256.235.586.352.992.352.405 0 .736-.123.992-.368s.384-.576.384-.992zm-1.376 3.28c-.502 0-.907.139-1.216.416-.31.267-.464.64-.464 1.12 0 .448.149.816.448 1.104.309.288.72.432 1.232.432s.912-.144 1.2-.432c.298-.288.448-.656.448-1.104 0-.469-.155-.843-.464-1.12-.299-.277-.694-.416-1.184-.416z" fill="#fff"/><g opacity=".5" filter="url(#filter21_f_119_128)"><ellipse cx="296.86" cy="574.326" rx="35.578" ry="9.149" fill="#000"/></g><g opacity=".5" filter="url(#filter22_f_119_128)"><ellipse cx="296.883" cy="527.823" rx="40.883" ry="40.823" fill="url(#paint17_linear_119_128)"/></g><g filter="url(#filter23_dddddd_119_128)"><rect x="254.5" y="484.5" width="87" height="87" rx="19.5" stroke="#fff"/></g><rect x="250.257" y="635.257" width="93.486" height="25.169" rx="6.934" fill="#23232F"/><path d="M278.938 647.741c.407.087.734.29.98.61.247.314.37.674.37 1.08 0 .587-.206 1.054-.62 1.4-.406.34-.976.51-1.71.51h-3.27v-7.02h3.16c.714 0 1.27.164 1.67.49.407.327.61.77.61 1.33 0 .414-.11.757-.33 1.03-.213.274-.5.464-.86.57zm-2.54-.58h1.12c.28 0 .494-.06.64-.18.154-.126.23-.31.23-.55 0-.24-.076-.423-.23-.55-.146-.126-.36-.19-.64-.19h-1.12v1.47zm1.26 2.8c.287 0 .507-.063.66-.19.16-.133.24-.323.24-.57 0-.246-.083-.44-.25-.58-.16-.14-.383-.21-.67-.21h-1.24v1.55h1.26zm5.652-5.64v4.2c0 .42.103.744.31.97.207.227.51.34.91.34s.707-.113.92-.34c.213-.226.32-.55.32-.97v-4.2h1.71v4.19c0 .627-.133 1.157-.4 1.59-.267.434-.627.76-1.08.98-.447.22-.947.33-1.5.33s-1.05-.106-1.49-.32a2.466 2.466 0 01-1.03-.98c-.253-.44-.38-.973-.38-1.6v-4.19h1.71zm11.741 0l-2.43 4.7v2.32h-1.71v-2.32l-2.43-4.7h1.94l1.36 2.94 1.35-2.94h1.92zm9.788 7.02h-1.71l-2.86-4.33v4.33h-1.71v-7.02h1.71l2.86 4.35v-4.35h1.71v7.02zm4.91.07c-.66 0-1.267-.153-1.82-.46a3.483 3.483 0 01-1.31-1.28 3.646 3.646 0 01-.48-1.86c0-.686.16-1.303.48-1.85a3.497 3.497 0 011.31-1.28 3.698 3.698 0 011.82-.46c.66 0 1.263.154 1.81.46.553.307.986.734 1.3 1.28.32.547.48 1.164.48 1.85 0 .687-.16 1.307-.48 1.86-.32.547-.754.974-1.3 1.28-.547.307-1.15.46-1.81.46zm0-1.56c.56 0 1.006-.186 1.34-.56.34-.373.51-.866.51-1.48 0-.62-.17-1.113-.51-1.48-.334-.373-.78-.56-1.34-.56-.567 0-1.02.184-1.36.55-.334.367-.5.864-.5 1.49 0 .62.166 1.117.5 1.49.34.367.793.55 1.36.55zm14.551-5.53l-1.83 7.02h-2.07l-1.12-4.62-1.16 4.62h-2.07l-1.78-7.02h1.83l1.01 5.11 1.25-5.11h1.88l1.2 5.11 1.02-5.11h1.84z" fill="#fff"/><rect x="250.257" y="635.257" width="93.486" height="25.169" rx="6.934" stroke="#454558" stroke-width=".514"/></g><g clip-path="url(#clip6_119_128)"><g filter="url(#filter24_d_119_128)" shape-rendering="crispEdges"><rect x="412" y="247.349" width="212.349" height="181.377" rx="21.933" transform="rotate(-90 412 247.349)" fill="url(#paint18_linear_119_128)"/><rect x="412.366" y="246.984" width="211.618" height="180.646" rx="21.567" transform="rotate(-90 412.366 246.984)" stroke="url(#paint19_linear_119_128)" stroke-opacity=".3" stroke-width=".731"/></g><path d="M441.726 177.768l-3.888 7.52V189h-2.736v-3.712l-3.888-7.52h3.104l2.176 4.704 2.16-4.704h3.072zm6.975 11.344a5.902 5.902 0 01-2.912-.736 5.588 5.588 0 01-2.096-2.048c-.512-.885-.768-1.877-.768-2.976s.256-2.085.768-2.96a5.588 5.588 0 012.096-2.048 5.902 5.902 0 012.912-.736c1.056 0 2.021.245 2.896.736a5.339 5.339 0 012.08 2.048c.512.875.768 1.861.768 2.96s-.256 2.091-.768 2.976a5.482 5.482 0 01-2.08 2.048c-.875.491-1.84.736-2.896.736zm0-2.496c.896 0 1.61-.299 2.144-.896.544-.597.816-1.387.816-2.368 0-.992-.272-1.781-.816-2.368-.534-.597-1.248-.896-2.144-.896-.907 0-1.632.293-2.176.88-.534.587-.8 1.381-.8 2.384 0 .992.266 1.787.8 2.384.544.587 1.269.88 2.176.88zm10.514-8.848v6.72c0 .672.165 1.189.496 1.552.33.363.816.544 1.456.544s1.13-.181 1.472-.544c.341-.363.512-.88.512-1.552v-6.72h2.736v6.704c0 1.003-.214 1.851-.64 2.544a4.093 4.093 0 01-1.728 1.568c-.715.352-1.515.528-2.4.528-.886 0-1.68-.171-2.384-.512a3.949 3.949 0 01-1.648-1.568c-.406-.704-.608-1.557-.608-2.56v-6.704h2.736zM474.096 189l-2.336-4.24h-.656V189h-2.736v-11.232h4.592c.885 0 1.637.155 2.256.464.629.309 1.099.736 1.408 1.28a3.51 3.51 0 01.464 1.792c0 .747-.213 1.413-.64 2-.416.587-1.035 1.003-1.856 1.248l2.592 4.448h-3.088zm-2.992-6.176h1.696c.501 0 .875-.123 1.12-.368.256-.245.384-.592.384-1.04 0-.427-.128-.763-.384-1.008-.245-.245-.619-.368-1.12-.368h-1.696v2.784zm22.26 6.176h-2.736l-4.576-6.928V189h-2.736v-11.232h2.736l4.576 6.96v-6.96h2.736V189zm9.855-11.232v2.192h-4.576v2.368h3.424v2.128h-3.424V189h-2.736v-11.232h7.312zm10.078 0v2.192h-2.976V189h-2.736v-9.04h-2.976v-2.192h8.688zm16.332 4.224l-.448 2.096h1.92v2.464h-2.448l-.528 2.448h-2.56l.528-2.448h-2.656l-.528 2.448h-2.56l.528-2.448h-2.368v-2.464h2.896l.448-2.096h-2.32v-2.464h2.832l.512-2.368h2.56l-.512 2.368h2.656l.512-2.368h2.56l-.512 2.368h1.984v2.464h-2.496zm-2.56 0h-2.656l-.448 2.096h2.656l.448-2.096zm6.869 1.008c0-1.835.352-3.28 1.056-4.336.714-1.056 1.861-1.584 3.44-1.584 1.578 0 2.72.528 3.424 1.584.714 1.056 1.072 2.501 1.072 4.336 0 1.856-.358 3.312-1.072 4.368-.704 1.056-1.846 1.584-3.424 1.584-1.579 0-2.726-.528-3.44-1.584-.704-1.056-1.056-2.512-1.056-4.368zm6.304 0c0-1.077-.118-1.904-.352-2.48-.235-.587-.72-.88-1.456-.88s-1.222.293-1.456.88c-.235.576-.352 1.403-.352 2.48 0 .725.042 1.328.128 1.808.085.469.256.853.512 1.152.266.288.656.432 1.168.432.512 0 .896-.144 1.152-.432.266-.299.442-.683.528-1.152.085-.48.128-1.083.128-1.808zm4.693 0c0-1.835.352-3.28 1.056-4.336.715-1.056 1.862-1.584 3.44-1.584 1.579 0 2.72.528 3.424 1.584.715 1.056 1.072 2.501 1.072 4.336 0 1.856-.357 3.312-1.072 4.368-.704 1.056-1.845 1.584-3.424 1.584-1.578 0-2.725-.528-3.44-1.584-.704-1.056-1.056-2.512-1.056-4.368zm6.304 0c0-1.077-.117-1.904-.352-2.48-.234-.587-.72-.88-1.456-.88s-1.221.293-1.456.88c-.234.576-.352 1.403-.352 2.48 0 .725.043 1.328.128 1.808.086.469.256.853.512 1.152.267.288.656.432 1.168.432.512 0 .896-.144 1.152-.432.267-.299.443-.683.528-1.152.086-.48.128-1.083.128-1.808zm4.694 0c0-1.835.352-3.28 1.056-4.336.714-1.056 1.861-1.584 3.44-1.584 1.578 0 2.72.528 3.424 1.584.714 1.056 1.072 2.501 1.072 4.336 0 1.856-.358 3.312-1.072 4.368-.704 1.056-1.846 1.584-3.424 1.584-1.579 0-2.726-.528-3.44-1.584-.704-1.056-1.056-2.512-1.056-4.368zm6.304 0c0-1.077-.118-1.904-.352-2.48-.235-.587-.72-.88-1.456-.88s-1.222.293-1.456.88c-.235.576-.352 1.403-.352 2.48 0 .725.042 1.328.128 1.808.085.469.256.853.512 1.152.266.288.656.432 1.168.432.512 0 .896-.144 1.152-.432.266-.299.442-.683.528-1.152.085-.48.128-1.083.128-1.808zm4.789-2.384c.043-1.141.416-2.021 1.12-2.64.704-.619 1.659-.928 2.864-.928.8 0 1.483.139 2.048.416.576.277 1.008.656 1.296 1.136.299.48.448 1.019.448 1.616 0 .704-.176 1.28-.528 1.728-.352.437-.762.736-1.232.896v.064c.608.203 1.088.539 1.44 1.008.352.469.528 1.072.528 1.808 0 .661-.154 1.248-.464 1.76-.298.501-.741.896-1.328 1.184-.576.288-1.264.432-2.064.432-1.28 0-2.304-.315-3.072-.944-.757-.629-1.157-1.579-1.2-2.848h2.656c.011.469.144.843.4 1.12.256.267.63.4 1.12.4.416 0 .736-.117.96-.352.235-.245.352-.565.352-.96 0-.512-.165-.88-.496-1.104-.32-.235-.837-.352-1.552-.352h-.512v-2.224h.512c.544 0 .982-.091 1.312-.272.342-.192.512-.528.512-1.008 0-.384-.106-.683-.32-.896-.213-.213-.506-.32-.88-.32-.405 0-.709.123-.912.368-.192.245-.304.549-.336.912h-2.672z" fill="#fff"/><g opacity=".5" filter="url(#filter25_f_119_128)"><ellipse cx="502.86" cy="147.326" rx="35.578" ry="9.149" fill="#000"/></g><g opacity=".5" filter="url(#filter26_f_119_128)"><ellipse cx="502.883" cy="100.823" rx="40.883" ry="40.823" fill="url(#paint20_linear_119_128)"/></g><g filter="url(#filter27_dddddd_119_128)"><rect x="460.5" y="57.5" width="87" height="87" rx="19.5" stroke="#fff"/></g><rect x="456.257" y="208.257" width="93.486" height="25.169" rx="6.934" fill="#23232F"/><path d="M484.938 220.741c.407.087.734.29.98.61.247.314.37.674.37 1.08 0 .587-.206 1.054-.62 1.4-.406.34-.976.51-1.71.51h-3.27v-7.02h3.16c.714 0 1.27.164 1.67.49.407.327.61.77.61 1.33 0 .414-.11.757-.33 1.03-.213.274-.5.464-.86.57zm-2.54-.58h1.12c.28 0 .494-.06.64-.18.154-.126.23-.31.23-.55 0-.24-.076-.423-.23-.55-.146-.126-.36-.19-.64-.19h-1.12v1.47zm1.26 2.8c.287 0 .507-.063.66-.19.16-.133.24-.323.24-.57 0-.246-.083-.44-.25-.58-.16-.14-.383-.21-.67-.21h-1.24v1.55h1.26zm5.652-5.64v4.2c0 .42.103.744.31.97.207.227.51.34.91.34s.707-.113.92-.34c.213-.226.32-.55.32-.97v-4.2h1.71v4.19c0 .627-.133 1.157-.4 1.59-.267.434-.627.76-1.08.98-.447.22-.947.33-1.5.33s-1.05-.106-1.49-.32a2.466 2.466 0 01-1.03-.98c-.253-.44-.38-.973-.38-1.6v-4.19h1.71zm11.741 0l-2.43 4.7v2.32h-1.71v-2.32l-2.43-4.7h1.94l1.36 2.94 1.35-2.94h1.92zm9.788 7.02h-1.71l-2.86-4.33v4.33h-1.71v-7.02h1.71l2.86 4.35v-4.35h1.71v7.02zm4.91.07c-.66 0-1.267-.153-1.82-.46a3.483 3.483 0 01-1.31-1.28 3.646 3.646 0 01-.48-1.86c0-.686.16-1.303.48-1.85a3.497 3.497 0 011.31-1.28 3.698 3.698 0 011.82-.46c.66 0 1.263.154 1.81.46.553.307.986.734 1.3 1.28.32.547.48 1.164.48 1.85 0 .687-.16 1.307-.48 1.86-.32.547-.754.974-1.3 1.28-.547.307-1.15.46-1.81.46zm0-1.56c.56 0 1.006-.186 1.34-.56.34-.373.51-.866.51-1.48 0-.62-.17-1.113-.51-1.48-.334-.373-.78-.56-1.34-.56-.567 0-1.02.184-1.36.55-.334.367-.5.864-.5 1.49 0 .62.166 1.117.5 1.49.34.367.793.55 1.36.55zm14.551-5.53l-1.83 7.02h-2.07l-1.12-4.62-1.16 4.62h-2.07l-1.78-7.02h1.83l1.01 5.11 1.25-5.11h1.88l1.2 5.11 1.02-5.11h1.84z" fill="#fff"/><rect x="456.257" y="208.257" width="93.486" height="25.169" rx="6.934" stroke="#454558" stroke-width=".514"/></g><g clip-path="url(#clip7_119_128)"><g filter="url(#filter28_d_119_128)" shape-rendering="crispEdges"><rect x="412" y="478.349" width="212.349" height="181.377" rx="21.933" transform="rotate(-90 412 478.349)" fill="url(#paint21_linear_119_128)"/><rect x="412.366" y="477.984" width="211.618" height="180.646" rx="21.567" transform="rotate(-90 412.366 477.984)" stroke="url(#paint22_linear_119_128)" stroke-opacity=".3" stroke-width=".731"/></g><path d="M440.976 408.768l-3.888 7.52V420h-2.736v-3.712l-3.888-7.52h3.104l2.176 4.704 2.16-4.704h3.072zm6.975 11.344a5.902 5.902 0 01-2.912-.736 5.588 5.588 0 01-2.096-2.048c-.512-.885-.768-1.877-.768-2.976s.256-2.085.768-2.96a5.588 5.588 0 012.096-2.048 5.902 5.902 0 012.912-.736c1.056 0 2.021.245 2.896.736a5.339 5.339 0 012.08 2.048c.512.875.768 1.861.768 2.96s-.256 2.091-.768 2.976a5.482 5.482 0 01-2.08 2.048c-.875.491-1.84.736-2.896.736zm0-2.496c.896 0 1.61-.299 2.144-.896.544-.597.816-1.387.816-2.368 0-.992-.272-1.781-.816-2.368-.534-.597-1.248-.896-2.144-.896-.907 0-1.632.293-2.176.88-.534.587-.8 1.381-.8 2.384 0 .992.266 1.787.8 2.384.544.587 1.269.88 2.176.88zm10.514-8.848v6.72c0 .672.165 1.189.496 1.552.33.363.816.544 1.456.544s1.13-.181 1.472-.544c.341-.363.512-.88.512-1.552v-6.72h2.736v6.704c0 1.003-.214 1.851-.64 2.544a4.093 4.093 0 01-1.728 1.568c-.715.352-1.515.528-2.4.528-.886 0-1.68-.171-2.384-.512a3.949 3.949 0 01-1.648-1.568c-.406-.704-.608-1.557-.608-2.56v-6.704h2.736zM473.346 420l-2.336-4.24h-.656V420h-2.736v-11.232h4.592c.885 0 1.637.155 2.256.464.629.309 1.099.736 1.408 1.28a3.51 3.51 0 01.464 1.792c0 .747-.213 1.413-.64 2-.416.587-1.035 1.003-1.856 1.248l2.592 4.448h-3.088zm-2.992-6.176h1.696c.501 0 .875-.123 1.12-.368.256-.245.384-.592.384-1.04 0-.427-.128-.763-.384-1.008-.245-.245-.619-.368-1.12-.368h-1.696v2.784zm22.26 6.176h-2.736l-4.576-6.928V420h-2.736v-11.232h2.736l4.576 6.96v-6.96h2.736V420zm9.855-11.232v2.192h-4.576v2.368h3.424v2.128h-3.424V420h-2.736v-11.232h7.312zm10.078 0v2.192h-2.976V420h-2.736v-9.04h-2.976v-2.192h8.688zm16.332 4.224l-.448 2.096h1.92v2.464h-2.448l-.528 2.448h-2.56l.528-2.448h-2.656l-.528 2.448h-2.56l.528-2.448h-2.368v-2.464h2.896l.448-2.096h-2.32v-2.464h2.832l.512-2.368h2.56l-.512 2.368h2.656l.512-2.368h2.56l-.512 2.368h1.984v2.464h-2.496zm-2.56 0h-2.656l-.448 2.096h2.656l.448-2.096zm6.869 1.008c0-1.835.352-3.28 1.056-4.336.714-1.056 1.861-1.584 3.44-1.584 1.578 0 2.72.528 3.424 1.584.714 1.056 1.072 2.501 1.072 4.336 0 1.856-.358 3.312-1.072 4.368-.704 1.056-1.846 1.584-3.424 1.584-1.579 0-2.726-.528-3.44-1.584-.704-1.056-1.056-2.512-1.056-4.368zm6.304 0c0-1.077-.118-1.904-.352-2.48-.235-.587-.72-.88-1.456-.88s-1.222.293-1.456.88c-.235.576-.352 1.403-.352 2.48 0 .725.042 1.328.128 1.808.085.469.256.853.512 1.152.266.288.656.432 1.168.432.512 0 .896-.144 1.152-.432.266-.299.442-.683.528-1.152.085-.48.128-1.083.128-1.808zm4.693 0c0-1.835.352-3.28 1.056-4.336.715-1.056 1.862-1.584 3.44-1.584 1.579 0 2.72.528 3.424 1.584.715 1.056 1.072 2.501 1.072 4.336 0 1.856-.357 3.312-1.072 4.368-.704 1.056-1.845 1.584-3.424 1.584-1.578 0-2.725-.528-3.44-1.584-.704-1.056-1.056-2.512-1.056-4.368zm6.304 0c0-1.077-.117-1.904-.352-2.48-.234-.587-.72-.88-1.456-.88s-1.221.293-1.456.88c-.234.576-.352 1.403-.352 2.48 0 .725.043 1.328.128 1.808.086.469.256.853.512 1.152.267.288.656.432 1.168.432.512 0 .896-.144 1.152-.432.267-.299.443-.683.528-1.152.086-.48.128-1.083.128-1.808zm4.694 0c0-1.835.352-3.28 1.056-4.336.714-1.056 1.861-1.584 3.44-1.584 1.578 0 2.72.528 3.424 1.584.714 1.056 1.072 2.501 1.072 4.336 0 1.856-.358 3.312-1.072 4.368-.704 1.056-1.846 1.584-3.424 1.584-1.579 0-2.726-.528-3.44-1.584-.704-1.056-1.056-2.512-1.056-4.368zm6.304 0c0-1.077-.118-1.904-.352-2.48-.235-.587-.72-.88-1.456-.88s-1.222.293-1.456.88c-.235.576-.352 1.403-.352 2.48 0 .725.042 1.328.128 1.808.085.469.256.853.512 1.152.266.288.656.432 1.168.432.512 0 .896-.144 1.152-.432.266-.299.442-.683.528-1.152.085-.48.128-1.083.128-1.808zm10.469-2.528c-.085-.395-.234-.688-.448-.88-.213-.203-.517-.304-.912-.304-.608 0-1.045.267-1.312.8-.266.523-.405 1.355-.416 2.496a2.401 2.401 0 011.008-.88c.448-.213.939-.32 1.472-.32 1.046 0 1.883.331 2.512.992.64.661.96 1.584.96 2.768 0 .779-.16 1.461-.48 2.048a3.29 3.29 0 01-1.376 1.376c-.597.331-1.306.496-2.128.496-1.642 0-2.784-.512-3.424-1.536-.64-1.035-.96-2.517-.96-4.448 0-2.027.336-3.531 1.008-4.512.683-.992 1.771-1.488 3.264-1.488.8 0 1.472.16 2.016.48.555.309.971.72 1.248 1.232.288.512.459 1.072.512 1.68h-2.544zm-1.264 3.072c-.458 0-.842.139-1.152.416-.298.267-.448.651-.448 1.152 0 .512.139.912.416 1.2.288.288.694.432 1.216.432.47 0 .838-.139 1.104-.416.278-.288.416-.677.416-1.168 0-.501-.133-.896-.4-1.184-.266-.288-.65-.432-1.152-.432z" fill="#fff"/><g opacity=".5" filter="url(#filter29_f_119_128)"><ellipse cx="502.86" cy="378.327" rx="35.578" ry="9.149" fill="#000"/></g><g opacity=".5" filter="url(#filter30_f_119_128)"><ellipse cx="502.883" cy="331.823" rx="40.883" ry="40.823" fill="url(#paint23_linear_119_128)"/></g><g filter="url(#filter31_dddddd_119_128)"><rect x="460.5" y="288.5" width="87" height="87" rx="19.5" stroke="#fff"/></g><rect x="456.257" y="439.257" width="93.486" height="25.169" rx="6.934" fill="#23232F"/><path d="M484.938 451.741c.407.087.734.29.98.61.247.314.37.674.37 1.08 0 .587-.206 1.054-.62 1.4-.406.34-.976.51-1.71.51h-3.27v-7.02h3.16c.714 0 1.27.164 1.67.49.407.327.61.77.61 1.33 0 .414-.11.757-.33 1.03-.213.274-.5.464-.86.57zm-2.54-.58h1.12c.28 0 .494-.06.64-.18.154-.126.23-.31.23-.55 0-.24-.076-.423-.23-.55-.146-.126-.36-.19-.64-.19h-1.12v1.47zm1.26 2.8c.287 0 .507-.063.66-.19.16-.133.24-.323.24-.57 0-.246-.083-.44-.25-.58-.16-.14-.383-.21-.67-.21h-1.24v1.55h1.26zm5.652-5.64v4.2c0 .42.103.744.31.97.207.227.51.34.91.34s.707-.113.92-.34c.213-.226.32-.55.32-.97v-4.2h1.71v4.19c0 .627-.133 1.157-.4 1.59-.267.434-.627.76-1.08.98-.447.22-.947.33-1.5.33s-1.05-.106-1.49-.32a2.466 2.466 0 01-1.03-.98c-.253-.44-.38-.973-.38-1.6v-4.19h1.71zm11.741 0l-2.43 4.7v2.32h-1.71v-2.32l-2.43-4.7h1.94l1.36 2.94 1.35-2.94h1.92zm9.788 7.02h-1.71l-2.86-4.33v4.33h-1.71v-7.02h1.71l2.86 4.35v-4.35h1.71v7.02zm4.91.07c-.66 0-1.267-.153-1.82-.46a3.483 3.483 0 01-1.31-1.28 3.646 3.646 0 01-.48-1.86c0-.686.16-1.303.48-1.85a3.497 3.497 0 011.31-1.28 3.698 3.698 0 011.82-.46c.66 0 1.263.154 1.81.46.553.307.986.734 1.3 1.28.32.547.48 1.164.48 1.85 0 .687-.16 1.307-.48 1.86-.32.547-.754.974-1.3 1.28-.547.307-1.15.46-1.81.46zm0-1.56c.56 0 1.006-.186 1.34-.56.34-.373.51-.866.51-1.48 0-.62-.17-1.113-.51-1.48-.334-.373-.78-.56-1.34-.56-.567 0-1.02.184-1.36.55-.334.367-.5.864-.5 1.49 0 .62.166 1.117.5 1.49.34.367.793.55 1.36.55zm14.551-5.53l-1.83 7.02h-2.07l-1.12-4.62-1.16 4.62h-2.07l-1.78-7.02h1.83l1.01 5.11 1.25-5.11h1.88l1.2 5.11 1.02-5.11h1.84z" fill="#fff"/><rect x="456.257" y="439.257" width="93.486" height="25.169" rx="6.934" stroke="#454558" stroke-width=".514"/></g><g clip-path="url(#clip8_119_128)"><g filter="url(#filter32_d_119_128)" shape-rendering="crispEdges"><rect x="412" y="709.349" width="212.349" height="181.377" rx="21.933" transform="rotate(-90 412 709.349)" fill="url(#paint24_linear_119_128)"/><rect x="412.366" y="708.984" width="211.618" height="180.646" rx="21.567" transform="rotate(-90 412.366 708.984)" stroke="url(#paint25_linear_119_128)" stroke-opacity=".3" stroke-width=".731"/></g><path d="M441.648 639.768l-3.888 7.52V651h-2.736v-3.712l-3.888-7.52h3.104l2.176 4.704 2.16-4.704h3.072zm6.974 11.344a5.905 5.905 0 01-2.912-.736 5.603 5.603 0 01-2.096-2.048c-.512-.885-.768-1.877-.768-2.976s.256-2.085.768-2.96a5.603 5.603 0 012.096-2.048 5.905 5.905 0 012.912-.736c1.056 0 2.022.245 2.896.736a5.325 5.325 0 012.08 2.048c.512.875.768 1.861.768 2.96s-.256 2.091-.768 2.976a5.475 5.475 0 01-2.08 2.048c-.874.491-1.84.736-2.896.736zm0-2.496c.896 0 1.611-.299 2.144-.896.544-.597.816-1.387.816-2.368 0-.992-.272-1.781-.816-2.368-.533-.597-1.248-.896-2.144-.896-.906 0-1.632.293-2.176.88-.533.587-.8 1.381-.8 2.384 0 .992.267 1.787.8 2.384.544.587 1.27.88 2.176.88zm10.515-8.848v6.72c0 .672.165 1.189.496 1.552.33.363.816.544 1.456.544s1.13-.181 1.472-.544c.341-.363.512-.88.512-1.552v-6.72h2.736v6.704c0 1.003-.214 1.851-.64 2.544a4.093 4.093 0 01-1.728 1.568c-.715.352-1.515.528-2.4.528-.886 0-1.68-.171-2.384-.512a3.949 3.949 0 01-1.648-1.568c-.406-.704-.608-1.557-.608-2.56v-6.704h2.736zM474.018 651l-2.336-4.24h-.656V651h-2.736v-11.232h4.592c.885 0 1.637.155 2.256.464.629.309 1.098.736 1.408 1.28a3.51 3.51 0 01.464 1.792 3.32 3.32 0 01-.64 2c-.416.587-1.035 1.003-1.856 1.248l2.592 4.448h-3.088zm-2.992-6.176h1.696c.501 0 .874-.123 1.12-.368.256-.245.384-.592.384-1.04 0-.427-.128-.763-.384-1.008-.246-.245-.619-.368-1.12-.368h-1.696v2.784zm22.26 6.176h-2.736l-4.576-6.928V651h-2.736v-11.232h2.736l4.576 6.96v-6.96h2.736V651zm9.855-11.232v2.192h-4.576v2.368h3.424v2.128h-3.424V651h-2.736v-11.232h7.312zm10.078 0v2.192h-2.976V651h-2.736v-9.04h-2.976v-2.192h8.688zm16.332 4.224l-.448 2.096h1.92v2.464h-2.448l-.528 2.448h-2.56l.528-2.448h-2.656l-.528 2.448h-2.56l.528-2.448h-2.368v-2.464h2.896l.448-2.096h-2.32v-2.464h2.832l.512-2.368h2.56l-.512 2.368h2.656l.512-2.368h2.56l-.512 2.368h1.984v2.464h-2.496zm-2.56 0h-2.656l-.448 2.096h2.656l.448-2.096zM533.86 645c0-1.835.352-3.28 1.056-4.336.714-1.056 1.861-1.584 3.44-1.584 1.578 0 2.72.528 3.424 1.584.714 1.056 1.072 2.501 1.072 4.336 0 1.856-.358 3.312-1.072 4.368-.704 1.056-1.846 1.584-3.424 1.584-1.579 0-2.726-.528-3.44-1.584-.704-1.056-1.056-2.512-1.056-4.368zm6.304 0c0-1.077-.118-1.904-.352-2.48-.235-.587-.72-.88-1.456-.88s-1.222.293-1.456.88c-.235.576-.352 1.403-.352 2.48 0 .725.042 1.328.128 1.808.085.469.256.853.512 1.152.266.288.656.432 1.168.432.512 0 .896-.144 1.152-.432.266-.299.442-.683.528-1.152.085-.48.128-1.083.128-1.808zm4.693 0c0-1.835.352-3.28 1.056-4.336.715-1.056 1.862-1.584 3.44-1.584 1.579 0 2.72.528 3.424 1.584.715 1.056 1.072 2.501 1.072 4.336 0 1.856-.357 3.312-1.072 4.368-.704 1.056-1.845 1.584-3.424 1.584-1.578 0-2.725-.528-3.44-1.584-.704-1.056-1.056-2.512-1.056-4.368zm6.304 0c0-1.077-.117-1.904-.352-2.48-.234-.587-.72-.88-1.456-.88s-1.221.293-1.456.88c-.234.576-.352 1.403-.352 2.48 0 .725.043 1.328.128 1.808.086.469.256.853.512 1.152.267.288.656.432 1.168.432.512 0 .896-.144 1.152-.432.267-.299.443-.683.528-1.152.086-.48.128-1.083.128-1.808zm4.694 0c0-1.835.352-3.28 1.056-4.336.714-1.056 1.861-1.584 3.44-1.584 1.578 0 2.72.528 3.424 1.584.714 1.056 1.072 2.501 1.072 4.336 0 1.856-.358 3.312-1.072 4.368-.704 1.056-1.846 1.584-3.424 1.584-1.579 0-2.726-.528-3.44-1.584-.704-1.056-1.056-2.512-1.056-4.368zm6.304 0c0-1.077-.118-1.904-.352-2.48-.235-.587-.72-.88-1.456-.88s-1.222.293-1.456.88c-.235.576-.352 1.403-.352 2.48 0 .725.042 1.328.128 1.808.085.469.256.853.512 1.152.266.288.656.432 1.168.432.512 0 .896-.144 1.152-.432.266-.299.442-.683.528-1.152.085-.48.128-1.083.128-1.808zm7.637 2.576c.16.843.651 1.264 1.472 1.264.566 0 .966-.251 1.2-.752.235-.501.352-1.317.352-2.448a2.284 2.284 0 01-.96.768 3.296 3.296 0 01-1.36.272c-.682 0-1.29-.139-1.824-.416a3.139 3.139 0 01-1.264-1.264c-.298-.565-.448-1.248-.448-2.048 0-.789.16-1.477.48-2.064a3.42 3.42 0 011.392-1.36c.608-.32 1.323-.48 2.144-.48 1.579 0 2.683.491 3.312 1.472.63.981.944 2.427.944 4.336 0 1.387-.128 2.533-.384 3.44-.245.896-.666 1.579-1.264 2.048-.586.469-1.392.704-2.416.704-.81 0-1.504-.16-2.08-.48a3.484 3.484 0 01-1.312-1.264 3.994 3.994 0 01-.512-1.728h2.528zm1.328-3.056c.448 0 .806-.133 1.072-.4.267-.277.4-.651.4-1.12 0-.512-.138-.907-.416-1.184-.277-.277-.65-.416-1.12-.416-.469 0-.842.144-1.12.432-.266.277-.4.661-.4 1.152 0 .459.134.832.4 1.12.278.277.672.416 1.184.416z" fill="#fff"/><g opacity=".5" filter="url(#filter33_f_119_128)"><ellipse cx="502.86" cy="609.326" rx="35.578" ry="9.149" fill="#000"/></g><g opacity=".5" filter="url(#filter34_f_119_128)"><ellipse cx="502.883" cy="562.823" rx="40.883" ry="40.823" fill="url(#paint26_linear_119_128)"/></g><g filter="url(#filter35_dddddd_119_128)"><rect x="460.5" y="519.5" width="87" height="87" rx="19.5" stroke="#fff"/></g><rect x="456.257" y="670.257" width="93.486" height="25.169" rx="6.934" fill="#23232F"/><path d="M484.938 682.741c.407.087.734.29.98.61.247.314.37.674.37 1.08 0 .587-.206 1.054-.62 1.4-.406.34-.976.51-1.71.51h-3.27v-7.02h3.16c.714 0 1.27.164 1.67.49.407.327.61.77.61 1.33 0 .414-.11.757-.33 1.03-.213.274-.5.464-.86.57zm-2.54-.58h1.12c.28 0 .494-.06.64-.18.154-.126.23-.31.23-.55 0-.24-.076-.423-.23-.55-.146-.126-.36-.19-.64-.19h-1.12v1.47zm1.26 2.8c.287 0 .507-.063.66-.19.16-.133.24-.323.24-.57 0-.246-.083-.44-.25-.58-.16-.14-.383-.21-.67-.21h-1.24v1.55h1.26zm5.652-5.64v4.2c0 .42.103.744.31.97.207.227.51.34.91.34s.707-.113.92-.34c.213-.226.32-.55.32-.97v-4.2h1.71v4.19c0 .627-.133 1.157-.4 1.59-.267.434-.627.76-1.08.98-.447.22-.947.33-1.5.33s-1.05-.106-1.49-.32a2.466 2.466 0 01-1.03-.98c-.253-.44-.38-.973-.38-1.6v-4.19h1.71zm11.741 0l-2.43 4.7v2.32h-1.71v-2.32l-2.43-4.7h1.94l1.36 2.94 1.35-2.94h1.92zm9.788 7.02h-1.71l-2.86-4.33v4.33h-1.71v-7.02h1.71l2.86 4.35v-4.35h1.71v7.02zm4.91.07c-.66 0-1.267-.153-1.82-.46a3.483 3.483 0 01-1.31-1.28 3.646 3.646 0 01-.48-1.86c0-.686.16-1.303.48-1.85a3.497 3.497 0 011.31-1.28 3.698 3.698 0 011.82-.46c.66 0 1.263.154 1.81.46.553.307.986.734 1.3 1.28.32.547.48 1.164.48 1.85 0 .687-.16 1.307-.48 1.86-.32.547-.754.974-1.3 1.28-.547.307-1.15.46-1.81.46zm0-1.56c.56 0 1.006-.186 1.34-.56.34-.373.51-.866.51-1.48 0-.62-.17-1.113-.51-1.48-.334-.373-.78-.56-1.34-.56-.567 0-1.02.184-1.36.55-.334.367-.5.864-.5 1.49 0 .62.166 1.117.5 1.49.34.367.793.55 1.36.55zm14.551-5.53l-1.83 7.02h-2.07l-1.12-4.62-1.16 4.62h-2.07l-1.78-7.02h1.83l1.01 5.11 1.25-5.11h1.88l1.2 5.11 1.02-5.11h1.84z" fill="#fff"/><rect x="456.257" y="670.257" width="93.486" height="25.169" rx="6.934" stroke="#454558" stroke-width=".514"/></g><defs><filter id="filter0_d_119_128" x="-32.899" y="5.025" width="247.175" height="278.147" filterUnits="userSpaceOnUse" color-interpolation-filters="sRGB"><feFlood flood-opacity="0" result="BackgroundImageFix"/><feColorMatrix in="SourceAlpha" values="0 0 0 0 0 0 0 0 0 0 0 0 0 0 0 0 0 0 127 0" result="hardAlpha"/><feOffset dy="2.924"/><feGaussianBlur stdDeviation="16.45"/><feComposite in2="hardAlpha" operator="out"/><feColorMatrix values="0 0 0 0 0 0 0 0 0 0 0 0 0 0 0 0 0 0 0.15 0"/><feBlend in2="BackgroundImageFix" result="effect1_dropShadow_119_128"/><feBlend in="SourceGraphic" in2="effect1_dropShadow_119_128" result="shape"/></filter><filter id="filter1_f_119_128" x="45.116" y="128.012" width="91.488" height="38.628" filterUnits="userSpaceOnUse" color-interpolation-filters="sRGB"><feFlood flood-opacity="0" result="BackgroundImageFix"/><feBlend in="SourceGraphic" in2="BackgroundImageFix" result="shape"/><feGaussianBlur stdDeviation="5.083" result="effect1_foregroundBlur_119_128"/></filter><filter id="filter2_f_119_128" x="-51.653" y="-41.653" width="285.072" height="284.951" filterUnits="userSpaceOnUse" color-interpolation-filters="sRGB"><feFlood flood-opacity="0" result="BackgroundImageFix"/><feBlend in="SourceGraphic" in2="BackgroundImageFix" result="shape"/><feGaussianBlur stdDeviation="50.826" result="effect1_foregroundBlur_119_128"/></filter><filter id="filter3_dddddd_119_128" x="-284.64" y="-275.64" width="753.28" height="753.28" filterUnits="userSpaceOnUse" color-interpolation-filters="sRGB"><feFlood flood-opacity="0" result="BackgroundImageFix"/><feColorMatrix in="SourceAlpha" values="0 0 0 0 0 0 0 0 0 0 0 0 0 0 0 0 0 0 127 0" result="hardAlpha"/><feOffset/><feGaussianBlur stdDeviation="3.96"/><feColorMatrix values="0 0 0 0 1 0 0 0 0 1 0 0 0 0 1 0 0 0 1 0"/><feBlend in2="BackgroundImageFix" result="effect1_dropShadow_119_128"/><feColorMatrix in="SourceAlpha" values="0 0 0 0 0 0 0 0 0 0 0 0 0 0 0 0 0 0 127 0" result="hardAlpha"/><feOffset/><feGaussianBlur stdDeviation="7.92"/><feColorMatrix values="0 0 0 0 1 0 0 0 0 1 0 0 0 0 1 0 0 0 1 0"/><feBlend in2="effect1_dropShadow_119_128" result="effect2_dropShadow_119_128"/><feColorMatrix in="SourceAlpha" values="0 0 0 0 0 0 0 0 0 0 0 0 0 0 0 0 0 0 127 0" result="hardAlpha"/><feOffset/><feGaussianBlur stdDeviation="27.72"/><feColorMatrix values="0 0 0 0 1 0 0 0 0 1 0 0 0 0 1 0 0 0 1 0"/><feBlend in2="effect2_dropShadow_119_128" result="effect3_dropShadow_119_128"/><feColorMatrix in="SourceAlpha" values="0 0 0 0 0 0 0 0 0 0 0 0 0 0 0 0 0 0 127 0" result="hardAlpha"/><feOffset/><feGaussianBlur stdDeviation="55.44"/><feColorMatrix values="0 0 0 0 1 0 0 0 0 1 0 0 0 0 1 0 0 0 1 0"/><feBlend in2="effect3_dropShadow_119_128" result="effect4_dropShadow_119_128"/><feColorMatrix in="SourceAlpha" values="0 0 0 0 0 0 0 0 0 0 0 0 0 0 0 0 0 0 127 0" result="hardAlpha"/><feOffset/><feGaussianBlur stdDeviation="95.04"/><feColorMatrix values="0 0 0 0 1 0 0 0 0 1 0 0 0 0 1 0 0 0 1 0"/><feBlend in2="effect4_dropShadow_119_128" result="effect5_dropShadow_119_128"/><feColorMatrix in="SourceAlpha" values="0 0 0 0 0 0 0 0 0 0 0 0 0 0 0 0 0 0 127 0" result="hardAlpha"/><feOffset/><feGaussianBlur stdDeviation="166.32"/><feColorMatrix values="0 0 0 0 1 0 0 0 0 1 0 0 0 0 1 0 0 0 1 0"/><feBlend in2="effect5_dropShadow_119_128" result="effect6_dropShadow_119_128"/><feBlend in="SourceGraphic" in2="effect6_dropShadow_119_128" result="shape"/></filter><filter id="filter4_d_119_128" x="-32.899" y="236.025" width="247.175" height="278.147" filterUnits="userSpaceOnUse" color-interpolation-filters="sRGB"><feFlood flood-opacity="0" result="BackgroundImageFix"/><feColorMatrix in="SourceAlpha" values="0 0 0 0 0 0 0 0 0 0 0 0 0 0 0 0 0 0 127 0" result="hardAlpha"/><feOffset dy="2.924"/><feGaussianBlur stdDeviation="16.45"/><feComposite in2="hardAlpha" operator="out"/><feColorMatrix values="0 0 0 0 0 0 0 0 0 0 0 0 0 0 0 0 0 0 0.15 0"/><feBlend in2="BackgroundImageFix" result="effect1_dropShadow_119_128"/><feBlend in="SourceGraphic" in2="effect1_dropShadow_119_128" result="shape"/></filter><filter id="filter5_f_119_128" x="45.116" y="359.012" width="91.488" height="38.628" filterUnits="userSpaceOnUse" color-interpolation-filters="sRGB"><feFlood flood-opacity="0" result="BackgroundImageFix"/><feBlend in="SourceGraphic" in2="BackgroundImageFix" result="shape"/><feGaussianBlur stdDeviation="5.083" result="effect1_foregroundBlur_119_128"/></filter><filter id="filter6_f_119_128" x="-51.653" y="189.347" width="285.072" height="284.951" filterUnits="userSpaceOnUse" color-interpolation-filters="sRGB"><feFlood flood-opacity="0" result="BackgroundImageFix"/><feBlend in="SourceGraphic" in2="BackgroundImageFix" result="shape"/><feGaussianBlur stdDeviation="50.826" result="effect1_foregroundBlur_119_128"/></filter><filter id="filter7_dddddd_119_128" x="-284.64" y="-44.64" width="753.28" height="753.28" filterUnits="userSpaceOnUse" color-interpolation-filters="sRGB"><feFlood flood-opacity="0" result="BackgroundImageFix"/><feColorMatrix in="SourceAlpha" values="0 0 0 0 0 0 0 0 0 0 0 0 0 0 0 0 0 0 127 0" result="hardAlpha"/><feOffset/><feGaussianBlur stdDeviation="3.96"/><feColorMatrix values="0 0 0 0 1 0 0 0 0 1 0 0 0 0 1 0 0 0 1 0"/><feBlend in2="BackgroundImageFix" result="effect1_dropShadow_119_128"/><feColorMatrix in="SourceAlpha" values="0 0 0 0 0 0 0 0 0 0 0 0 0 0 0 0 0 0 127 0" result="hardAlpha"/><feOffset/><feGaussianBlur stdDeviation="7.92"/><feColorMatrix values="0 0 0 0 1 0 0 0 0 1 0 0 0 0 1 0 0 0 1 0"/><feBlend in2="effect1_dropShadow_119_128" result="effect2_dropShadow_119_128"/><feColorMatrix in="SourceAlpha" values="0 0 0 0 0 0 0 0 0 0 0 0 0 0 0 0 0 0 127 0" result="hardAlpha"/><feOffset/><feGaussianBlur stdDeviation="27.72"/><feColorMatrix values="0 0 0 0 1 0 0 0 0 1 0 0 0 0 1 0 0 0 1 0"/><feBlend in2="effect2_dropShadow_119_128" result="effect3_dropShadow_119_128"/><feColorMatrix in="SourceAlpha" values="0 0 0 0 0 0 0 0 0 0 0 0 0 0 0 0 0 0 127 0" result="hardAlpha"/><feOffset/><feGaussianBlur stdDeviation="55.44"/><feColorMatrix values="0 0 0 0 1 0 0 0 0 1 0 0 0 0 1 0 0 0 1 0"/><feBlend in2="effect3_dropShadow_119_128" result="effect4_dropShadow_119_128"/><feColorMatrix in="SourceAlpha" values="0 0 0 0 0 0 0 0 0 0 0 0 0 0 0 0 0 0 127 0" result="hardAlpha"/><feOffset/><feGaussianBlur stdDeviation="95.04"/><feColorMatrix values="0 0 0 0 1 0 0 0 0 1 0 0 0 0 1 0 0 0 1 0"/><feBlend in2="effect4_dropShadow_119_128" result="effect5_dropShadow_119_128"/><feColorMatrix in="SourceAlpha" values="0 0 0 0 0 0 0 0 0 0 0 0 0 0 0 0 0 0 127 0" result="hardAlpha"/><feOffset/><feGaussianBlur stdDeviation="166.32"/><feColorMatrix values="0 0 0 0 1 0 0 0 0 1 0 0 0 0 1 0 0 0 1 0"/><feBlend in2="effect5_dropShadow_119_128" result="effect6_dropShadow_119_128"/><feBlend in="SourceGraphic" in2="effect6_dropShadow_119_128" result="shape"/></filter><filter id="filter8_d_119_128" x="-32.899" y="467.025" width="247.175" height="278.147" filterUnits="userSpaceOnUse" color-interpolation-filters="sRGB"><feFlood flood-opacity="0" result="BackgroundImageFix"/><feColorMatrix in="SourceAlpha" values="0 0 0 0 0 0 0 0 0 0 0 0 0 0 0 0 0 0 127 0" result="hardAlpha"/><feOffset dy="2.924"/><feGaussianBlur stdDeviation="16.45"/><feComposite in2="hardAlpha" operator="out"/><feColorMatrix values="0 0 0 0 0 0 0 0 0 0 0 0 0 0 0 0 0 0 0.15 0"/><feBlend in2="BackgroundImageFix" result="effect1_dropShadow_119_128"/><feBlend in="SourceGraphic" in2="effect1_dropShadow_119_128" result="shape"/></filter><filter id="filter9_f_119_128" x="45.116" y="590.012" width="91.488" height="38.628" filterUnits="userSpaceOnUse" color-interpolation-filters="sRGB"><feFlood flood-opacity="0" result="BackgroundImageFix"/><feBlend in="SourceGraphic" in2="BackgroundImageFix" result="shape"/><feGaussianBlur stdDeviation="5.083" result="effect1_foregroundBlur_119_128"/></filter><filter id="filter10_f_119_128" x="-51.653" y="420.347" width="285.072" height="284.951" filterUnits="userSpaceOnUse" color-interpolation-filters="sRGB"><feFlood flood-opacity="0" result="BackgroundImageFix"/><feBlend in="SourceGraphic" in2="BackgroundImageFix" result="shape"/><feGaussianBlur stdDeviation="50.826" result="effect1_foregroundBlur_119_128"/></filter><filter id="filter11_dddddd_119_128" x="-284.64" y="186.36" width="753.28" height="753.28" filterUnits="userSpaceOnUse" color-interpolation-filters="sRGB"><feFlood flood-opacity="0" result="BackgroundImageFix"/><feColorMatrix in="SourceAlpha" values="0 0 0 0 0 0 0 0 0 0 0 0 0 0 0 0 0 0 127 0" result="hardAlpha"/><feOffset/><feGaussianBlur stdDeviation="3.96"/><feColorMatrix values="0 0 0 0 1 0 0 0 0 1 0 0 0 0 1 0 0 0 1 0"/><feBlend in2="BackgroundImageFix" result="effect1_dropShadow_119_128"/><feColorMatrix in="SourceAlpha" values="0 0 0 0 0 0 0 0 0 0 0 0 0 0 0 0 0 0 127 0" result="hardAlpha"/><feOffset/><feGaussianBlur stdDeviation="7.92"/><feColorMatrix values="0 0 0 0 1 0 0 0 0 1 0 0 0 0 1 0 0 0 1 0"/><feBlend in2="effect1_dropShadow_119_128" result="effect2_dropShadow_119_128"/><feColorMatrix in="SourceAlpha" values="0 0 0 0 0 0 0 0 0 0 0 0 0 0 0 0 0 0 127 0" result="hardAlpha"/><feOffset/><feGaussianBlur stdDeviation="27.72"/><feColorMatrix values="0 0 0 0 1 0 0 0 0 1 0 0 0 0 1 0 0 0 1 0"/><feBlend in2="effect2_dropShadow_119_128" result="effect3_dropShadow_119_128"/><feColorMatrix in="SourceAlpha" values="0 0 0 0 0 0 0 0 0 0 0 0 0 0 0 0 0 0 127 0" result="hardAlpha"/><feOffset/><feGaussianBlur stdDeviation="55.44"/><feColorMatrix values="0 0 0 0 1 0 0 0 0 1 0 0 0 0 1 0 0 0 1 0"/><feBlend in2="effect3_dropShadow_119_128" result="effect4_dropShadow_119_128"/><feColorMatrix in="SourceAlpha" values="0 0 0 0 0 0 0 0 0 0 0 0 0 0 0 0 0 0 127 0" result="hardAlpha"/><feOffset/><feGaussianBlur stdDeviation="95.04"/><feColorMatrix values="0 0 0 0 1 0 0 0 0 1 0 0 0 0 1 0 0 0 1 0"/><feBlend in2="effect4_dropShadow_119_128" result="effect5_dropShadow_119_128"/><feColorMatrix in="SourceAlpha" values="0 0 0 0 0 0 0 0 0 0 0 0 0 0 0 0 0 0 127 0" result="hardAlpha"/><feOffset/><feGaussianBlur stdDeviation="166.32"/><feColorMatrix values="0 0 0 0 1 0 0 0 0 1 0 0 0 0 1 0 0 0 1 0"/><feBlend in2="effect5_dropShadow_119_128" result="effect6_dropShadow_119_128"/><feBlend in="SourceGraphic" in2="effect6_dropShadow_119_128" result="shape"/></filter><filter id="filter12_d_119_128" x="173.101" y="-29.975" width="247.175" height="278.147" filterUnits="userSpaceOnUse" color-interpolation-filters="sRGB"><feFlood flood-opacity="0" result="BackgroundImageFix"/><feColorMatrix in="SourceAlpha" values="0 0 0 0 0 0 0 0 0 0 0 0 0 0 0 0 0 0 127 0" result="hardAlpha"/><feOffset dy="2.924"/><feGaussianBlur stdDeviation="16.45"/><feComposite in2="hardAlpha" operator="out"/><feColorMatrix values="0 0 0 0 0 0 0 0 0 0 0 0 0 0 0 0 0 0 0.15 0"/><feBlend in2="BackgroundImageFix" result="effect1_dropShadow_119_128"/><feBlend in="SourceGraphic" in2="effect1_dropShadow_119_128" result="shape"/></filter><filter id="filter13_f_119_128" x="251.116" y="93.012" width="91.488" height="38.628" filterUnits="userSpaceOnUse" color-interpolation-filters="sRGB"><feFlood flood-opacity="0" result="BackgroundImageFix"/><feBlend in="SourceGraphic" in2="BackgroundImageFix" result="shape"/><feGaussianBlur stdDeviation="5.083" result="effect1_foregroundBlur_119_128"/></filter><filter id="filter14_f_119_128" x="154.347" y="-76.653" width="285.072" height="284.951" filterUnits="userSpaceOnUse" color-interpolation-filters="sRGB"><feFlood flood-opacity="0" result="BackgroundImageFix"/><feBlend in="SourceGraphic" in2="BackgroundImageFix" result="shape"/><feGaussianBlur stdDeviation="50.826" result="effect1_foregroundBlur_119_128"/></filter><filter id="filter15_dddddd_119_128" x="-78.64" y="-310.64" width="753.28" height="753.28" filterUnits="userSpaceOnUse" color-interpolation-filters="sRGB"><feFlood flood-opacity="0" result="BackgroundImageFix"/><feColorMatrix in="SourceAlpha" values="0 0 0 0 0 0 0 0 0 0 0 0 0 0 0 0 0 0 127 0" result="hardAlpha"/><feOffset/><feGaussianBlur stdDeviation="3.96"/><feColorMatrix values="0 0 0 0 1 0 0 0 0 1 0 0 0 0 1 0 0 0 1 0"/><feBlend in2="BackgroundImageFix" result="effect1_dropShadow_119_128"/><feColorMatrix in="SourceAlpha" values="0 0 0 0 0 0 0 0 0 0 0 0 0 0 0 0 0 0 127 0" result="hardAlpha"/><feOffset/><feGaussianBlur stdDeviation="7.92"/><feColorMatrix values="0 0 0 0 1 0 0 0 0 1 0 0 0 0 1 0 0 0 1 0"/><feBlend in2="effect1_dropShadow_119_128" result="effect2_dropShadow_119_128"/><feColorMatrix in="SourceAlpha" values="0 0 0 0 0 0 0 0 0 0 0 0 0 0 0 0 0 0 127 0" result="hardAlpha"/><feOffset/><feGaussianBlur stdDeviation="27.72"/><feColorMatrix values="0 0 0 0 1 0 0 0 0 1 0 0 0 0 1 0 0 0 1 0"/><feBlend in2="effect2_dropShadow_119_128" result="effect3_dropShadow_119_128"/><feColorMatrix in="SourceAlpha" values="0 0 0 0 0 0 0 0 0 0 0 0 0 0 0 0 0 0 127 0" result="hardAlpha"/><feOffset/><feGaussianBlur stdDeviation="55.44"/><feColorMatrix values="0 0 0 0 1 0 0 0 0 1 0 0 0 0 1 0 0 0 1 0"/><feBlend in2="effect3_dropShadow_119_128" result="effect4_dropShadow_119_128"/><feColorMatrix in="SourceAlpha" values="0 0 0 0 0 0 0 0 0 0 0 0 0 0 0 0 0 0 127 0" result="hardAlpha"/><feOffset/><feGaussianBlur stdDeviation="95.04"/><feColorMatrix values="0 0 0 0 1 0 0 0 0 1 0 0 0 0 1 0 0 0 1 0"/><feBlend in2="effect4_dropShadow_119_128" result="effect5_dropShadow_119_128"/><feColorMatrix in="SourceAlpha" values="0 0 0 0 0 0 0 0 0 0 0 0 0 0 0 0 0 0 127 0" result="hardAlpha"/><feOffset/><feGaussianBlur stdDeviation="166.32"/><feColorMatrix values="0 0 0 0 1 0 0 0 0 1 0 0 0 0 1 0 0 0 1 0"/><feBlend in2="effect5_dropShadow_119_128" result="effect6_dropShadow_119_128"/><feBlend in="SourceGraphic" in2="effect6_dropShadow_119_128" result="shape"/></filter><filter id="filter16_d_119_128" x="173.101" y="201.025" width="247.175" height="278.147" filterUnits="userSpaceOnUse" color-interpolation-filters="sRGB"><feFlood flood-opacity="0" result="BackgroundImageFix"/><feColorMatrix in="SourceAlpha" values="0 0 0 0 0 0 0 0 0 0 0 0 0 0 0 0 0 0 127 0" result="hardAlpha"/><feOffset dy="2.924"/><feGaussianBlur stdDeviation="16.45"/><feComposite in2="hardAlpha" operator="out"/><feColorMatrix values="0 0 0 0 0 0 0 0 0 0 0 0 0 0 0 0 0 0 0.15 0"/><feBlend in2="BackgroundImageFix" result="effect1_dropShadow_119_128"/><feBlend in="SourceGraphic" in2="effect1_dropShadow_119_128" result="shape"/></filter><filter id="filter17_f_119_128" x="251.116" y="324.012" width="91.488" height="38.628" filterUnits="userSpaceOnUse" color-interpolation-filters="sRGB"><feFlood flood-opacity="0" result="BackgroundImageFix"/><feBlend in="SourceGraphic" in2="BackgroundImageFix" result="shape"/><feGaussianBlur stdDeviation="5.083" result="effect1_foregroundBlur_119_128"/></filter><filter id="filter18_f_119_128" x="154.347" y="154.347" width="285.072" height="284.951" filterUnits="userSpaceOnUse" color-interpolation-filters="sRGB"><feFlood flood-opacity="0" result="BackgroundImageFix"/><feBlend in="SourceGraphic" in2="BackgroundImageFix" result="shape"/><feGaussianBlur stdDeviation="50.826" result="effect1_foregroundBlur_119_128"/></filter><filter id="filter19_dddddd_119_128" x="-78.64" y="-79.64" width="753.28" height="753.28" filterUnits="userSpaceOnUse" color-interpolation-filters="sRGB"><feFlood flood-opacity="0" result="BackgroundImageFix"/><feColorMatrix in="SourceAlpha" values="0 0 0 0 0 0 0 0 0 0 0 0 0 0 0 0 0 0 127 0" result="hardAlpha"/><feOffset/><feGaussianBlur stdDeviation="3.96"/><feColorMatrix values="0 0 0 0 1 0 0 0 0 1 0 0 0 0 1 0 0 0 1 0"/><feBlend in2="BackgroundImageFix" result="effect1_dropShadow_119_128"/><feColorMatrix in="SourceAlpha" values="0 0 0 0 0 0 0 0 0 0 0 0 0 0 0 0 0 0 127 0" result="hardAlpha"/><feOffset/><feGaussianBlur stdDeviation="7.92"/><feColorMatrix values="0 0 0 0 1 0 0 0 0 1 0 0 0 0 1 0 0 0 1 0"/><feBlend in2="effect1_dropShadow_119_128" result="effect2_dropShadow_119_128"/><feColorMatrix in="SourceAlpha" values="0 0 0 0 0 0 0 0 0 0 0 0 0 0 0 0 0 0 127 0" result="hardAlpha"/><feOffset/><feGaussianBlur stdDeviation="27.72"/><feColorMatrix values="0 0 0 0 1 0 0 0 0 1 0 0 0 0 1 0 0 0 1 0"/><feBlend in2="effect2_dropShadow_119_128" result="effect3_dropShadow_119_128"/><feColorMatrix in="SourceAlpha" values="0 0 0 0 0 0 0 0 0 0 0 0 0 0 0 0 0 0 127 0" result="hardAlpha"/><feOffset/><feGaussianBlur stdDeviation="55.44"/><feColorMatrix values="0 0 0 0 1 0 0 0 0 1 0 0 0 0 1 0 0 0 1 0"/><feBlend in2="effect3_dropShadow_119_128" result="effect4_dropShadow_119_128"/><feColorMatrix in="SourceAlpha" values="0 0 0 0 0 0 0 0 0 0 0 0 0 0 0 0 0 0 127 0" result="hardAlpha"/><feOffset/><feGaussianBlur stdDeviation="95.04"/><feColorMatrix values="0 0 0 0 1 0 0 0 0 1 0 0 0 0 1 0 0 0 1 0"/><feBlend in2="effect4_dropShadow_119_128" result="effect5_dropShadow_119_128"/><feColorMatrix in="SourceAlpha" values="0 0 0 0 0 0 0 0 0 0 0 0 0 0 0 0 0 0 127 0" result="hardAlpha"/><feOffset/><feGaussianBlur stdDeviation="166.32"/><feColorMatrix values="0 0 0 0 1 0 0 0 0 1 0 0 0 0 1 0 0 0 1 0"/><feBlend in2="effect5_dropShadow_119_128" result="effect6_dropShadow_119_128"/><feBlend in="SourceGraphic" in2="effect6_dropShadow_119_128" result="shape"/></filter><filter id="filter20_d_119_128" x="173.101" y="432.025" width="247.175" height="278.147" filterUnits="userSpaceOnUse" color-interpolation-filters="sRGB"><feFlood flood-opacity="0" result="BackgroundImageFix"/><feColorMatrix in="SourceAlpha" values="0 0 0 0 0 0 0 0 0 0 0 0 0 0 0 0 0 0 127 0" result="hardAlpha"/><feOffset dy="2.924"/><feGaussianBlur stdDeviation="16.45"/><feComposite in2="hardAlpha" operator="out"/><feColorMatrix values="0 0 0 0 0 0 0 0 0 0 0 0 0 0 0 0 0 0 0.15 0"/><feBlend in2="BackgroundImageFix" result="effect1_dropShadow_119_128"/><feBlend in="SourceGraphic" in2="effect1_dropShadow_119_128" result="shape"/></filter><filter id="filter21_f_119_128" x="251.116" y="555.012" width="91.488" height="38.628" filterUnits="userSpaceOnUse" color-interpolation-filters="sRGB"><feFlood flood-opacity="0" result="BackgroundImageFix"/><feBlend in="SourceGraphic" in2="BackgroundImageFix" result="shape"/><feGaussianBlur stdDeviation="5.083" result="effect1_foregroundBlur_119_128"/></filter><filter id="filter22_f_119_128" x="154.347" y="385.347" width="285.072" height="284.951" filterUnits="userSpaceOnUse" color-interpolation-filters="sRGB"><feFlood flood-opacity="0" result="BackgroundImageFix"/><feBlend in="SourceGraphic" in2="BackgroundImageFix" result="shape"/><feGaussianBlur stdDeviation="50.826" result="effect1_foregroundBlur_119_128"/></filter><filter id="filter23_dddddd_119_128" x="-78.64" y="151.36" width="753.28" height="753.28" filterUnits="userSpaceOnUse" color-interpolation-filters="sRGB"><feFlood flood-opacity="0" result="BackgroundImageFix"/><feColorMatrix in="SourceAlpha" values="0 0 0 0 0 0 0 0 0 0 0 0 0 0 0 0 0 0 127 0" result="hardAlpha"/><feOffset/><feGaussianBlur stdDeviation="3.96"/><feColorMatrix values="0 0 0 0 1 0 0 0 0 1 0 0 0 0 1 0 0 0 1 0"/><feBlend in2="BackgroundImageFix" result="effect1_dropShadow_119_128"/><feColorMatrix in="SourceAlpha" values="0 0 0 0 0 0 0 0 0 0 0 0 0 0 0 0 0 0 127 0" result="hardAlpha"/><feOffset/><feGaussianBlur stdDeviation="7.92"/><feColorMatrix values="0 0 0 0 1 0 0 0 0 1 0 0 0 0 1 0 0 0 1 0"/><feBlend in2="effect1_dropShadow_119_128" result="effect2_dropShadow_119_128"/><feColorMatrix in="SourceAlpha" values="0 0 0 0 0 0 0 0 0 0 0 0 0 0 0 0 0 0 127 0" result="hardAlpha"/><feOffset/><feGaussianBlur stdDeviation="27.72"/><feColorMatrix values="0 0 0 0 1 0 0 0 0 1 0 0 0 0 1 0 0 0 1 0"/><feBlend in2="effect2_dropShadow_119_128" result="effect3_dropShadow_119_128"/><feColorMatrix in="SourceAlpha" values="0 0 0 0 0 0 0 0 0 0 0 0 0 0 0 0 0 0 127 0" result="hardAlpha"/><feOffset/><feGaussianBlur stdDeviation="55.44"/><feColorMatrix values="0 0 0 0 1 0 0 0 0 1 0 0 0 0 1 0 0 0 1 0"/><feBlend in2="effect3_dropShadow_119_128" result="effect4_dropShadow_119_128"/><feColorMatrix in="SourceAlpha" values="0 0 0 0 0 0 0 0 0 0 0 0 0 0 0 0 0 0 127 0" result="hardAlpha"/><feOffset/><feGaussianBlur stdDeviation="95.04"/><feColorMatrix values="0 0 0 0 1 0 0 0 0 1 0 0 0 0 1 0 0 0 1 0"/><feBlend in2="effect4_dropShadow_119_128" result="effect5_dropShadow_119_128"/><feColorMatrix in="SourceAlpha" values="0 0 0 0 0 0 0 0 0 0 0 0 0 0 0 0 0 0 127 0" result="hardAlpha"/><feOffset/><feGaussianBlur stdDeviation="166.32"/><feColorMatrix values="0 0 0 0 1 0 0 0 0 1 0 0 0 0 1 0 0 0 1 0"/><feBlend in2="effect5_dropShadow_119_128" result="effect6_dropShadow_119_128"/><feBlend in="SourceGraphic" in2="effect6_dropShadow_119_128" result="shape"/></filter><filter id="filter24_d_119_128" x="379.101" y="5.025" width="247.175" height="278.147" filterUnits="userSpaceOnUse" color-interpolation-filters="sRGB"><feFlood flood-opacity="0" result="BackgroundImageFix"/><feColorMatrix in="SourceAlpha" values="0 0 0 0 0 0 0 0 0 0 0 0 0 0 0 0 0 0 127 0" result="hardAlpha"/><feOffset dy="2.924"/><feGaussianBlur stdDeviation="16.45"/><feComposite in2="hardAlpha" operator="out"/><feColorMatrix values="0 0 0 0 0 0 0 0 0 0 0 0 0 0 0 0 0 0 0.15 0"/><feBlend in2="BackgroundImageFix" result="effect1_dropShadow_119_128"/><feBlend in="SourceGraphic" in2="effect1_dropShadow_119_128" result="shape"/></filter><filter id="filter25_f_119_128" x="457.116" y="128.012" width="91.488" height="38.628" filterUnits="userSpaceOnUse" color-interpolation-filters="sRGB"><feFlood flood-opacity="0" result="BackgroundImageFix"/><feBlend in="SourceGraphic" in2="BackgroundImageFix" result="shape"/><feGaussianBlur stdDeviation="5.083" result="effect1_foregroundBlur_119_128"/></filter><filter id="filter26_f_119_128" x="360.347" y="-41.653" width="285.072" height="284.951" filterUnits="userSpaceOnUse" color-interpolation-filters="sRGB"><feFlood flood-opacity="0" result="BackgroundImageFix"/><feBlend in="SourceGraphic" in2="BackgroundImageFix" result="shape"/><feGaussianBlur stdDeviation="50.826" result="effect1_foregroundBlur_119_128"/></filter><filter id="filter27_dddddd_119_128" x="127.36" y="-275.64" width="753.28" height="753.28" filterUnits="userSpaceOnUse" color-interpolation-filters="sRGB"><feFlood flood-opacity="0" result="BackgroundImageFix"/><feColorMatrix in="SourceAlpha" values="0 0 0 0 0 0 0 0 0 0 0 0 0 0 0 0 0 0 127 0" result="hardAlpha"/><feOffset/><feGaussianBlur stdDeviation="3.96"/><feColorMatrix values="0 0 0 0 1 0 0 0 0 1 0 0 0 0 1 0 0 0 1 0"/><feBlend in2="BackgroundImageFix" result="effect1_dropShadow_119_128"/><feColorMatrix in="SourceAlpha" values="0 0 0 0 0 0 0 0 0 0 0 0 0 0 0 0 0 0 127 0" result="hardAlpha"/><feOffset/><feGaussianBlur stdDeviation="7.92"/><feColorMatrix values="0 0 0 0 1 0 0 0 0 1 0 0 0 0 1 0 0 0 1 0"/><feBlend in2="effect1_dropShadow_119_128" result="effect2_dropShadow_119_128"/><feColorMatrix in="SourceAlpha" values="0 0 0 0 0 0 0 0 0 0 0 0 0 0 0 0 0 0 127 0" result="hardAlpha"/><feOffset/><feGaussianBlur stdDeviation="27.72"/><feColorMatrix values="0 0 0 0 1 0 0 0 0 1 0 0 0 0 1 0 0 0 1 0"/><feBlend in2="effect2_dropShadow_119_128" result="effect3_dropShadow_119_128"/><feColorMatrix in="SourceAlpha" values="0 0 0 0 0 0 0 0 0 0 0 0 0 0 0 0 0 0 127 0" result="hardAlpha"/><feOffset/><feGaussianBlur stdDeviation="55.44"/><feColorMatrix values="0 0 0 0 1 0 0 0 0 1 0 0 0 0 1 0 0 0 1 0"/><feBlend in2="effect3_dropShadow_119_128" result="effect4_dropShadow_119_128"/><feColorMatrix in="SourceAlpha" values="0 0 0 0 0 0 0 0 0 0 0 0 0 0 0 0 0 0 127 0" result="hardAlpha"/><feOffset/><feGaussianBlur stdDeviation="95.04"/><feColorMatrix values="0 0 0 0 1 0 0 0 0 1 0 0 0 0 1 0 0 0 1 0"/><feBlend in2="effect4_dropShadow_119_128" result="effect5_dropShadow_119_128"/><feColorMatrix in="SourceAlpha" values="0 0 0 0 0 0 0 0 0 0 0 0 0 0 0 0 0 0 127 0" result="hardAlpha"/><feOffset/><feGaussianBlur stdDeviation="166.32"/><feColorMatrix values="0 0 0 0 1 0 0 0 0 1 0 0 0 0 1 0 0 0 1 0"/><feBlend in2="effect5_dropShadow_119_128" result="effect6_dropShadow_119_128"/><feBlend in="SourceGraphic" in2="effect6_dropShadow_119_128" result="shape"/></filter><filter id="filter28_d_119_128" x="379.101" y="236.025" width="247.175" height="278.147" filterUnits="userSpaceOnUse" color-interpolation-filters="sRGB"><feFlood flood-opacity="0" result="BackgroundImageFix"/><feColorMatrix in="SourceAlpha" values="0 0 0 0 0 0 0 0 0 0 0 0 0 0 0 0 0 0 127 0" result="hardAlpha"/><feOffset dy="2.924"/><feGaussianBlur stdDeviation="16.45"/><feComposite in2="hardAlpha" operator="out"/><feColorMatrix values="0 0 0 0 0 0 0 0 0 0 0 0 0 0 0 0 0 0 0.15 0"/><feBlend in2="BackgroundImageFix" result="effect1_dropShadow_119_128"/><feBlend in="SourceGraphic" in2="effect1_dropShadow_119_128" result="shape"/></filter><filter id="filter29_f_119_128" x="457.116" y="359.012" width="91.488" height="38.628" filterUnits="userSpaceOnUse" color-interpolation-filters="sRGB"><feFlood flood-opacity="0" result="BackgroundImageFix"/><feBlend in="SourceGraphic" in2="BackgroundImageFix" result="shape"/><feGaussianBlur stdDeviation="5.083" result="effect1_foregroundBlur_119_128"/></filter><filter id="filter30_f_119_128" x="360.347" y="189.347" width="285.072" height="284.951" filterUnits="userSpaceOnUse" color-interpolation-filters="sRGB"><feFlood flood-opacity="0" result="BackgroundImageFix"/><feBlend in="SourceGraphic" in2="BackgroundImageFix" result="shape"/><feGaussianBlur stdDeviation="50.826" result="effect1_foregroundBlur_119_128"/></filter><filter id="filter31_dddddd_119_128" x="127.36" y="-44.64" width="753.28" height="753.28" filterUnits="userSpaceOnUse" color-interpolation-filters="sRGB"><feFlood flood-opacity="0" result="BackgroundImageFix"/><feColorMatrix in="SourceAlpha" values="0 0 0 0 0 0 0 0 0 0 0 0 0 0 0 0 0 0 127 0" result="hardAlpha"/><feOffset/><feGaussianBlur stdDeviation="3.96"/><feColorMatrix values="0 0 0 0 1 0 0 0 0 1 0 0 0 0 1 0 0 0 1 0"/><feBlend in2="BackgroundImageFix" result="effect1_dropShadow_119_128"/><feColorMatrix in="SourceAlpha" values="0 0 0 0 0 0 0 0 0 0 0 0 0 0 0 0 0 0 127 0" result="hardAlpha"/><feOffset/><feGaussianBlur stdDeviation="7.92"/><feColorMatrix values="0 0 0 0 1 0 0 0 0 1 0 0 0 0 1 0 0 0 1 0"/><feBlend in2="effect1_dropShadow_119_128" result="effect2_dropShadow_119_128"/><feColorMatrix in="SourceAlpha" values="0 0 0 0 0 0 0 0 0 0 0 0 0 0 0 0 0 0 127 0" result="hardAlpha"/><feOffset/><feGaussianBlur stdDeviation="27.72"/><feColorMatrix values="0 0 0 0 1 0 0 0 0 1 0 0 0 0 1 0 0 0 1 0"/><feBlend in2="effect2_dropShadow_119_128" result="effect3_dropShadow_119_128"/><feColorMatrix in="SourceAlpha" values="0 0 0 0 0 0 0 0 0 0 0 0 0 0 0 0 0 0 127 0" result="hardAlpha"/><feOffset/><feGaussianBlur stdDeviation="55.44"/><feColorMatrix values="0 0 0 0 1 0 0 0 0 1 0 0 0 0 1 0 0 0 1 0"/><feBlend in2="effect3_dropShadow_119_128" result="effect4_dropShadow_119_128"/><feColorMatrix in="SourceAlpha" values="0 0 0 0 0 0 0 0 0 0 0 0 0 0 0 0 0 0 127 0" result="hardAlpha"/><feOffset/><feGaussianBlur stdDeviation="95.04"/><feColorMatrix values="0 0 0 0 1 0 0 0 0 1 0 0 0 0 1 0 0 0 1 0"/><feBlend in2="effect4_dropShadow_119_128" result="effect5_dropShadow_119_128"/><feColorMatrix in="SourceAlpha" values="0 0 0 0 0 0 0 0 0 0 0 0 0 0 0 0 0 0 127 0" result="hardAlpha"/><feOffset/><feGaussianBlur stdDeviation="166.32"/><feColorMatrix values="0 0 0 0 1 0 0 0 0 1 0 0 0 0 1 0 0 0 1 0"/><feBlend in2="effect5_dropShadow_119_128" result="effect6_dropShadow_119_128"/><feBlend in="SourceGraphic" in2="effect6_dropShadow_119_128" result="shape"/></filter><filter id="filter32_d_119_128" x="379.101" y="467.025" width="247.175" height="278.147" filterUnits="userSpaceOnUse" color-interpolation-filters="sRGB"><feFlood flood-opacity="0" result="BackgroundImageFix"/><feColorMatrix in="SourceAlpha" values="0 0 0 0 0 0 0 0 0 0 0 0 0 0 0 0 0 0 127 0" result="hardAlpha"/><feOffset dy="2.924"/><feGaussianBlur stdDeviation="16.45"/><feComposite in2="hardAlpha" operator="out"/><feColorMatrix values="0 0 0 0 0 0 0 0 0 0 0 0 0 0 0 0 0 0 0.15 0"/><feBlend in2="BackgroundImageFix" result="effect1_dropShadow_119_128"/><feBlend in="SourceGraphic" in2="effect1_dropShadow_119_128" result="shape"/></filter><filter id="filter33_f_119_128" x="457.116" y="590.012" width="91.488" height="38.628" filterUnits="userSpaceOnUse" color-interpolation-filters="sRGB"><feFlood flood-opacity="0" result="BackgroundImageFix"/><feBlend in="SourceGraphic" in2="BackgroundImageFix" result="shape"/><feGaussianBlur stdDeviation="5.083" result="effect1_foregroundBlur_119_128"/></filter><filter id="filter34_f_119_128" x="360.347" y="420.347" width="285.072" height="284.951" filterUnits="userSpaceOnUse" color-interpolation-filters="sRGB"><feFlood flood-opacity="0" result="BackgroundImageFix"/><feBlend in="SourceGraphic" in2="BackgroundImageFix" result="shape"/><feGaussianBlur stdDeviation="50.826" result="effect1_foregroundBlur_119_128"/></filter><filter id="filter35_dddddd_119_128" x="127.36" y="186.36" width="753.28" height="753.28" filterUnits="userSpaceOnUse" color-interpolation-filters="sRGB"><feFlood flood-opacity="0" result="BackgroundImageFix"/><feColorMatrix in="SourceAlpha" values="0 0 0 0 0 0 0 0 0 0 0 0 0 0 0 0 0 0 127 0" result="hardAlpha"/><feOffset/><feGaussianBlur stdDeviation="3.96"/><feColorMatrix values="0 0 0 0 1 0 0 0 0 1 0 0 0 0 1 0 0 0 1 0"/><feBlend in2="BackgroundImageFix" result="effect1_dropShadow_119_128"/><feColorMatrix in="SourceAlpha" values="0 0 0 0 0 0 0 0 0 0 0 0 0 0 0 0 0 0 127 0" result="hardAlpha"/><feOffset/><feGaussianBlur stdDeviation="7.92"/><feColorMatrix values="0 0 0 0 1 0 0 0 0 1 0 0 0 0 1 0 0 0 1 0"/><feBlend in2="effect1_dropShadow_119_128" result="effect2_dropShadow_119_128"/><feColorMatrix in="SourceAlpha" values="0 0 0 0 0 0 0 0 0 0 0 0 0 0 0 0 0 0 127 0" result="hardAlpha"/><feOffset/><feGaussianBlur stdDeviation="27.72"/><feColorMatrix values="0 0 0 0 1 0 0 0 0 1 0 0 0 0 1 0 0 0 1 0"/><feBlend in2="effect2_dropShadow_119_128" result="effect3_dropShadow_119_128"/><feColorMatrix in="SourceAlpha" values="0 0 0 0 0 0 0 0 0 0 0 0 0 0 0 0 0 0 127 0" result="hardAlpha"/><feOffset/><feGaussianBlur stdDeviation="55.44"/><feColorMatrix values="0 0 0 0 1 0 0 0 0 1 0 0 0 0 1 0 0 0 1 0"/><feBlend in2="effect3_dropShadow_119_128" result="effect4_dropShadow_119_128"/><feColorMatrix in="SourceAlpha" values="0 0 0 0 0 0 0 0 0 0 0 0 0 0 0 0 0 0 127 0" result="hardAlpha"/><feOffset/><feGaussianBlur stdDeviation="95.04"/><feColorMatrix values="0 0 0 0 1 0 0 0 0 1 0 0 0 0 1 0 0 0 1 0"/><feBlend in2="effect4_dropShadow_119_128" result="effect5_dropShadow_119_128"/><feColorMatrix in="SourceAlpha" values="0 0 0 0 0 0 0 0 0 0 0 0 0 0 0 0 0 0 127 0" result="hardAlpha"/><feOffset/><feGaussianBlur stdDeviation="166.32"/><feColorMatrix values="0 0 0 0 1 0 0 0 0 1 0 0 0 0 1 0 0 0 1 0"/><feBlend in2="effect5_dropShadow_119_128" result="effect6_dropShadow_119_128"/><feBlend in="SourceGraphic" in2="effect6_dropShadow_119_128" result="shape"/></filter><linearGradient id="paint0_linear_119_128" x1="106.174" y1="348.297" x2="106.174" y2="475.676" gradientUnits="userSpaceOnUse"><stop stop-color="#23232F" stop-opacity="0"/><stop offset="1" stop-color="#23232F"/></linearGradient><linearGradient id="paint1_linear_119_128" x1="64.409" y1="428.726" x2="64.409" y2="247.349" gradientUnits="userSpaceOnUse"><stop stop-color="#2F2F42" stop-opacity="0"/><stop offset="1" stop-color="#717185"/></linearGradient><linearGradient id="paint2_linear_119_128" x1="72" y1="87.5" x2="143.939" y2="149.916" gradientUnits="userSpaceOnUse"><stop stop-color="#FF00D6"/><stop offset="1" stop-color="#787878"/></linearGradient><linearGradient id="paint3_linear_119_128" x1="106.174" y1="579.297" x2="106.174" y2="706.676" gradientUnits="userSpaceOnUse"><stop stop-color="#23232F" stop-opacity="0"/><stop offset="1" stop-color="#23232F"/></linearGradient><linearGradient id="paint4_linear_119_128" x1="64.409" y1="659.726" x2="64.409" y2="478.349" gradientUnits="userSpaceOnUse"><stop stop-color="#2F2F42" stop-opacity="0"/><stop offset="1" stop-color="#717185"/></linearGradient><linearGradient id="paint5_linear_119_128" x1="72" y1="318.5" x2="143.939" y2="380.916" gradientUnits="userSpaceOnUse"><stop stop-color="#00FFD1"/><stop offset="1" stop-color="#787878"/></linearGradient><linearGradient id="paint6_linear_119_128" x1="106.174" y1="810.297" x2="106.174" y2="937.676" gradientUnits="userSpaceOnUse"><stop stop-color="#23232F" stop-opacity="0"/><stop offset="1" stop-color="#23232F"/></linearGradient><linearGradient id="paint7_linear_119_128" x1="64.409" y1="890.726" x2="64.409" y2="709.349" gradientUnits="userSpaceOnUse"><stop stop-color="#2F2F42" stop-opacity="0"/><stop offset="1" stop-color="#717185"/></linearGradient><linearGradient id="paint8_linear_119_128" x1="72" y1="549.5" x2="143.939" y2="611.916" gradientUnits="userSpaceOnUse"><stop stop-color="#FF00D6"/><stop offset="1" stop-color="#787878"/></linearGradient><linearGradient id="paint9_linear_119_128" x1="312.174" y1="313.297" x2="312.174" y2="440.676" gradientUnits="userSpaceOnUse"><stop stop-color="#23232F" stop-opacity="0"/><stop offset="1" stop-color="#23232F"/></linearGradient><linearGradient id="paint10_linear_119_128" x1="270.409" y1="393.726" x2="270.409" y2="212.349" gradientUnits="userSpaceOnUse"><stop stop-color="#2F2F42" stop-opacity="0"/><stop offset="1" stop-color="#717185"/></linearGradient><linearGradient id="paint11_linear_119_128" x1="278" y1="52.5" x2="349.939" y2="114.916" gradientUnits="userSpaceOnUse"><stop stop-color="#0057FF"/><stop offset="1" stop-color="#787878"/></linearGradient><linearGradient id="paint12_linear_119_128" x1="312.174" y1="544.297" x2="312.174" y2="671.676" gradientUnits="userSpaceOnUse"><stop stop-color="#23232F" stop-opacity="0"/><stop offset="1" stop-color="#23232F"/></linearGradient><linearGradient id="paint13_linear_119_128" x1="270.409" y1="624.726" x2="270.409" y2="443.349" gradientUnits="userSpaceOnUse"><stop stop-color="#2F2F42" stop-opacity="0"/><stop offset="1" stop-color="#717185"/></linearGradient><linearGradient id="paint14_linear_119_128" x1="278" y1="283.5" x2="349.939" y2="345.916" gradientUnits="userSpaceOnUse"><stop stop-color="#FF00D6"/><stop offset="1" stop-color="#787878"/></linearGradient><linearGradient id="paint15_linear_119_128" x1="312.174" y1="775.297" x2="312.174" y2="902.676" gradientUnits="userSpaceOnUse"><stop stop-color="#23232F" stop-opacity="0"/><stop offset="1" stop-color="#23232F"/></linearGradient><linearGradient id="paint16_linear_119_128" x1="270.409" y1="855.726" x2="270.409" y2="674.349" gradientUnits="userSpaceOnUse"><stop stop-color="#2F2F42" stop-opacity="0"/><stop offset="1" stop-color="#717185"/></linearGradient><linearGradient id="paint17_linear_119_128" x1="278" y1="514.5" x2="349.939" y2="576.916" gradientUnits="userSpaceOnUse"><stop stop-color="#2400FF"/><stop offset="1" stop-color="#787878"/></linearGradient><linearGradient id="paint18_linear_119_128" x1="518.174" y1="348.297" x2="518.174" y2="475.676" gradientUnits="userSpaceOnUse"><stop stop-color="#23232F" stop-opacity="0"/><stop offset="1" stop-color="#23232F"/></linearGradient><linearGradient id="paint19_linear_119_128" x1="476.409" y1="428.726" x2="476.409" y2="247.349" gradientUnits="userSpaceOnUse"><stop stop-color="#2F2F42" stop-opacity="0"/><stop offset="1" stop-color="#717185"/></linearGradient><linearGradient id="paint20_linear_119_128" x1="484" y1="87.5" x2="555.939" y2="149.916" gradientUnits="userSpaceOnUse"><stop stop-color="#00FFD1"/><stop offset="1" stop-color="#787878"/></linearGradient><linearGradient id="paint21_linear_119_128" x1="518.174" y1="579.297" x2="518.174" y2="706.676" gradientUnits="userSpaceOnUse"><stop stop-color="#23232F" stop-opacity="0"/><stop offset="1" stop-color="#23232F"/></linearGradient><linearGradient id="paint22_linear_119_128" x1="476.409" y1="659.726" x2="476.409" y2="478.349" gradientUnits="userSpaceOnUse"><stop stop-color="#2F2F42" stop-opacity="0"/><stop offset="1" stop-color="#717185"/></linearGradient><linearGradient id="paint23_linear_119_128" x1="484" y1="318.5" x2="555.939" y2="380.916" gradientUnits="userSpaceOnUse"><stop stop-color="#30F"/><stop offset="1" stop-color="#787878"/></linearGradient><linearGradient id="paint24_linear_119_128" x1="518.174" y1="810.297" x2="518.174" y2="937.676" gradientUnits="userSpaceOnUse"><stop stop-color="#23232F" stop-opacity="0"/><stop offset="1" stop-color="#23232F"/></linearGradient><linearGradient id="paint25_linear_119_128" x1="476.409" y1="890.726" x2="476.409" y2="709.349" gradientUnits="userSpaceOnUse"><stop stop-color="#2F2F42" stop-opacity="0"/><stop offset="1" stop-color="#717185"/></linearGradient><linearGradient id="paint26_linear_119_128" x1="484" y1="549.5" x2="555.939" y2="611.916" gradientUnits="userSpaceOnUse"><stop stop-color="#00FFD1"/><stop offset="1" stop-color="#787878"/></linearGradient><clipPath id="clip0_119_128"><rect y="35" width="182" height="212.349" rx="22" fill="#fff"/></clipPath><clipPath id="clip1_119_128"><rect y="266" width="182" height="212.349" rx="22" fill="#fff"/></clipPath><clipPath id="clip2_119_128"><rect y="497" width="182" height="212.349" rx="22" fill="#fff"/></clipPath><clipPath id="clip3_119_128"><rect x="206" width="182" height="212.349" rx="22" fill="#fff"/></clipPath><clipPath id="clip4_119_128"><rect x="206" y="231" width="182" height="212.349" rx="22" fill="#fff"/></clipPath><clipPath id="clip5_119_128"><rect x="206" y="462" width="182" height="212.349" rx="22" fill="#fff"/></clipPath><clipPath id="clip6_119_128"><rect x="412" y="35" width="182" height="212.349" rx="22" fill="#fff"/></clipPath><clipPath id="clip7_119_128"><rect x="412" y="266" width="182" height="212.349" rx="22" fill="#fff"/></clipPath><clipPath id="clip8_119_128"><rect x="412" y="497" width="182" height="212.349" rx="22" fill="#fff"/></clipPath></defs></svg>