<svg width="368" height="368" viewBox="0 0 368 368" fill="none" xmlns="http://www.w3.org/2000/svg">
<g filter="url(#filter0_b_85_650)">
<path fill-rule="evenodd" clip-rule="evenodd" d="M223.745 341.996L223.745 351.557C223.745 355.891 222.022 360.052 218.953 363.117C215.887 366.185 211.726 367.908 207.387 367.908L160.612 367.908C156.274 367.908 152.112 366.185 149.046 363.117C145.977 360.052 144.255 355.891 144.255 351.557L144.255 341.996C143.944 337.308 142.329 332.8 139.597 328.979C136.865 325.158 133.117 322.175 128.782 320.367C128.037 320.065 127.299 319.76 126.56 319.446C122.216 317.659 117.459 317.12 112.824 317.889C108.19 318.659 103.86 320.704 100.326 323.798L93.5607 330.562C90.4948 333.63 86.3332 335.352 81.9952 335.352C77.6597 335.352 73.4983 333.63 70.4322 330.562L37.3554 297.493C34.2864 294.428 32.5636 290.267 32.5636 285.933C32.5636 281.596 34.2864 277.435 37.3554 274.37L44.1207 267.606C47.2152 264.07 49.2605 259.745 50.0304 255.111C50.8006 250.478 50.2587 245.722 48.4733 241.379C48.1594 240.641 47.8544 239.902 47.5521 239.158C45.7407 234.821 42.7574 231.077 38.9383 228.345C35.1165 225.611 30.6071 224 25.9182 223.689L16.3545 223.689C12.0191 223.689 7.85781 221.967 4.79173 218.898C1.72273 215.833 -3.53046e-06 211.673 -3.34089e-06 207.336L-1.29678e-06 160.572C-1.10719e-06 156.235 1.72274 152.074 4.79173 149.009C7.85757 145.941 12.0191 144.219 16.3545 144.219L25.9182 144.219C30.6071 143.908 35.1164 142.294 38.9383 139.562C42.7603 136.828 45.7436 133.084 47.5521 128.75C47.8544 128.005 48.1594 127.264 48.4733 126.528C50.2615 122.186 50.8006 117.43 50.0304 112.796C49.2605 108.163 47.2153 103.834 44.1207 100.301L37.3554 93.5374C34.2864 90.4723 32.5637 86.3117 32.5637 81.9745C32.5637 77.6403 34.2864 73.48 37.3554 70.4147L70.4322 37.346C73.4983 34.2778 77.6597 32.5556 81.9952 32.5556C86.3334 32.5556 90.4946 34.2778 93.5607 37.346L100.326 44.1096C103.863 47.2036 108.189 49.2481 112.824 50.0179C117.459 50.7879 122.216 50.2461 126.56 48.4611L126.563 48.4611C127.302 48.1475 128.04 47.8423 128.785 47.5401C133.12 45.7293 136.865 42.7466 139.598 38.9256C142.333 35.1078 143.944 30.5994 144.255 25.9116L144.255 16.3504C144.255 12.016 145.978 7.85581 149.047 4.79042C152.113 1.72228 156.274 -9.25482e-06 160.613 -9.06519e-06L207.388 -7.02057e-06C211.726 -6.83094e-06 215.888 1.72228 218.954 4.79042C222.023 7.85562 223.745 12.0161 223.745 16.3504L223.745 25.9116C224.056 30.5995 225.671 35.1075 228.403 38.9285C231.138 42.7496 234.883 45.7322 239.218 47.5401C239.963 47.8423 240.701 48.1474 241.44 48.4611C245.784 50.249 250.541 50.7879 255.176 50.0179C259.81 49.2481 264.14 47.2036 267.674 44.1096L274.439 37.346C277.505 34.2779 281.667 32.5556 286.005 32.5556C290.34 32.5556 294.502 34.2779 297.568 37.346L330.645 70.4147C333.714 73.4799 335.436 77.6404 335.436 81.9746C335.436 86.3119 333.714 90.4721 330.645 93.5374L323.879 100.301C320.785 103.837 318.74 108.162 317.97 112.796C317.199 117.429 317.741 122.186 319.527 126.528C319.841 127.267 320.146 128.006 320.448 128.75C322.259 133.086 325.243 136.83 329.062 139.562C332.883 142.297 337.393 143.908 342.082 144.219L351.645 144.219C355.981 144.219 360.142 145.941 363.208 149.009C366.277 152.074 368 156.235 368 160.572L368 207.336C368 211.673 366.277 215.833 363.208 218.898C360.142 221.967 355.981 223.689 351.645 223.689L342.082 223.689C337.393 224 332.884 225.614 329.062 228.345C325.24 231.08 322.256 234.824 320.448 239.158C320.146 239.902 319.841 240.643 319.527 241.379C317.741 245.722 317.199 250.478 317.97 255.111C318.74 259.745 320.785 264.073 323.879 267.606L330.645 274.37C333.714 277.435 335.436 281.596 335.436 285.933C335.436 290.267 333.714 294.428 330.645 297.496L297.568 330.562C294.502 333.63 290.34 335.352 286.005 335.352C281.667 335.352 277.505 333.63 274.439 330.562L267.674 323.798C264.137 320.704 259.811 318.659 255.176 317.89C250.541 317.12 245.784 317.662 241.44 319.446L241.437 319.446C241.151 319.568 240.865 319.688 240.579 319.807C240.125 319.996 239.671 320.182 239.215 320.367C234.88 322.178 231.135 325.161 228.402 328.979C225.667 332.8 224.056 337.308 223.745 341.996ZM136.594 183.15C136.594 209.769 158.178 231.348 184.803 231.348C211.429 231.348 233.013 209.769 233.013 183.15C233.013 156.532 211.429 134.953 184.803 134.953C158.178 134.953 136.594 156.532 136.594 183.15Z" fill="url(#paint0_linear_85_650)"/>
</g>
<g filter="url(#filter1_d_85_650)">
<circle r="51" transform="matrix(1 0 0 -1 183.047 181.954)" fill="url(#paint1_linear_85_650)"/>
<circle r="50.5" transform="matrix(1 0 0 -1 183.047 181.954)" stroke="white" stroke-opacity="0.14"/>
</g>
<defs>
<filter id="filter0_b_85_650" x="-17" y="-17" width="402" height="401.908" filterUnits="userSpaceOnUse" color-interpolation-filters="sRGB">
<feFlood flood-opacity="0" result="BackgroundImageFix"/>
<feGaussianBlur in="BackgroundImage" stdDeviation="8.5"/>
<feComposite in2="SourceAlpha" operator="in" result="effect1_backgroundBlur_85_650"/>
<feBlend mode="normal" in="SourceGraphic" in2="effect1_backgroundBlur_85_650" result="shape"/>
</filter>
<filter id="filter1_d_85_650" x="126.047" y="130.954" width="114" height="114" filterUnits="userSpaceOnUse" color-interpolation-filters="sRGB">
<feFlood flood-opacity="0" result="BackgroundImageFix"/>
<feColorMatrix in="SourceAlpha" type="matrix" values="0 0 0 0 0 0 0 0 0 0 0 0 0 0 0 0 0 0 127 0" result="hardAlpha"/>
<feOffset dy="6"/>
<feGaussianBlur stdDeviation="3"/>
<feComposite in2="hardAlpha" operator="out"/>
<feColorMatrix type="matrix" values="0 0 0 0 0.635294 0 0 0 0 0.294118 0 0 0 0 0.894118 0 0 0 0.27 0"/>
<feBlend mode="normal" in2="BackgroundImageFix" result="effect1_dropShadow_85_650"/>
<feBlend mode="normal" in="SourceGraphic" in2="effect1_dropShadow_85_650" result="shape"/>
</filter>
<linearGradient id="paint0_linear_85_650" x1="368" y1="183.954" x2="-8.04087e-06" y2="183.954" gradientUnits="userSpaceOnUse">
<stop stop-color="#2C4982"/>
<stop offset="1" stop-color="#2CD095"/>
</linearGradient>
<linearGradient id="paint1_linear_85_650" x1="-2.62939" y1="73.8097" x2="105.872" y2="73.2591" gradientUnits="userSpaceOnUse">
<stop stop-color="#E9C7FC"/>
<stop offset="1" stop-color="#FEFCFF"/>
</linearGradient>
</defs>
</svg>
