<svg width="580" height="446" viewBox="0 0 580 446" fill="none" xmlns="http://www.w3.org/2000/svg">
<g filter="url(#filter0_d_119_74)">
<g filter="url(#filter1_i_119_74)">
<path fill-rule="evenodd" clip-rule="evenodd" d="M521.497 206.193H528.668C531.919 206.193 535.039 207.497 537.338 209.82C539.639 212.141 540.931 215.291 540.931 218.575V253.981C540.931 257.265 539.639 260.415 537.338 262.736C535.039 265.059 531.918 266.363 528.668 266.363H521.497C517.981 266.598 514.6 267.82 511.734 269.888C508.868 271.956 506.632 274.793 505.276 278.075C505.049 278.638 504.82 279.197 504.585 279.757C503.244 283.045 502.84 286.646 503.417 290.154C503.995 293.662 505.528 296.939 507.848 299.614L512.921 304.735C515.222 307.056 516.514 310.206 516.514 313.49C516.514 316.771 515.222 319.921 512.921 322.242L488.12 347.28C485.821 349.603 482.7 350.907 479.45 350.907C476.197 350.907 473.077 349.603 470.778 347.28L465.705 342.159C463.053 339.816 459.809 338.268 456.334 337.685C452.859 337.102 449.291 337.512 446.034 338.864C445.48 339.102 444.926 339.332 444.368 339.561C441.116 340.932 438.308 343.191 436.259 346.081C434.208 348.974 433 352.388 432.767 355.937V363.176C432.767 366.458 431.475 369.608 429.174 371.928C426.875 374.252 423.754 375.556 420.502 375.556H385.429C382.176 375.556 379.056 374.252 376.757 371.928C374.456 369.608 373.164 366.458 373.164 363.176V355.937C372.931 352.388 371.72 348.974 369.672 346.081C367.621 343.188 364.813 340.93 361.562 339.561C361.004 339.332 360.448 339.102 359.896 338.864C356.639 337.51 353.072 337.102 349.597 337.685C346.122 338.268 342.876 339.816 340.226 342.159L335.153 347.28C332.854 349.603 329.734 350.907 326.481 350.907C323.23 350.907 320.11 349.603 317.811 347.28L293.009 322.242C290.708 319.921 289.417 316.771 289.417 313.49C289.417 310.206 290.708 307.056 293.009 304.735L298.082 299.614C300.403 296.937 301.936 293.662 302.513 290.154C303.091 286.646 302.685 283.045 301.346 279.757C301.111 279.197 300.882 278.636 300.655 278.073C299.297 274.791 297.06 271.956 294.194 269.888C291.331 267.817 287.95 266.598 284.434 266.362H277.263C274.012 266.362 270.892 265.058 268.593 262.735C266.292 260.415 265 257.265 265 253.981V218.574C265 215.29 266.292 212.141 268.593 209.82C270.892 207.497 274.012 206.193 277.263 206.193H284.434C287.95 205.957 291.331 204.735 294.196 202.667C297.062 200.597 299.299 197.762 300.655 194.481C300.882 193.917 301.111 193.358 301.346 192.799C302.687 189.511 303.091 185.91 302.513 182.402C301.936 178.894 300.403 175.616 298.082 172.941L293.009 167.82C290.708 165.5 289.417 162.349 289.417 159.066C289.417 155.784 290.708 152.634 293.009 150.313L317.811 125.276C320.11 122.953 323.23 121.649 326.481 121.649C329.734 121.649 332.854 122.953 335.153 125.276L340.226 130.397C342.878 132.739 346.122 134.287 349.597 134.87C353.072 135.453 356.639 135.043 359.896 133.692C360.45 133.454 361.004 133.223 361.562 132.994C364.815 131.623 367.623 129.365 369.672 126.474C371.723 123.581 372.931 120.168 373.164 116.619V109.379C373.164 106.098 374.456 102.948 376.757 100.627C379.056 98.304 382.176 97 385.429 97H420.502C423.755 97 426.875 98.304 429.174 100.627C431.475 102.948 432.767 106.098 432.767 109.379V116.619C433 120.168 434.21 123.581 436.259 126.474C438.31 129.367 441.118 131.625 444.368 132.994C444.926 133.223 445.483 133.454 446.034 133.692C449.291 135.043 452.858 135.453 456.334 134.87C459.808 134.287 463.055 132.739 465.705 130.397L470.778 125.276C473.076 122.953 476.197 121.649 479.45 121.649C482.7 121.649 485.821 122.953 488.122 125.276L512.921 150.313C515.222 152.634 516.514 155.784 516.514 159.066C516.514 162.35 515.222 165.499 512.921 167.82L507.848 172.941C505.528 175.619 503.995 178.893 503.417 182.402C502.84 185.91 503.246 189.511 504.585 192.799C504.676 193.015 504.766 193.234 504.856 193.451C504.997 193.794 505.137 194.138 505.276 194.483C506.634 197.765 508.871 200.599 511.734 202.668C514.6 204.738 517.981 205.958 521.497 206.193ZM402.363 272.162C422.327 272.162 438.511 255.824 438.511 235.67C438.511 215.516 422.327 199.178 402.363 199.178C382.399 199.178 366.215 215.516 366.215 235.67C366.215 255.824 382.399 272.162 402.363 272.162Z" fill="url(#paint0_linear_119_74)" fill-opacity="0.2"/>
</g>
<g filter="url(#filter2_b_119_74)">
<path fill-rule="evenodd" clip-rule="evenodd" d="M380.996 152.255H390.557C394.891 152.255 399.052 153.978 402.117 157.047C405.185 160.113 406.908 164.274 406.908 168.613V215.388C406.908 219.726 405.185 223.888 402.117 226.954C399.052 230.023 394.891 231.745 390.557 231.745H380.996C376.308 232.056 371.8 233.671 367.979 236.403C364.158 239.135 361.175 242.883 359.367 247.218C359.065 247.963 358.76 248.701 358.446 249.44C356.659 253.784 356.12 258.541 356.889 263.176C357.659 267.81 359.704 272.14 362.798 275.674L369.562 282.439C372.63 285.505 374.352 289.667 374.352 294.005C374.352 298.34 372.63 302.502 369.562 305.568L336.493 338.645C333.428 341.714 329.267 343.436 324.933 343.436C320.596 343.436 316.435 341.714 313.37 338.645L306.606 331.879C303.07 328.785 298.745 326.74 294.111 325.97C289.478 325.199 284.722 325.741 280.379 327.527C279.641 327.841 278.902 328.146 278.158 328.448C273.821 330.259 270.077 333.243 267.345 337.062C264.611 340.883 263 345.393 262.689 350.082V359.645C262.689 363.981 260.967 368.142 257.898 371.208C254.833 374.277 250.673 376 246.336 376H199.572C195.235 376 191.074 374.277 188.009 371.208C184.941 368.142 183.219 363.981 183.219 359.645V350.082C182.908 345.393 181.294 340.884 178.562 337.062C175.828 333.24 172.084 330.256 167.75 328.448C167.005 328.146 166.264 327.841 165.528 327.527C161.186 325.738 156.43 325.199 151.796 325.97C147.163 326.74 142.834 328.785 139.301 331.879L132.537 338.645C129.472 341.714 125.312 343.436 120.975 343.436C116.64 343.436 112.48 341.714 109.415 338.645L76.346 305.568C73.2779 302.502 71.5556 298.34 71.5556 294.005C71.5556 289.667 73.2779 285.505 76.346 282.439L83.1096 275.674C86.2036 272.137 88.2481 267.811 89.0179 263.176C89.7879 258.541 89.2461 253.784 87.4611 249.44V249.437C87.1475 248.698 86.8423 247.96 86.5401 247.215C84.7293 242.88 81.7466 239.135 77.9256 236.402C74.1078 233.667 69.5994 232.056 64.9116 231.745H55.3504C51.016 231.745 46.8558 230.022 43.7904 226.953C40.7223 223.887 39 219.726 39 215.387V168.612C39 164.274 40.7223 160.112 43.7904 157.046C46.8556 153.977 51.0161 152.255 55.3504 152.255H64.9116C69.5995 151.944 74.1075 150.329 77.9286 147.597C81.7496 144.862 84.7322 141.117 86.5401 136.782C86.8423 136.037 87.1474 135.299 87.4611 134.56C89.249 130.216 89.7879 125.459 89.0179 120.824C88.2481 116.19 86.2036 111.86 83.1096 108.326L76.346 101.561C73.2779 98.4948 71.5556 94.3332 71.5556 89.995C71.5556 85.6597 73.2779 81.4983 76.346 78.4322L109.415 45.3554C112.48 42.2864 116.64 40.5636 120.975 40.5636C125.312 40.5636 129.472 42.2864 132.537 45.3554L139.301 52.1207C142.837 55.2152 147.162 57.2605 151.796 58.0304C156.429 58.8006 161.186 58.2586 165.528 56.4733C166.267 56.1594 167.006 55.8543 167.75 55.5519C172.086 53.7407 175.83 50.7574 178.562 46.9382C181.297 43.1165 182.908 38.6071 183.219 33.9182V24.3545C183.219 20.0191 184.941 15.8578 188.009 12.7917C191.074 9.72272 195.235 8 199.572 8H246.336C250.673 8 254.833 9.72272 257.898 12.7917C260.967 15.8576 262.689 20.0191 262.689 24.3545V33.9182C263 38.6071 264.614 43.1164 267.345 46.9382C270.08 50.7603 273.824 53.7436 278.158 55.5519C278.902 55.8543 279.643 56.1594 280.379 56.4733C284.722 58.2586 289.478 58.8006 294.111 58.0304C298.745 57.2605 303.073 55.2152 306.606 52.1207L313.37 45.3554C316.435 42.2864 320.596 40.5636 324.933 40.5636C329.267 40.5636 333.428 42.2864 336.496 45.3554L369.562 78.4322C372.63 81.4983 374.352 85.6597 374.352 89.995C374.352 94.3334 372.63 98.4946 369.562 101.561L362.798 108.326C359.704 111.863 357.659 116.189 356.89 120.824C356.12 125.459 356.662 130.216 358.446 134.56V134.563C358.568 134.849 358.688 135.135 358.807 135.421C358.996 135.875 359.182 136.329 359.367 136.785C361.178 141.12 364.161 144.865 367.979 147.598C371.8 150.333 376.308 151.944 380.996 152.255ZM222.15 239.406C248.769 239.406 270.348 217.822 270.348 191.197C270.348 164.571 248.769 142.987 222.15 142.987C195.532 142.987 173.953 164.571 173.953 191.197C173.953 217.822 195.532 239.406 222.15 239.406Z" fill="url(#paint1_linear_119_74)"/>
</g>
<path d="M357.389 118.498C358.382 114.747 360.228 111.264 362.798 108.326L369.562 101.561C372.63 98.4946 374.352 94.3334 374.352 89.995C374.352 85.6597 372.63 81.4983 369.562 78.4322L336.496 45.3554C333.428 42.2864 329.267 40.5637 324.933 40.5637C320.596 40.5637 316.435 42.2864 313.37 45.3554L306.606 52.1207C303.073 55.2152 298.745 57.2605 294.111 58.0304C289.478 58.8006 284.722 58.2586 280.379 56.4733C279.643 56.1594 278.902 55.8544 278.158 55.5519C273.824 53.7436 270.08 50.7603 267.345 46.9382C264.614 43.1164 263 38.6071 262.689 33.9182V24.3545C262.689 20.0191 260.967 15.8576 257.898 12.7917C254.833 9.72272 250.673 8 246.336 8H199.572C195.235 8 191.074 9.72272 188.009 12.7917C184.941 15.8578 183.219 20.0191 183.219 24.3545V33.9182C182.908 38.6071 181.297 43.1165 178.562 46.9382C175.83 50.7574 172.086 53.7407 167.75 55.5519C167.006 55.8544 166.267 56.1594 165.528 56.4733C161.186 58.2586 156.429 58.8006 151.796 58.0304C147.162 57.2605 142.837 55.2152 139.301 52.1207L132.537 45.3554C129.472 42.2864 125.312 40.5637 120.975 40.5637C116.64 40.5637 112.48 42.2864 109.415 45.3554L76.346 78.4322C73.2779 81.4983 71.5556 85.6597 71.5556 89.995C71.5556 94.3332 73.2779 98.4948 76.346 101.561L83.1096 108.326C86.2036 111.86 88.2481 116.19 89.0179 120.824C89.7879 125.459 89.249 130.216 87.4611 134.56C87.1474 135.299 86.8423 136.037 86.5401 136.782C84.7322 141.117 81.7496 144.862 77.9286 147.597C74.1075 150.329 69.5995 151.944 64.9116 152.255H55.3504C51.0161 152.255 46.8556 153.977 43.7904 157.046C40.7223 160.112 39 164.274 39 168.612V215.387C39 219.726 40.7223 223.887 43.7904 226.953C46.8558 230.022 51.016 231.745 55.3504 231.745H64.9116C69.5994 232.056 74.1078 233.667 77.9256 236.402C81.7466 239.135 84.7293 242.88 86.5401 247.215C86.8423 247.96 87.1475 248.698 87.4611 249.437V249.44C89.2461 253.784 89.7879 258.541 89.0179 263.176C88.2481 267.811 86.2036 272.137 83.1096 275.674L76.346 282.439C73.2779 285.505 71.5556 289.667 71.5556 294.005C71.5556 296.445 72.1012 298.83 73.1254 300.996C98.1204 275.689 133.8 248.277 184.731 221.585C177.992 213.292 173.953 202.716 173.953 191.197C173.953 164.571 195.532 142.987 222.15 142.987C244.996 142.987 264.129 158.886 269.094 180.225C306.723 159.68 335.453 138.662 357.389 118.498Z" fill="white" fill-opacity="0.09"/>
<g filter="url(#filter3_d_119_74)">
<path d="M272.599 191.152C272.599 218.971 250.053 241.522 222.242 241.522C194.431 241.522 171.886 218.971 171.886 191.152C171.886 163.334 194.431 140.783 222.242 140.783C250.053 140.783 272.599 163.334 272.599 191.152Z" stroke="white" stroke-opacity="0.14" shape-rendering="crispEdges"/>
</g>
<g filter="url(#filter4_d_119_74)">
<circle r="51" transform="matrix(1 0 0 -1 222 190)" fill="url(#paint2_linear_119_74)"/>
<circle r="50.5" transform="matrix(1 0 0 -1 222 190)" stroke="white" stroke-opacity="0.14"/>
</g>
</g>
<defs>
<filter id="filter0_d_119_74" x="0" y="0" width="579.931" height="446" filterUnits="userSpaceOnUse" color-interpolation-filters="sRGB">
<feFlood flood-opacity="0" result="BackgroundImageFix"/>
<feColorMatrix in="SourceAlpha" type="matrix" values="0 0 0 0 0 0 0 0 0 0 0 0 0 0 0 0 0 0 127 0" result="hardAlpha"/>
<feOffset dy="31"/>
<feGaussianBlur stdDeviation="19.5"/>
<feComposite in2="hardAlpha" operator="out"/>
<feColorMatrix type="matrix" values="0 0 0 0 0.104167 0 0 0 0 0.104167 0 0 0 0 0.104167 0 0 0 0.21 0"/>
<feBlend mode="normal" in2="BackgroundImageFix" result="effect1_dropShadow_119_74"/>
<feBlend mode="normal" in="SourceGraphic" in2="effect1_dropShadow_119_74" result="shape"/>
</filter>
<filter id="filter1_i_119_74" x="265" y="97" width="275.931" height="278.556" filterUnits="userSpaceOnUse" color-interpolation-filters="sRGB">
<feFlood flood-opacity="0" result="BackgroundImageFix"/>
<feBlend mode="normal" in="SourceGraphic" in2="BackgroundImageFix" result="shape"/>
<feColorMatrix in="SourceAlpha" type="matrix" values="0 0 0 0 0 0 0 0 0 0 0 0 0 0 0 0 0 0 127 0" result="hardAlpha"/>
<feOffset/>
<feGaussianBlur stdDeviation="1"/>
<feComposite in2="hardAlpha" operator="arithmetic" k2="-1" k3="1"/>
<feColorMatrix type="matrix" values="0 0 0 0 1 0 0 0 0 1 0 0 0 0 1 0 0 0 0.25 0"/>
<feBlend mode="normal" in2="shape" result="effect1_innerShadow_119_74"/>
</filter>
<filter id="filter2_b_119_74" x="22" y="-9" width="401.907" height="402" filterUnits="userSpaceOnUse" color-interpolation-filters="sRGB">
<feFlood flood-opacity="0" result="BackgroundImageFix"/>
<feGaussianBlur in="BackgroundImage" stdDeviation="8.5"/>
<feComposite in2="SourceAlpha" operator="in" result="effect1_backgroundBlur_119_74"/>
<feBlend mode="normal" in="SourceGraphic" in2="effect1_backgroundBlur_119_74" result="shape"/>
</filter>
<filter id="filter3_d_119_74" x="165.386" y="140.283" width="113.713" height="113.738" filterUnits="userSpaceOnUse" color-interpolation-filters="sRGB">
<feFlood flood-opacity="0" result="BackgroundImageFix"/>
<feColorMatrix in="SourceAlpha" type="matrix" values="0 0 0 0 0 0 0 0 0 0 0 0 0 0 0 0 0 0 127 0" result="hardAlpha"/>
<feOffset dy="6"/>
<feGaussianBlur stdDeviation="3"/>
<feComposite in2="hardAlpha" operator="out"/>
<feColorMatrix type="matrix" values="0 0 0 0 0.635294 0 0 0 0 0.294118 0 0 0 0 0.894118 0 0 0 0.27 0"/>
<feBlend mode="normal" in2="BackgroundImageFix" result="effect1_dropShadow_119_74"/>
<feBlend mode="normal" in="SourceGraphic" in2="effect1_dropShadow_119_74" result="shape"/>
</filter>
<filter id="filter4_d_119_74" x="165" y="139" width="114" height="114" filterUnits="userSpaceOnUse" color-interpolation-filters="sRGB">
<feFlood flood-opacity="0" result="BackgroundImageFix"/>
<feColorMatrix in="SourceAlpha" type="matrix" values="0 0 0 0 0 0 0 0 0 0 0 0 0 0 0 0 0 0 127 0" result="hardAlpha"/>
<feOffset dy="6"/>
<feGaussianBlur stdDeviation="3"/>
<feComposite in2="hardAlpha" operator="out"/>
<feColorMatrix type="matrix" values="0 0 0 0 0.635294 0 0 0 0 0.294118 0 0 0 0 0.894118 0 0 0 0.27 0"/>
<feBlend mode="normal" in2="BackgroundImageFix" result="effect1_dropShadow_119_74"/>
<feBlend mode="normal" in="SourceGraphic" in2="effect1_dropShadow_119_74" result="shape"/>
</filter>
<linearGradient id="paint0_linear_119_74" x1="402.965" y1="97" x2="402.965" y2="375.556" gradientUnits="userSpaceOnUse">
<stop stop-color="#2C4982"/>
<stop offset="1" stop-color="#2CD095"/>
</linearGradient>
<linearGradient id="paint1_linear_119_74" x1="222.954" y1="8" x2="222.954" y2="376" gradientUnits="userSpaceOnUse">
<stop stop-color="#2C4982"/>
<stop offset="1" stop-color="#2CD095"/>
</linearGradient>
<linearGradient id="paint2_linear_119_74" x1="-2.62939" y1="73.8097" x2="105.872" y2="73.2591" gradientUnits="userSpaceOnUse">
<stop stop-color="#E9C7FC"/>
<stop offset="1" stop-color="#FEFCFF"/>
</linearGradient>
</defs>
</svg>
