<svg width="276" height="279" fill="none" xmlns="http://www.w3.org/2000/svg"><path fill-rule="evenodd" clip-rule="evenodd" d="M256.499 109.193h7.171c3.251 0 6.371 1.304 8.67 3.627a12.436 12.436 0 013.593 8.755v35.406c0 3.284-1.292 6.434-3.593 8.755a12.2 12.2 0 01-8.67 3.627h-7.171a18.831 18.831 0 00-9.763 3.525 19.07 19.07 0 00-6.458 8.187c-.227.563-.456 1.122-.691 1.682a19.26 19.26 0 003.263 19.857l5.073 5.121a12.436 12.436 0 013.593 8.755c0 3.281-1.292 6.431-3.593 8.752l-24.801 25.037a12.197 12.197 0 01-8.67 3.628 12.196 12.196 0 01-8.672-3.628l-5.073-5.121a18.871 18.871 0 00-9.372-4.473 18.761 18.761 0 00-10.299 1.179c-.554.237-1.108.468-1.666.697a18.981 18.981 0 00-8.109 6.52 19.22 19.22 0 00-3.492 9.856v7.239a12.43 12.43 0 01-3.593 8.752 12.201 12.201 0 01-8.672 3.627h-35.073a12.2 12.2 0 01-8.672-3.627 12.43 12.43 0 01-3.593-8.752v-7.239a19.246 19.246 0 00-3.492-9.856 18.973 18.973 0 00-8.11-6.52c-.558-.229-1.114-.46-1.666-.697a18.743 18.743 0 00-10.299-1.179 18.864 18.864 0 00-9.371 4.473l-5.073 5.121a12.196 12.196 0 01-8.672 3.628c-3.25 0-6.371-1.304-8.67-3.628l-24.802-25.037a12.434 12.434 0 01-3.592-8.752c0-3.284 1.291-6.434 3.592-8.755l5.073-5.121a19.2 19.2 0 004.431-9.46 19.279 19.279 0 00-1.167-10.397c-.235-.56-.464-1.121-.691-1.684a19.09 19.09 0 00-6.46-8.185 18.8 18.8 0 00-9.761-3.526h-7.171a12.198 12.198 0 01-8.67-3.627 12.435 12.435 0 01-3.593-8.754v-35.407c0-3.284 1.292-6.434 3.593-8.754a12.199 12.199 0 018.67-3.627h7.17a18.84 18.84 0 009.763-3.526 19.087 19.087 0 006.459-8.186c.227-.564.456-1.123.69-1.682a19.258 19.258 0 00-3.263-19.858l-5.073-5.12a12.434 12.434 0 01-3.592-8.755c0-3.282 1.291-6.432 3.592-8.753l24.802-25.037a12.199 12.199 0 018.67-3.627 12.2 12.2 0 018.672 3.627l5.073 5.12a18.867 18.867 0 009.371 4.474c3.475.583 7.042.173 10.3-1.179.553-.237 1.107-.468 1.665-.697a18.982 18.982 0 008.11-6.52 19.216 19.216 0 003.492-9.855v-7.24c0-3.281 1.292-6.431 3.593-8.752A12.2 12.2 0 01120.431 0h35.073a12.2 12.2 0 018.672 3.627 12.433 12.433 0 013.593 8.752v7.24a19.235 19.235 0 003.492 9.855 18.973 18.973 0 008.109 6.52c.558.229 1.115.46 1.666.697a18.766 18.766 0 0010.299 1.18 18.862 18.862 0 009.372-4.474l5.073-5.121a12.198 12.198 0 018.672-3.627c3.25 0 6.371 1.304 8.672 3.627l24.799 25.037a12.434 12.434 0 013.593 8.752c0 3.284-1.292 6.434-3.593 8.755l-5.073 5.121a19.21 19.21 0 00-4.431 9.46 19.282 19.282 0 001.168 10.398c.091.216.181.435.271.652.141.343.281.687.42 1.032a19.099 19.099 0 006.458 8.184 18.806 18.806 0 009.763 3.526zm-119.134 65.968c19.964 0 36.148-16.338 36.148-36.492 0-20.154-16.184-36.492-36.148-36.492-19.964 0-36.148 16.338-36.148 36.492 0 20.154 16.184 36.492 36.148 36.492z" fill="url(#paint0_linear_85_646)" fill-opacity=".2"/><defs><linearGradient id="paint0_linear_85_646" x1="137.967" y1="0" x2="137.967" y2="278.555" gradientUnits="userSpaceOnUse"><stop stop-color="#2C4982"/><stop offset="1" stop-color="#2CD095"/></linearGradient></defs></svg>