<svg width="580" height="446" fill="none" xmlns="http://www.w3.org/2000/svg"><g filter="url(#filter0_d_119_74)"><g filter="url(#filter1_i_119_74)"><path fill-rule="evenodd" clip-rule="evenodd" d="M521.497 206.193h7.171c3.251 0 6.371 1.304 8.67 3.627a12.436 12.436 0 013.593 8.755v35.406c0 3.284-1.292 6.434-3.593 8.755a12.2 12.2 0 01-8.67 3.627h-7.171a18.831 18.831 0 00-9.763 3.525 19.07 19.07 0 00-6.458 8.187c-.227.563-.456 1.122-.691 1.682a19.262 19.262 0 00-1.168 10.397 19.2 19.2 0 004.431 9.46l5.073 5.121a12.436 12.436 0 013.593 8.755c0 3.281-1.292 6.431-3.593 8.752L488.12 347.28a12.2 12.2 0 01-8.67 3.627 12.2 12.2 0 01-8.672-3.627l-5.073-5.121a18.865 18.865 0 00-9.371-4.474 18.764 18.764 0 00-10.3 1.179c-.554.238-1.108.468-1.666.697a18.989 18.989 0 00-8.109 6.52 19.22 19.22 0 00-3.492 9.856v7.239a12.43 12.43 0 01-3.593 8.752 12.198 12.198 0 01-8.672 3.628h-35.073a12.196 12.196 0 01-8.672-3.628 12.43 12.43 0 01-3.593-8.752v-7.239a19.246 19.246 0 00-3.492-9.856 18.972 18.972 0 00-8.11-6.52c-.558-.229-1.114-.459-1.666-.697a18.742 18.742 0 00-10.299-1.179 18.857 18.857 0 00-9.371 4.474l-5.073 5.121a12.2 12.2 0 01-8.672 3.627 12.198 12.198 0 01-8.67-3.627l-24.802-25.038a12.433 12.433 0 01-3.592-8.752c0-3.284 1.291-6.434 3.592-8.755l5.073-5.121a19.192 19.192 0 004.431-9.46 19.27 19.27 0 00-1.167-10.397c-.235-.56-.464-1.121-.691-1.684a19.087 19.087 0 00-6.461-8.185 18.795 18.795 0 00-9.76-3.526h-7.171a12.198 12.198 0 01-8.67-3.627 12.432 12.432 0 01-3.593-8.754v-35.407c0-3.284 1.292-6.433 3.593-8.754a12.198 12.198 0 018.67-3.627h7.171a18.835 18.835 0 009.762-3.526 19.088 19.088 0 006.459-8.186c.227-.564.456-1.123.691-1.682a19.252 19.252 0 001.167-10.397 19.187 19.187 0 00-4.431-9.461l-5.073-5.121a12.433 12.433 0 01-3.592-8.754c0-3.282 1.291-6.432 3.592-8.753l24.802-25.037a12.198 12.198 0 018.67-3.627 12.2 12.2 0 018.672 3.627l5.073 5.121a18.872 18.872 0 009.371 4.473 18.77 18.77 0 0010.299-1.178c.554-.238 1.108-.469 1.666-.698a18.978 18.978 0 008.11-6.52 19.216 19.216 0 003.492-9.855v-7.24c0-3.281 1.292-6.431 3.593-8.752A12.2 12.2 0 01385.429 97h35.073a12.2 12.2 0 018.672 3.627 12.434 12.434 0 013.593 8.752v7.24a19.234 19.234 0 003.492 9.855 18.975 18.975 0 008.109 6.52c.558.229 1.115.46 1.666.698a18.772 18.772 0 0010.3 1.178 18.868 18.868 0 009.371-4.473l5.073-5.121a12.198 12.198 0 018.672-3.627c3.25 0 6.371 1.304 8.672 3.627l24.799 25.037a12.435 12.435 0 013.593 8.753c0 3.284-1.292 6.433-3.593 8.754l-5.073 5.121a19.212 19.212 0 00-4.431 9.461 19.28 19.28 0 001.168 10.397c.091.216.181.435.271.652.141.343.281.687.42 1.032a19.108 19.108 0 006.458 8.185 18.814 18.814 0 009.763 3.525zm-119.134 65.969c19.964 0 36.148-16.338 36.148-36.492 0-20.154-16.184-36.492-36.148-36.492-19.964 0-36.148 16.338-36.148 36.492 0 20.154 16.184 36.492 36.148 36.492z" fill="url(#paint0_linear_119_74)" fill-opacity=".2"/></g><g filter="url(#filter2_b_119_74)"><path fill-rule="evenodd" clip-rule="evenodd" d="M380.996 152.255h9.561a16.34 16.34 0 0111.56 4.792 16.35 16.35 0 014.791 11.566v46.775c0 4.338-1.723 8.5-4.791 11.566a16.34 16.34 0 01-11.56 4.791h-9.561a25.24 25.24 0 00-21.629 15.473c-.302.745-.607 1.483-.921 2.222a25.244 25.244 0 004.352 26.234l6.764 6.765a16.351 16.351 0 010 23.129l-33.069 33.077a16.341 16.341 0 01-23.123 0l-6.764-6.766a25.257 25.257 0 00-12.495-5.909 25.222 25.222 0 00-13.732 1.557c-.738.314-1.477.619-2.221.921a25.245 25.245 0 00-15.469 21.634v9.563c0 4.336-1.722 8.497-4.791 11.563A16.34 16.34 0 01246.336 376h-46.764a16.342 16.342 0 01-11.563-4.792 16.348 16.348 0 01-4.79-11.563v-9.563a25.247 25.247 0 00-15.469-21.634c-.745-.302-1.486-.607-2.222-.921a25.25 25.25 0 00-26.227 4.352l-6.764 6.766a16.339 16.339 0 01-11.562 4.791 16.338 16.338 0 01-11.56-4.791l-33.069-33.077a16.351 16.351 0 010-23.129l6.764-6.765a25.254 25.254 0 004.352-26.234v-.003c-.315-.739-.62-1.477-.922-2.222a25.267 25.267 0 00-8.614-10.813 25.21 25.21 0 00-13.014-4.657H55.35a16.34 16.34 0 01-11.56-4.792A16.35 16.35 0 0139 215.387v-46.775c0-4.338 1.722-8.5 4.79-11.566a16.34 16.34 0 0111.56-4.791h9.562a25.259 25.259 0 0013.017-4.658 25.257 25.257 0 008.611-10.815c.302-.745.607-1.483.921-2.222a25.256 25.256 0 00-4.352-26.234l-6.763-6.765a16.351 16.351 0 010-23.129l33.069-33.077a16.339 16.339 0 0123.122 0l6.764 6.766a25.235 25.235 0 0026.227 4.353c.739-.315 1.478-.62 2.222-.922a25.267 25.267 0 0010.812-8.614 25.24 25.24 0 004.657-13.02v-9.563c0-4.336 1.722-8.497 4.79-11.563A16.342 16.342 0 01199.572 8h46.764a16.34 16.34 0 0111.562 4.792 16.345 16.345 0 014.791 11.563v9.563a25.274 25.274 0 004.656 13.02 25.257 25.257 0 0010.813 8.614c.744.302 1.485.607 2.221.921a25.236 25.236 0 0026.227-4.352l6.764-6.766a16.342 16.342 0 0111.563-4.791c4.334 0 8.495 1.722 11.563 4.791l33.066 33.077a16.351 16.351 0 010 23.129l-6.764 6.765a25.257 25.257 0 00-4.352 26.234v.003a162.494 162.494 0 01.921 2.222 25.286 25.286 0 008.612 10.813 25.23 25.23 0 0013.017 4.657zM222.15 239.406c26.619 0 48.198-21.584 48.198-48.209 0-26.626-21.579-48.21-48.198-48.21-26.618 0-48.197 21.584-48.197 48.21 0 26.625 21.579 48.209 48.197 48.209z" fill="url(#paint1_linear_119_74)"/></g><path d="M357.389 118.498a25.27 25.27 0 015.409-10.172l6.764-6.765a16.351 16.351 0 000-23.129l-33.066-33.077a16.352 16.352 0 00-11.563-4.791 16.342 16.342 0 00-11.563 4.791l-6.764 6.766a25.241 25.241 0 01-26.227 4.352c-.736-.314-1.477-.619-2.221-.921a25.257 25.257 0 01-10.813-8.614 25.274 25.274 0 01-4.656-13.02v-9.563c0-4.336-1.722-8.497-4.791-11.563A16.34 16.34 0 00246.336 8h-46.764a16.342 16.342 0 00-11.563 4.792 16.349 16.349 0 00-4.79 11.563v9.563a25.24 25.24 0 01-4.657 13.02 25.267 25.267 0 01-10.812 8.614c-.744.302-1.483.607-2.222.921a25.235 25.235 0 01-26.227-4.352l-6.764-6.766a16.34 16.34 0 00-23.122 0L76.346 78.432a16.351 16.351 0 000 23.129l6.764 6.765a25.256 25.256 0 014.351 26.234 134.76 134.76 0 00-.92 2.222 25.257 25.257 0 01-8.612 10.815 25.259 25.259 0 01-13.017 4.658H55.35a16.34 16.34 0 00-11.56 4.791A16.351 16.351 0 0039 168.612v46.775c0 4.339 1.722 8.5 4.79 11.566a16.34 16.34 0 0011.56 4.792h9.562a25.21 25.21 0 0113.014 4.657 25.267 25.267 0 018.614 10.813c.302.745.607 1.483.921 2.222v.003a25.254 25.254 0 01-4.351 26.234l-6.764 6.765a16.351 16.351 0 00-3.22 18.557c24.994-25.307 60.674-52.719 111.605-79.411a48.02 48.02 0 01-10.778-30.388c0-26.626 21.579-48.21 48.197-48.21 22.846 0 41.979 15.899 46.944 37.238 37.629-20.545 66.359-41.563 88.295-61.727z" fill="#fff" fill-opacity=".09"/><g filter="url(#filter3_d_119_74)"><path d="M272.599 191.152c0 27.819-22.546 50.37-50.357 50.37s-50.356-22.551-50.356-50.37c0-27.818 22.545-50.369 50.356-50.369s50.357 22.551 50.357 50.369z" stroke="#fff" stroke-opacity=".14" shape-rendering="crispEdges"/></g><g filter="url(#filter4_d_119_74)" transform="matrix(1 0 0 -1 222 190)"><circle r="51" fill="url(#paint2_linear_119_74)"/><circle r="50.5" stroke="#fff" stroke-opacity=".14"/></g></g><defs><filter id="filter0_d_119_74" x="0" y="0" width="579.931" height="446" filterUnits="userSpaceOnUse" color-interpolation-filters="sRGB"><feFlood flood-opacity="0" result="BackgroundImageFix"/><feColorMatrix in="SourceAlpha" values="0 0 0 0 0 0 0 0 0 0 0 0 0 0 0 0 0 0 127 0" result="hardAlpha"/><feOffset dy="31"/><feGaussianBlur stdDeviation="19.5"/><feComposite in2="hardAlpha" operator="out"/><feColorMatrix values="0 0 0 0 0.104167 0 0 0 0 0.104167 0 0 0 0 0.104167 0 0 0 0.21 0"/><feBlend in2="BackgroundImageFix" result="effect1_dropShadow_119_74"/><feBlend in="SourceGraphic" in2="effect1_dropShadow_119_74" result="shape"/></filter><filter id="filter1_i_119_74" x="265" y="97" width="275.931" height="278.556" filterUnits="userSpaceOnUse" color-interpolation-filters="sRGB"><feFlood flood-opacity="0" result="BackgroundImageFix"/><feBlend in="SourceGraphic" in2="BackgroundImageFix" result="shape"/><feColorMatrix in="SourceAlpha" values="0 0 0 0 0 0 0 0 0 0 0 0 0 0 0 0 0 0 127 0" result="hardAlpha"/><feOffset/><feGaussianBlur stdDeviation="1"/><feComposite in2="hardAlpha" operator="arithmetic" k2="-1" k3="1"/><feColorMatrix values="0 0 0 0 1 0 0 0 0 1 0 0 0 0 1 0 0 0 0.25 0"/><feBlend in2="shape" result="effect1_innerShadow_119_74"/></filter><filter id="filter2_b_119_74" x="22" y="-9" width="401.907" height="402" filterUnits="userSpaceOnUse" color-interpolation-filters="sRGB"><feFlood flood-opacity="0" result="BackgroundImageFix"/><feGaussianBlur in="BackgroundImage" stdDeviation="8.5"/><feComposite in2="SourceAlpha" operator="in" result="effect1_backgroundBlur_119_74"/><feBlend in="SourceGraphic" in2="effect1_backgroundBlur_119_74" result="shape"/></filter><filter id="filter3_d_119_74" x="165.386" y="140.283" width="113.713" height="113.738" filterUnits="userSpaceOnUse" color-interpolation-filters="sRGB"><feFlood flood-opacity="0" result="BackgroundImageFix"/><feColorMatrix in="SourceAlpha" values="0 0 0 0 0 0 0 0 0 0 0 0 0 0 0 0 0 0 127 0" result="hardAlpha"/><feOffset dy="6"/><feGaussianBlur stdDeviation="3"/><feComposite in2="hardAlpha" operator="out"/><feColorMatrix values="0 0 0 0 0.635294 0 0 0 0 0.294118 0 0 0 0 0.894118 0 0 0 0.27 0"/><feBlend in2="BackgroundImageFix" result="effect1_dropShadow_119_74"/><feBlend in="SourceGraphic" in2="effect1_dropShadow_119_74" result="shape"/></filter><filter id="filter4_d_119_74" x="165" y="139" width="114" height="114" filterUnits="userSpaceOnUse" color-interpolation-filters="sRGB"><feFlood flood-opacity="0" result="BackgroundImageFix"/><feColorMatrix in="SourceAlpha" values="0 0 0 0 0 0 0 0 0 0 0 0 0 0 0 0 0 0 127 0" result="hardAlpha"/><feOffset dy="6"/><feGaussianBlur stdDeviation="3"/><feComposite in2="hardAlpha" operator="out"/><feColorMatrix values="0 0 0 0 0.635294 0 0 0 0 0.294118 0 0 0 0 0.894118 0 0 0 0.27 0"/><feBlend in2="BackgroundImageFix" result="effect1_dropShadow_119_74"/><feBlend in="SourceGraphic" in2="effect1_dropShadow_119_74" result="shape"/></filter><linearGradient id="paint0_linear_119_74" x1="402.965" y1="97" x2="402.965" y2="375.556" gradientUnits="userSpaceOnUse"><stop stop-color="#2C4982"/><stop offset="1" stop-color="#2CD095"/></linearGradient><linearGradient id="paint1_linear_119_74" x1="222.954" y1="8" x2="222.954" y2="376" gradientUnits="userSpaceOnUse"><stop stop-color="#2C4982"/><stop offset="1" stop-color="#2CD095"/></linearGradient><linearGradient id="paint2_linear_119_74" x1="-2.629" y1="73.81" x2="105.872" y2="73.259" gradientUnits="userSpaceOnUse"><stop stop-color="#E9C7FC"/><stop offset="1" stop-color="#FEFCFF"/></linearGradient></defs></svg>