<svg width="465" height="375" fill="none" xmlns="http://www.w3.org/2000/svg"><g clip-path="url(#clip0_1_66)"><g filter="url(#filter0_d_1_66)" shape-rendering="crispEdges"><rect y="193.632" width="166.233" height="141.987" rx="17.17" transform="rotate(-90 0 193.632)" fill="url(#paint0_linear_1_66)"/><rect x=".286" y="193.346" width="165.66" height="141.414" rx="16.883" transform="rotate(-90 .286 193.346)" stroke="url(#paint1_linear_1_66)" stroke-opacity=".3" stroke-width=".572"/></g><path d="M24.235 139.071l-3.043 5.887v2.906H19.05v-2.906l-3.044-5.887h2.43l1.704 3.682 1.69-3.682h2.405zm5.46 8.88a4.625 4.625 0 01-2.28-.576 4.377 4.377 0 01-1.64-1.603c-.401-.693-.601-1.47-.601-2.33 0-.86.2-1.632.6-2.317a4.377 4.377 0 011.642-1.603 4.625 4.625 0 012.28-.576c.826 0 1.582.192 2.266.576a4.17 4.17 0 011.629 1.603c.4.685.6 1.457.6 2.317 0 .86-.2 1.637-.6 2.33a4.285 4.285 0 01-1.629 1.603 4.555 4.555 0 01-2.267.576zm0-1.954c.702 0 1.261-.233 1.679-.701.425-.468.638-1.086.638-1.854 0-.776-.213-1.394-.638-1.854-.418-.467-.977-.701-1.679-.701-.71 0-1.277.23-1.703.689-.418.459-.627 1.081-.627 1.866 0 .777.21 1.399.627 1.866.426.46.993.689 1.703.689zm8.231-6.926v5.261c0 .526.13.931.388 1.214.26.284.64.426 1.14.426.501 0 .885-.142 1.152-.426.268-.283.401-.688.401-1.214v-5.261h2.142v5.248c0 .785-.167 1.449-.501 1.992a3.206 3.206 0 01-1.353 1.227c-.56.276-1.185.413-1.879.413-.693 0-1.315-.133-1.866-.4a3.097 3.097 0 01-1.29-1.228c-.317-.551-.476-1.219-.476-2.004v-5.248h2.142zm11.65 8.793l-1.83-3.32h-.513v3.32h-2.142v-8.793h3.595c.693 0 1.282.121 1.766.363.493.242.86.576 1.102 1.002.243.418.364.885.364 1.403 0 .585-.167 1.106-.501 1.566-.326.459-.81.785-1.453.977l2.029 3.482h-2.418zm-2.343-4.835h1.328c.392 0 .685-.096.877-.288.2-.192.3-.464.3-.814 0-.334-.1-.597-.3-.789-.192-.192-.485-.289-.877-.289h-1.328v2.18zm17.426 4.835h-2.142l-3.582-5.424v5.424h-2.142v-8.793h2.142l3.582 5.448v-5.448h2.142v8.793zm7.715-8.793v1.716h-3.582v1.854h2.68v1.665h-2.68v3.558H66.65v-8.793h5.724zm7.89 0v1.716h-2.33v7.077h-2.142v-7.077h-2.33v-1.716h6.801zm12.784 3.307l-.35 1.64H94.2v1.929h-1.917l-.413 1.917h-2.004l.413-1.917H88.2l-.413 1.917h-2.004l.413-1.917h-1.854v-1.929h2.267l.351-1.64h-1.816v-1.929h2.217l.4-1.854h2.005l-.401 1.854h2.08l.4-1.854h2.004l-.4 1.854h1.552v1.929h-1.954zm-2.004 0h-2.079l-.35 1.64h2.079l.35-1.64zm5.377.789c0-1.437.276-2.568.827-3.395.56-.826 1.457-1.24 2.693-1.24s2.129.414 2.68 1.24c.56.827.84 1.958.84 3.395 0 1.453-.28 2.592-.84 3.419-.551.827-1.444 1.24-2.68 1.24-1.236 0-2.133-.413-2.693-1.24-.551-.827-.827-1.966-.827-3.419zm4.935 0c0-.844-.092-1.491-.275-1.942-.184-.459-.564-.689-1.14-.689s-.956.23-1.14.689c-.183.451-.275 1.098-.275 1.942 0 .567.033 1.039.1 1.415.067.367.2.668.4.902.21.225.514.338.915.338s.701-.113.902-.338c.209-.234.346-.535.413-.902.067-.376.1-.848.1-1.415zm3.675 0c0-1.437.275-2.568.826-3.395.56-.826 1.457-1.24 2.693-1.24s2.129.414 2.681 1.24c.559.827.839 1.958.839 3.395 0 1.453-.28 2.592-.839 3.419-.552.827-1.445 1.24-2.681 1.24s-2.133-.413-2.693-1.24c-.551-.827-.826-1.966-.826-3.419zm4.934 0c0-.844-.091-1.491-.275-1.942-.184-.459-.564-.689-1.14-.689s-.956.23-1.14.689c-.183.451-.275 1.098-.275 1.942 0 .567.033 1.039.1 1.415.067.367.2.668.401.902.209.225.513.338.914.338s.702-.113.902-.338c.209-.234.346-.535.413-.902.067-.376.1-.848.1-1.415zm3.675 0c0-1.437.275-2.568.826-3.395.56-.826 1.457-1.24 2.693-1.24s2.13.414 2.681 1.24c.559.827.839 1.958.839 3.395 0 1.453-.28 2.592-.839 3.419-.551.827-1.445 1.24-2.681 1.24s-2.133-.413-2.693-1.24c-.551-.827-.826-1.966-.826-3.419zm4.935 0c0-.844-.092-1.491-.276-1.942-.184-.459-.564-.689-1.14-.689s-.956.23-1.14.689c-.183.451-.275 1.098-.275 1.942 0 .567.033 1.039.1 1.415.067.367.201.668.401.902.209.225.513.338.914.338s.702-.113.902-.338c.209-.234.347-.535.413-.902.067-.376.101-.848.101-1.415zm3.448-2.455v-1.992h3.47v9.144h-2.23v-7.152h-1.24z" fill="#fff"/><g opacity=".5" filter="url(#filter1_f_1_66)"><ellipse cx="71.127" cy="115.331" rx="27.852" ry="7.162" fill="#000"/></g><g opacity=".5" filter="url(#filter2_f_1_66)"><ellipse cx="71.146" cy="78.927" rx="32.005" ry="31.957" fill="url(#paint2_linear_1_66)"/></g><g filter="url(#filter3_dddddd_1_66)"><rect x="37.967" y="45.013" width="68.106" height="68.106" rx="15.265" stroke="#fff" stroke-width=".783"/></g><rect x="34.645" y="163.029" width="73.184" height="19.703" rx="5.428" fill="#23232F"/><path d="M57.06 173.063c.319.068.574.227.767.477.194.246.29.527.29.846 0 .459-.162.824-.485 1.096-.319.266-.765.399-1.339.399h-2.56v-5.495h2.474c.558 0 .994.127 1.307.383.319.256.478.603.478 1.041 0 .324-.086.593-.258.807a1.297 1.297 0 01-.674.446zm-1.988-.454h.877c.219 0 .386-.047.5-.141.12-.099.18-.243.18-.431s-.06-.331-.18-.43c-.114-.099-.281-.149-.5-.149h-.877v1.151zm.986 2.192c.225 0 .397-.05.517-.149.125-.104.188-.253.188-.446a.56.56 0 00-.196-.454c-.125-.11-.3-.165-.524-.165h-.971v1.214h.986zm4.425-4.415v3.287c0 .329.08.582.242.76.162.177.4.266.713.266.313 0 .553-.089.72-.266.167-.178.25-.431.25-.76v-3.287h1.339v3.28c0 .49-.104.905-.313 1.244-.209.34-.49.595-.845.767-.35.173-.742.259-1.175.259a2.64 2.64 0 01-1.166-.251 1.933 1.933 0 01-.806-.767c-.199-.344-.298-.762-.298-1.252v-3.28h1.339zm9.19 0l-1.902 3.679v1.816h-1.338v-1.816l-1.903-3.679h1.52l1.064 2.301 1.057-2.301h1.503zm7.663 5.495h-1.339l-2.238-3.39v3.39h-1.34v-5.495h1.34l2.238 3.405v-3.405h1.34v5.495zm3.843.055a2.89 2.89 0 01-1.424-.36 2.736 2.736 0 01-1.026-1.002 2.855 2.855 0 01-.376-1.456c0-.538.126-1.021.376-1.449a2.736 2.736 0 011.026-1.002 2.89 2.89 0 011.424-.36c.517 0 .99.12 1.417.36.433.24.773.574 1.018 1.002.25.428.376.911.376 1.449 0 .537-.125 1.023-.376 1.456-.25.428-.59.762-1.018 1.002-.428.24-.9.36-1.417.36zm0-1.221c.439 0 .788-.147 1.05-.439.266-.292.399-.678.399-1.158 0-.486-.133-.872-.4-1.159-.26-.292-.61-.438-1.049-.438-.443 0-.798.143-1.064.43-.261.287-.392.676-.392 1.167 0 .485.13.874.392 1.166.266.287.62.431 1.064.431zm11.392-4.329l-1.433 5.495h-1.62l-.877-3.617-.908 3.617h-1.62l-1.394-5.495h1.432l.791 4 .979-4h1.471l.94 4 .798-4h1.44z" fill="#fff"/><rect x="34.645" y="163.029" width="73.184" height="19.703" rx="5.428" stroke="#454558" stroke-width=".402"/></g><g clip-path="url(#clip1_1_66)"><g filter="url(#filter4_d_1_66)" shape-rendering="crispEdges"><rect y="374.465" width="166.233" height="141.987" rx="17.17" transform="rotate(-90 0 374.465)" fill="url(#paint3_linear_1_66)"/><rect x=".286" y="374.179" width="165.66" height="141.414" rx="16.883" transform="rotate(-90 .286 374.179)" stroke="url(#paint4_linear_1_66)" stroke-opacity=".3" stroke-width=".572"/></g><path d="M22.786 319.904l-3.044 5.887v2.906h-2.141v-2.906l-3.044-5.887h2.43l1.703 3.683 1.691-3.683h2.405zm5.46 8.881a4.615 4.615 0 01-2.28-.577 4.377 4.377 0 01-1.64-1.603c-.401-.693-.602-1.469-.602-2.329 0-.861.2-1.633.602-2.318a4.385 4.385 0 011.64-1.603 4.625 4.625 0 012.28-.576c.827 0 1.582.192 2.267.576a4.178 4.178 0 011.628 1.603c.401.685.602 1.457.602 2.318 0 .86-.2 1.636-.602 2.329a4.285 4.285 0 01-1.628 1.603 4.545 4.545 0 01-2.267.577zm0-1.954c.701 0 1.26-.234 1.678-.702.426-.467.64-1.085.64-1.853 0-.777-.214-1.395-.64-1.854-.417-.468-.977-.702-1.678-.702-.71 0-1.278.23-1.703.689-.418.46-.627 1.082-.627 1.867 0 .776.209 1.398.627 1.866.425.459.993.689 1.703.689zm8.23-6.927v5.261c0 .526.13.931.389 1.215.259.284.639.426 1.14.426.5 0 .885-.142 1.152-.426.267-.284.4-.689.4-1.215v-5.261H41.7v5.248c0 .785-.167 1.449-.501 1.992a3.193 3.193 0 01-1.353 1.227c-.56.276-1.186.414-1.879.414-.693 0-1.315-.134-1.866-.401a3.096 3.096 0 01-1.29-1.228c-.318-.551-.476-1.219-.476-2.004v-5.248h2.142zm11.65 8.793l-1.829-3.319h-.513v3.319h-2.142v-8.793h3.595c.693 0 1.282.121 1.766.363.493.243.86.577 1.102 1.002.242.418.363.886.363 1.403a2.6 2.6 0 01-.5 1.566c-.326.459-.81.785-1.454.977l2.03 3.482h-2.418zm-2.342-4.835h1.328c.392 0 .684-.096.876-.288.2-.192.301-.463.301-.814 0-.334-.1-.597-.3-.789-.193-.192-.485-.288-.877-.288h-1.328v2.179zm17.426 4.835h-2.142l-3.582-5.423v5.423h-2.142v-8.793h2.142l3.582 5.449v-5.449h2.142v8.793zm7.715-8.793v1.716h-3.582v1.854h2.68v1.666h-2.68v3.557H65.2v-8.793h5.724zm7.89 0v1.716h-2.33v7.077h-2.142v-7.077h-2.33v-1.716h6.801zm12.784 3.307l-.35 1.641h1.502v1.929h-1.916l-.413 1.916h-2.004l.413-1.916h-2.08l-.413 1.916h-2.004l.414-1.916h-1.854v-1.929h2.267l.35-1.641h-1.815v-1.929h2.217l.4-1.854h2.004l-.4 1.854h2.079l.4-1.854h2.005L92 321.282h1.553v1.929h-1.954zm-2.004 0h-2.08l-.35 1.641h2.08l.35-1.641zm5.377.789c0-1.436.276-2.568.827-3.394.56-.827 1.457-1.24 2.693-1.24s2.129.413 2.68 1.24c.559.826.839 1.958.839 3.394 0 1.453-.28 2.593-.839 3.419-.551.827-1.444 1.24-2.68 1.24-1.236 0-2.134-.413-2.693-1.24-.551-.826-.827-1.966-.827-3.419zm4.935 0c0-.843-.092-1.491-.276-1.941-.183-.46-.563-.689-1.14-.689-.576 0-.956.229-1.14.689-.183.45-.275 1.098-.275 1.941 0 .568.034 1.04.1 1.415.067.368.2.668.401.902.209.226.514.338.915.338.4 0 .701-.112.901-.338.21-.234.347-.534.414-.902.067-.375.1-.847.1-1.415zm3.674 0c0-1.436.276-2.568.827-3.394.559-.827 1.457-1.24 2.693-1.24s2.129.413 2.68 1.24c.56.826.839 1.958.839 3.394 0 1.453-.279 2.593-.839 3.419-.551.827-1.444 1.24-2.68 1.24-1.236 0-2.134-.413-2.693-1.24-.551-.826-.827-1.966-.827-3.419zm4.935 0c0-.843-.092-1.491-.275-1.941-.184-.46-.564-.689-1.14-.689s-.956.229-1.14.689c-.184.45-.276 1.098-.276 1.941 0 .568.034 1.04.101 1.415.066.368.2.668.4.902.209.226.514.338.915.338s.701-.112.902-.338c.208-.234.346-.534.413-.902.067-.375.1-.847.1-1.415zm3.674 0c0-1.436.276-2.568.827-3.394.559-.827 1.457-1.24 2.693-1.24s2.129.413 2.68 1.24c.56.826.84 1.958.84 3.394 0 1.453-.28 2.593-.84 3.419-.551.827-1.444 1.24-2.68 1.24-1.236 0-2.134-.413-2.693-1.24-.551-.826-.827-1.966-.827-3.419zm4.935 0c0-.843-.092-1.491-.275-1.941-.184-.46-.564-.689-1.14-.689s-.956.229-1.14.689c-.184.45-.275 1.098-.275 1.941 0 .568.033 1.04.1 1.415.067.368.2.668.401.902.208.226.513.338.914.338s.701-.112.902-.338c.209-.234.346-.534.413-.902.067-.375.1-.847.1-1.415zm3.725 3.069v-1.729l3.958-5.661h2.392v5.536h1.027v1.854H127.2v1.628h-2.142v-1.628h-4.208zm4.358-5.035l-2.104 3.181h2.104v-3.181z" fill="#fff"/><g opacity=".5" filter="url(#filter5_f_1_66)"><ellipse cx="71.127" cy="296.165" rx="27.852" ry="7.162" fill="#000"/></g><g opacity=".5" filter="url(#filter6_f_1_66)"><ellipse cx="71.146" cy="259.76" rx="32.005" ry="31.957" fill="url(#paint5_linear_1_66)"/></g><g filter="url(#filter7_dddddd_1_66)"><rect x="37.967" y="225.846" width="68.106" height="68.106" rx="15.265" stroke="#fff" stroke-width=".783"/></g><rect x="34.645" y="343.863" width="73.184" height="19.703" rx="5.428" fill="#23232F"/><path d="M57.06 353.896c.319.068.574.227.767.478.194.245.29.527.29.845 0 .459-.162.825-.485 1.096-.319.266-.765.399-1.339.399h-2.56v-5.495h2.474c.558 0 .994.128 1.307.383.319.256.478.603.478 1.042 0 .323-.086.592-.258.806a1.291 1.291 0 01-.674.446zm-1.988-.454h.877c.219 0 .386-.047.5-.141.12-.099.18-.242.18-.43s-.06-.332-.18-.431c-.114-.099-.281-.149-.5-.149h-.877v1.151zm.986 2.192c.225 0 .397-.05.517-.149.125-.104.188-.253.188-.446a.562.562 0 00-.196-.454c-.125-.11-.3-.164-.524-.164h-.971v1.213h.986zm4.425-4.415v3.288c0 .329.08.582.242.759.162.178.4.266.713.266.313 0 .553-.088.72-.266.167-.177.25-.43.25-.759v-3.288h1.339v3.28c0 .491-.104.905-.313 1.245a2 2 0 01-.845.767 2.63 2.63 0 01-1.175.258c-.433 0-.822-.083-1.166-.25a1.936 1.936 0 01-.806-.768c-.199-.344-.298-.761-.298-1.252v-3.28h1.339zm9.19 0l-1.902 3.679v1.816h-1.338v-1.816l-1.903-3.679h1.52l1.064 2.301 1.057-2.301h1.503zm7.663 5.495h-1.339l-2.238-3.389v3.389h-1.34v-5.495h1.34l2.238 3.405v-3.405h1.34v5.495zm3.843.055a2.89 2.89 0 01-1.424-.36 2.736 2.736 0 01-1.026-1.002 2.855 2.855 0 01-.376-1.456c0-.538.126-1.02.376-1.448a2.736 2.736 0 011.026-1.002 2.89 2.89 0 011.424-.36c.517 0 .99.12 1.417.36.433.24.773.574 1.018 1.002.25.428.376.91.376 1.448 0 .537-.125 1.023-.376 1.456-.25.428-.59.762-1.018 1.002-.428.24-.9.36-1.417.36zm0-1.221c.439 0 .788-.146 1.05-.438.266-.293.399-.679.399-1.159 0-.485-.133-.872-.4-1.159-.26-.292-.61-.438-1.049-.438-.443 0-.798.144-1.064.431-.261.287-.392.675-.392 1.166 0 .485.13.874.392 1.166.266.287.62.431 1.064.431zm11.392-4.329l-1.433 5.495h-1.62l-.877-3.616-.908 3.616h-1.62l-1.394-5.495h1.432l.791 4 .979-4h1.471l.94 4 .798-4h1.44z" fill="#fff"/><rect x="34.645" y="343.863" width="73.184" height="19.703" rx="5.428" stroke="#454558" stroke-width=".402"/></g><g clip-path="url(#clip2_1_66)"><g filter="url(#filter8_d_1_66)" shape-rendering="crispEdges"><rect x="161.263" y="166.233" width="166.233" height="141.987" rx="17.17" transform="rotate(-90 161.263 166.233)" fill="url(#paint6_linear_1_66)"/><rect x="161.549" y="165.947" width="165.66" height="141.414" rx="16.883" transform="rotate(-90 161.549 165.947)" stroke="url(#paint7_linear_1_66)" stroke-opacity=".3" stroke-width=".572"/></g><path d="M184.492 111.672l-3.044 5.887v2.906h-2.141v-2.906l-3.044-5.887h2.43l1.703 3.682 1.691-3.682h2.405zm5.46 8.88a4.626 4.626 0 01-2.28-.576 4.388 4.388 0 01-1.641-1.603c-.4-.693-.601-1.47-.601-2.33 0-.86.201-1.632.601-2.317a4.388 4.388 0 011.641-1.603 4.626 4.626 0 012.28-.576c.827 0 1.582.192 2.267.576a4.168 4.168 0 011.628 1.603c.401.685.601 1.457.601 2.317 0 .86-.2 1.637-.601 2.33a4.283 4.283 0 01-1.628 1.603 4.555 4.555 0 01-2.267.576zm0-1.954c.701 0 1.261-.233 1.678-.701.426-.468.639-1.086.639-1.854 0-.776-.213-1.394-.639-1.854-.417-.467-.977-.701-1.678-.701-.71 0-1.278.23-1.704.689-.417.459-.626 1.081-.626 1.866 0 .777.209 1.399.626 1.866.426.46.994.689 1.704.689zm8.231-6.926v5.261c0 .526.129.931.388 1.214.259.284.639.426 1.14.426.501 0 .885-.142 1.152-.426.267-.283.401-.688.401-1.214v-5.261h2.142v5.248c0 .785-.167 1.449-.501 1.992a3.206 3.206 0 01-1.353 1.227c-.56.276-1.186.413-1.879.413-.693 0-1.315-.133-1.866-.4a3.093 3.093 0 01-1.29-1.228c-.318-.551-.476-1.219-.476-2.004v-5.248h2.142zm11.649 8.793l-1.829-3.32h-.513v3.32h-2.142v-8.793h3.595c.693 0 1.282.121 1.766.363.493.242.86.576 1.102 1.002.242.418.363.885.363 1.403 0 .585-.167 1.106-.501 1.566-.325.459-.81.785-1.453.977l2.029 3.482h-2.417zm-2.342-4.835h1.328c.392 0 .684-.096.876-.288.201-.192.301-.464.301-.814 0-.334-.1-.597-.301-.789-.192-.192-.484-.288-.876-.288h-1.328v2.179zm17.426 4.835h-2.142l-3.582-5.424v5.424h-2.142v-8.793h2.142l3.582 5.448v-5.448h2.142v8.793zm7.715-8.793v1.716h-3.583v1.854h2.681v1.665h-2.681v3.558h-2.141v-8.793h5.724zm7.889 0v1.716h-2.33v7.077h-2.141v-7.077h-2.33v-1.716h6.801zm12.785 3.307l-.351 1.64h1.503v1.929h-1.916l-.413 1.917h-2.004l.413-1.917h-2.079l-.414 1.917h-2.004l.414-1.917H244.6v-1.929h2.267l.351-1.64h-1.816v-1.929h2.217l.4-1.854h2.004l-.4 1.854h2.079l.401-1.854h2.004l-.401 1.854h1.553v1.929h-1.954zm-2.004 0h-2.079l-.351 1.64h2.079l.351-1.64zm5.377.789c0-1.437.276-2.568.827-3.395.559-.826 1.457-1.24 2.693-1.24 1.235 0 2.129.414 2.68 1.24.559.827.839 1.958.839 3.395 0 1.453-.28 2.592-.839 3.419-.551.827-1.445 1.24-2.68 1.24-1.236 0-2.134-.413-2.693-1.24-.551-.827-.827-1.966-.827-3.419zm4.935 0c0-.844-.092-1.491-.276-1.942-.183-.459-.563-.689-1.139-.689-.577 0-.957.23-1.14.689-.184.451-.276 1.098-.276 1.942 0 .567.034 1.039.1 1.415.067.367.201.668.401.902.209.225.514.338.915.338.4 0 .701-.113.901-.338.209-.234.347-.535.414-.902.067-.376.1-.848.1-1.415zm3.674 0c0-1.437.276-2.568.827-3.395.559-.826 1.457-1.24 2.693-1.24s2.129.414 2.68 1.24c.56.827.839 1.958.839 3.395 0 1.453-.279 2.592-.839 3.419-.551.827-1.444 1.24-2.68 1.24-1.236 0-2.134-.413-2.693-1.24-.551-.827-.827-1.966-.827-3.419zm4.935 0c0-.844-.092-1.491-.275-1.942-.184-.459-.564-.689-1.14-.689s-.956.23-1.14.689c-.184.451-.276 1.098-.276 1.942 0 .567.034 1.039.101 1.415.066.367.2.668.4.902.209.225.514.338.915.338s.701-.113.902-.338c.208-.234.346-.535.413-.902.067-.376.1-.848.1-1.415zm3.674 0c0-1.437.276-2.568.827-3.395.559-.826 1.457-1.24 2.693-1.24s2.129.414 2.68 1.24c.56.827.839 1.958.839 3.395 0 1.453-.279 2.592-.839 3.419-.551.827-1.444 1.24-2.68 1.24-1.236 0-2.134-.413-2.693-1.24-.551-.827-.827-1.966-.827-3.419zm4.935 0c0-.844-.092-1.491-.275-1.942-.184-.459-.564-.689-1.14-.689s-.956.23-1.14.689c-.184.451-.275 1.098-.275 1.942 0 .567.033 1.039.1 1.415.067.367.2.668.401.902.208.225.513.338.914.338s.701-.113.902-.338c.208-.234.346-.535.413-.902.067-.376.1-.848.1-1.415zm3.599 2.981a46.702 46.702 0 002.317-1.979c.476-.435.877-.89 1.203-1.366.326-.476.488-.939.488-1.39 0-.342-.079-.609-.238-.801-.158-.193-.396-.289-.714-.289a.893.893 0 00-.751.364c-.175.233-.263.567-.263 1.002h-2.067c.017-.71.167-1.303.451-1.779a2.696 2.696 0 011.14-1.052 3.646 3.646 0 011.578-.338c.994 0 1.741.254 2.242.764.51.509.764 1.173.764 1.991 0 .894-.305 1.725-.914 2.493-.61.76-1.386 1.503-2.33 2.229h3.382v1.741h-6.288v-1.59z" fill="#fff"/><g opacity=".5" filter="url(#filter9_f_1_66)"><ellipse cx="232.39" cy="87.932" rx="27.852" ry="7.162" fill="#000"/></g><g opacity=".5" filter="url(#filter10_f_1_66)"><ellipse cx="232.409" cy="51.528" rx="32.005" ry="31.957" fill="url(#paint8_linear_1_66)"/></g><g filter="url(#filter11_dddddd_1_66)"><rect x="199.23" y="17.614" width="68.106" height="68.106" rx="15.265" stroke="#fff" stroke-width=".783"/></g><rect x="195.908" y="135.63" width="73.184" height="19.703" rx="5.428" fill="#23232F"/><path d="M218.323 145.664c.318.068.574.227.767.477.193.246.29.527.29.846 0 .459-.162.824-.486 1.096-.318.266-.764.399-1.338.399h-2.56v-5.495h2.474c.558 0 .994.127 1.307.383.318.256.477.603.477 1.041 0 .324-.086.593-.258.807a1.296 1.296 0 01-.673.446zm-1.988-.454h.876c.219 0 .386-.047.501-.141.12-.099.18-.243.18-.431s-.06-.331-.18-.43c-.115-.099-.282-.149-.501-.149h-.876v1.151zm.986 2.192c.224 0 .397-.05.517-.149.125-.104.187-.253.187-.446a.561.561 0 00-.195-.454c-.126-.11-.3-.165-.525-.165h-.97v1.214h.986zm4.424-4.415v3.287c0 .329.081.582.243.76.162.177.399.266.712.266.313 0 .554-.089.721-.266.167-.178.25-.431.25-.76v-3.287h1.339v3.28c0 .49-.105.905-.313 1.244-.209.34-.491.595-.846.767-.35.173-.741.259-1.174.259-.433 0-.822-.084-1.167-.251a1.932 1.932 0 01-.806-.767c-.198-.344-.297-.762-.297-1.252v-3.28h1.338zm9.191 0l-1.902 3.679v1.816h-1.339v-1.816l-1.902-3.679h1.519l1.064 2.301 1.057-2.301h1.503zm7.663 5.495h-1.339l-2.239-3.39v3.39h-1.338v-5.495h1.338l2.239 3.405v-3.405h1.339v5.495zm3.843.055a2.89 2.89 0 01-1.425-.36 2.737 2.737 0 01-1.025-1.002 2.851 2.851 0 01-.376-1.456c0-.538.125-1.021.376-1.449a2.737 2.737 0 011.025-1.002 2.89 2.89 0 011.425-.36c.517 0 .989.12 1.417.36.433.24.772.574 1.018 1.002.25.428.375.911.375 1.449a2.86 2.86 0 01-.375 1.456c-.251.428-.59.762-1.018 1.002-.428.24-.9.36-1.417.36zm0-1.221c.438 0 .788-.147 1.049-.439.266-.292.399-.678.399-1.158 0-.486-.133-.872-.399-1.159-.261-.292-.611-.438-1.049-.438-.444 0-.798.143-1.065.43-.261.287-.391.676-.391 1.167 0 .485.13.874.391 1.166.267.287.621.431 1.065.431zm11.391-4.329l-1.432 5.495h-1.621l-.877-3.617-.908 3.617h-1.62l-1.394-5.495h1.433l.791 4 .978-4h1.472l.939 4 .799-4h1.44z" fill="#fff"/><rect x="195.908" y="135.63" width="73.184" height="19.703" rx="5.428" stroke="#454558" stroke-width=".402"/></g><g clip-path="url(#clip3_1_66)"><g filter="url(#filter12_d_1_66)" shape-rendering="crispEdges"><rect x="161.263" y="347.066" width="166.233" height="141.987" rx="17.17" transform="rotate(-90 161.263 347.066)" fill="url(#paint9_linear_1_66)"/><rect x="161.549" y="346.78" width="165.66" height="141.414" rx="16.883" transform="rotate(-90 161.549 346.78)" stroke="url(#paint10_linear_1_66)" stroke-opacity=".3" stroke-width=".572"/></g><path d="M183.714 292.505l-3.044 5.887v2.906h-2.142v-2.906l-3.043-5.887h2.43l1.703 3.683 1.691-3.683h2.405zm5.46 8.881a4.616 4.616 0 01-2.28-.577 4.374 4.374 0 01-1.641-1.603c-.401-.693-.601-1.469-.601-2.329 0-.861.2-1.633.601-2.318a4.381 4.381 0 011.641-1.603 4.626 4.626 0 012.28-.576c.826 0 1.582.192 2.267.576a4.174 4.174 0 011.628 1.603c.401.685.601 1.457.601 2.318 0 .86-.2 1.636-.601 2.329a4.29 4.29 0 01-1.628 1.603 4.548 4.548 0 01-2.267.577zm0-1.954c.701 0 1.261-.234 1.678-.702.426-.467.639-1.085.639-1.853 0-.777-.213-1.395-.639-1.854-.417-.468-.977-.702-1.678-.702-.71 0-1.278.23-1.704.689-.417.46-.626 1.082-.626 1.867 0 .776.209 1.398.626 1.866.426.459.994.689 1.704.689zm8.23-6.927v5.261c0 .526.13.931.389 1.215.259.284.638.426 1.139.426.502 0 .886-.142 1.153-.426.267-.284.401-.689.401-1.215v-5.261h2.141v5.248c0 .785-.167 1.449-.501 1.992a3.19 3.19 0 01-1.352 1.227c-.56.276-1.186.414-1.879.414-.693 0-1.315-.134-1.866-.401a3.093 3.093 0 01-1.29-1.228c-.318-.551-.476-1.219-.476-2.004v-5.248h2.141zm11.65 8.793l-1.829-3.319h-.513v3.319h-2.142v-8.793h3.595c.693 0 1.281.121 1.766.363.492.243.86.577 1.102 1.003.242.417.363.885.363 1.402 0 .585-.167 1.107-.501 1.566-.326.459-.81.785-1.453.977l2.029 3.482h-2.417zm-2.342-4.835h1.327c.393 0 .685-.096.877-.288.201-.192.301-.463.301-.814 0-.334-.1-.597-.301-.789-.192-.192-.484-.288-.877-.288h-1.327v2.179zm17.426 4.835h-2.142l-3.583-5.423v5.423h-2.141v-8.793h2.141l3.583 5.449v-5.449h2.142v8.793zm7.714-8.793v1.716h-3.582v1.854h2.681v1.666h-2.681v3.557h-2.142v-8.793h5.724zm7.89 0v1.716h-2.33v7.077h-2.142v-7.077h-2.329v-1.716h6.801zm12.785 3.307l-.351 1.641h1.503v1.929h-1.916l-.414 1.916h-2.004l.414-1.916h-2.08l-.413 1.916h-2.004l.413-1.916h-1.853v-1.929h2.267l.35-1.641h-1.816v-1.929h2.217l.401-1.854h2.004l-.401 1.854h2.08l.4-1.854h2.004l-.4 1.854h1.553v1.929h-1.954zm-2.004 0h-2.079l-.351 1.641h2.079l.351-1.641zm5.377.789c0-1.436.275-2.568.826-3.394.56-.827 1.458-1.24 2.693-1.24 1.236 0 2.13.413 2.681 1.24.559.826.839 1.958.839 3.394 0 1.453-.28 2.593-.839 3.419-.551.827-1.445 1.24-2.681 1.24-1.235 0-2.133-.413-2.693-1.24-.551-.826-.826-1.966-.826-3.419zm4.935 0c0-.843-.092-1.49-.276-1.941-.184-.46-.563-.689-1.14-.689-.576 0-.956.229-1.139.689-.184.451-.276 1.098-.276 1.941 0 .568.033 1.04.1 1.415.067.368.201.668.401.902.209.226.514.338.914.338.401 0 .702-.112.902-.338.209-.234.347-.534.414-.902.066-.375.1-.847.1-1.415zm3.674 0c0-1.436.275-2.568.827-3.394.559-.827 1.457-1.24 2.693-1.24 1.235 0 2.129.413 2.68 1.24.559.826.839 1.958.839 3.394 0 1.453-.28 2.593-.839 3.419-.551.827-1.445 1.24-2.68 1.24-1.236 0-2.134-.413-2.693-1.24-.552-.826-.827-1.966-.827-3.419zm4.935 0c0-.843-.092-1.49-.276-1.941-.183-.46-.563-.689-1.139-.689-.577 0-.957.229-1.14.689-.184.451-.276 1.098-.276 1.941 0 .568.034 1.04.1 1.415.067.368.201.668.401.902.209.226.514.338.915.338.4 0 .701-.112.901-.338.209-.234.347-.534.414-.902.066-.375.1-.847.1-1.415zm3.674 0c0-1.436.276-2.568.827-3.394.559-.827 1.457-1.24 2.693-1.24s2.129.413 2.68 1.24c.56.826.839 1.958.839 3.394 0 1.453-.279 2.593-.839 3.419-.551.827-1.444 1.24-2.68 1.24-1.236 0-2.134-.413-2.693-1.24-.551-.826-.827-1.966-.827-3.419zm4.935 0c0-.843-.092-1.49-.276-1.941-.183-.46-.563-.689-1.139-.689-.576 0-.956.229-1.14.689-.184.451-.276 1.098-.276 1.941 0 .568.034 1.04.101 1.415.066.368.2.668.4.902.209.226.514.338.915.338.4 0 .701-.112.902-.338.208-.234.346-.534.413-.902.067-.375.1-.847.1-1.415zm10.112-2.58h-3.908v1.728c.167-.183.401-.334.702-.451.3-.117.626-.175.977-.175.626 0 1.144.142 1.553.426.417.284.722.651.914 1.102.192.451.288.94.288 1.466 0 .977-.275 1.753-.826 2.329-.551.568-1.328.852-2.33.852-.668 0-1.248-.113-1.741-.338-.493-.234-.873-.555-1.14-.965a2.776 2.776 0 01-.438-1.415h2.091c.051.259.172.476.364.651.192.167.455.251.789.251.392 0 .684-.125.877-.376.192-.25.288-.584.288-1.002 0-.409-.101-.722-.301-.939-.2-.217-.493-.326-.877-.326-.284 0-.517.071-.701.213a.932.932 0 00-.363.539h-2.067v-5.449h5.849v1.879z" fill="#fff"/><g opacity=".5" filter="url(#filter13_f_1_66)"><ellipse cx="232.39" cy="268.766" rx="27.852" ry="7.162" fill="#000"/></g><g opacity=".5" filter="url(#filter14_f_1_66)"><ellipse cx="232.409" cy="232.361" rx="32.005" ry="31.957" fill="url(#paint11_linear_1_66)"/></g><g filter="url(#filter15_dddddd_1_66)"><rect x="199.23" y="198.447" width="68.106" height="68.106" rx="15.265" stroke="#fff" stroke-width=".783"/></g><rect x="195.908" y="316.464" width="73.184" height="19.703" rx="5.428" fill="#23232F"/><path d="M218.323 326.497c.318.068.574.227.767.478.193.245.29.527.29.845 0 .459-.162.825-.486 1.096-.318.266-.764.399-1.338.399h-2.56v-5.495h2.474c.558 0 .994.128 1.307.383.318.256.477.603.477 1.042 0 .323-.086.592-.258.806a1.29 1.29 0 01-.673.446zm-1.988-.454h.876c.219 0 .386-.047.501-.141.12-.099.18-.242.18-.43s-.06-.332-.18-.431c-.115-.099-.282-.149-.501-.149h-.876v1.151zm.986 2.192c.224 0 .397-.05.517-.149.125-.104.187-.253.187-.446a.563.563 0 00-.195-.454c-.126-.11-.3-.164-.525-.164h-.97v1.213h.986zm4.424-4.415v3.288c0 .329.081.582.243.759.162.178.399.266.712.266.313 0 .554-.088.721-.266.167-.177.25-.43.25-.759v-3.288h1.339v3.28c0 .491-.105.905-.313 1.245a2.001 2.001 0 01-.846.767c-.35.172-.741.258-1.174.258-.433 0-.822-.083-1.167-.25a1.934 1.934 0 01-.806-.768c-.198-.344-.297-.761-.297-1.252v-3.28h1.338zm9.191 0l-1.902 3.679v1.816h-1.339v-1.816l-1.902-3.679h1.519l1.064 2.301 1.057-2.301h1.503zm7.663 5.495h-1.339l-2.239-3.389v3.389h-1.338v-5.495h1.338l2.239 3.405v-3.405h1.339v5.495zm3.843.055a2.89 2.89 0 01-1.425-.36 2.737 2.737 0 01-1.025-1.002 2.851 2.851 0 01-.376-1.456c0-.538.125-1.02.376-1.448a2.737 2.737 0 011.025-1.002 2.89 2.89 0 011.425-.36c.517 0 .989.12 1.417.36.433.24.772.574 1.018 1.002.25.428.375.91.375 1.448a2.86 2.86 0 01-.375 1.456c-.251.428-.59.762-1.018 1.002-.428.24-.9.36-1.417.36zm0-1.221c.438 0 .788-.146 1.049-.438.266-.293.399-.679.399-1.159 0-.485-.133-.872-.399-1.159-.261-.292-.611-.438-1.049-.438-.444 0-.798.144-1.065.431-.261.287-.391.675-.391 1.166 0 .485.13.874.391 1.166.267.287.621.431 1.065.431zm11.391-4.329l-1.432 5.495h-1.621l-.877-3.616-.908 3.616h-1.62l-1.394-5.495h1.433l.791 4 .978-4h1.472l.939 4 .799-4h1.44z" fill="#fff"/><rect x="195.908" y="316.464" width="73.184" height="19.703" rx="5.428" stroke="#454558" stroke-width=".402"/></g><g clip-path="url(#clip4_1_66)"><g filter="url(#filter16_d_1_66)" shape-rendering="crispEdges"><rect x="322.525" y="193.632" width="166.233" height="141.987" rx="17.17" transform="rotate(-90 322.525 193.632)" fill="url(#paint12_linear_1_66)"/><rect x="322.811" y="193.346" width="165.66" height="141.414" rx="16.883" transform="rotate(-90 322.811 193.346)" stroke="url(#paint13_linear_1_66)" stroke-opacity=".3" stroke-width=".572"/></g><path d="M346.041 139.071l-3.044 5.887v2.906h-2.142v-2.906l-3.043-5.887h2.43l1.703 3.682 1.691-3.682h2.405zm5.459 8.88a4.625 4.625 0 01-2.279-.576 4.374 4.374 0 01-1.641-1.603c-.401-.693-.601-1.47-.601-2.33 0-.86.2-1.632.601-2.317a4.374 4.374 0 011.641-1.603 4.625 4.625 0 012.279-.576c.827 0 1.583.192 2.268.576a4.174 4.174 0 011.628 1.603c.401.685.601 1.457.601 2.317 0 .86-.2 1.637-.601 2.33a4.29 4.29 0 01-1.628 1.603 4.559 4.559 0 01-2.268.576zm0-1.954c.702 0 1.261-.233 1.679-.701.426-.468.639-1.086.639-1.854 0-.776-.213-1.394-.639-1.854-.418-.467-.977-.701-1.679-.701-.709 0-1.277.23-1.703.689-.418.459-.626 1.081-.626 1.866 0 .777.208 1.399.626 1.866.426.46.994.689 1.703.689zm8.231-6.926v5.261c0 .526.13.931.388 1.214.259.284.639.426 1.14.426.501 0 .885-.142 1.153-.426.267-.283.4-.688.4-1.214v-5.261h2.142v5.248c0 .785-.167 1.449-.501 1.992a3.206 3.206 0 01-1.353 1.227c-.559.276-1.185.413-1.878.413-.693 0-1.315-.133-1.867-.4a3.105 3.105 0 01-1.29-1.228c-.317-.551-.476-1.219-.476-2.004v-5.248h2.142zm11.65 8.793l-1.829-3.32h-.514v3.32h-2.141v-8.793h3.594c.693 0 1.282.121 1.766.363.493.242.86.576 1.103 1.002.242.418.363.885.363 1.403 0 .585-.167 1.106-.501 1.566-.326.459-.81.785-1.453.977l2.029 3.482h-2.417zm-2.343-4.835h1.328c.393 0 .685-.096.877-.288.2-.192.3-.464.3-.814 0-.334-.1-.597-.3-.789-.192-.192-.484-.289-.877-.289h-1.328v2.18zm17.426 4.835h-2.142l-3.582-5.424v5.424h-2.142v-8.793h2.142l3.582 5.448v-5.448h2.142v8.793zm7.715-8.793v1.716h-3.582v1.854h2.68v1.665h-2.68v3.558h-2.142v-8.793h5.724zm7.89 0v1.716h-2.33v7.077h-2.142v-7.077h-2.33v-1.716h6.802zm12.785 3.307l-.351 1.64h1.503v1.929h-1.916l-.414 1.917h-2.004l.413-1.917h-2.079l-.413 1.917h-2.004l.413-1.917h-1.853v-1.929h2.267l.35-1.64h-1.816v-1.929h2.217l.401-1.854h2.004l-.401 1.854h2.079l.401-1.854h2.004l-.401 1.854h1.553v1.929h-1.953zm-2.004 0h-2.08l-.35 1.64h2.079l.351-1.64zm5.377.789c0-1.437.275-2.568.826-3.395.56-.826 1.457-1.24 2.693-1.24s2.129.414 2.681 1.24c.559.827.839 1.958.839 3.395 0 1.453-.28 2.592-.839 3.419-.552.827-1.445 1.24-2.681 1.24s-2.133-.413-2.693-1.24c-.551-.827-.826-1.966-.826-3.419zm4.935 0c0-.844-.092-1.491-.276-1.942-.184-.459-.564-.689-1.14-.689s-.956.23-1.14.689c-.183.451-.275 1.098-.275 1.942 0 .567.033 1.039.1 1.415.067.367.2.668.401.902.209.225.513.338.914.338s.702-.113.902-.338c.209-.234.347-.535.413-.902.067-.376.101-.848.101-1.415zm3.674 0c0-1.437.275-2.568.826-3.395.56-.826 1.457-1.24 2.693-1.24s2.13.414 2.681 1.24c.559.827.839 1.958.839 3.395 0 1.453-.28 2.592-.839 3.419-.551.827-1.445 1.24-2.681 1.24s-2.133-.413-2.693-1.24c-.551-.827-.826-1.966-.826-3.419zm4.935 0c0-.844-.092-1.491-.276-1.942-.184-.459-.564-.689-1.14-.689s-.956.23-1.139.689c-.184.451-.276 1.098-.276 1.942 0 .567.033 1.039.1 1.415.067.367.201.668.401.902.209.225.514.338.914.338.401 0 .702-.113.902-.338.209-.234.347-.535.413-.902.067-.376.101-.848.101-1.415zm3.674 0c0-1.437.275-2.568.827-3.395.559-.826 1.457-1.24 2.692-1.24 1.236 0 2.13.414 2.681 1.24.559.827.839 1.958.839 3.395 0 1.453-.28 2.592-.839 3.419-.551.827-1.445 1.24-2.681 1.24-1.235 0-2.133-.413-2.692-1.24-.552-.827-.827-1.966-.827-3.419zm4.935 0c0-.844-.092-1.491-.276-1.942-.183-.459-.563-.689-1.14-.689-.576 0-.956.23-1.139.689-.184.451-.276 1.098-.276 1.942 0 .567.034 1.039.1 1.415.067.367.201.668.401.902.209.225.514.338.914.338.401 0 .702-.113.902-.338.209-.234.347-.535.414-.902.066-.376.1-.848.1-1.415zm3.749-1.867c.034-.893.326-1.582.877-2.066.551-.485 1.298-.727 2.242-.727.626 0 1.161.109 1.603.326.451.217.789.513 1.015.889.234.376.35.798.35 1.265 0 .551-.137 1.002-.413 1.353a2.103 2.103 0 01-.964.701v.051c.476.158.851.421 1.127.789.275.367.413.839.413 1.415 0 .518-.121.977-.363 1.378-.234.392-.58.701-1.04.927-.45.225-.989.338-1.615.338-1.002 0-1.804-.247-2.405-.739-.593-.493-.906-1.236-.94-2.23h2.08c.008.368.112.66.313.877.2.209.492.313.877.313.325 0 .576-.092.751-.275.184-.192.276-.443.276-.752 0-.401-.13-.689-.389-.864-.25-.184-.655-.276-1.215-.276h-.4v-1.741h.4c.426 0 .769-.071 1.027-.213.268-.15.401-.413.401-.789 0-.3-.083-.534-.25-.701-.167-.167-.397-.251-.689-.251-.317 0-.555.096-.714.288-.15.193-.238.431-.263.714h-2.092z" fill="#fff"/><g opacity=".5" filter="url(#filter17_f_1_66)"><ellipse cx="393.652" cy="115.331" rx="27.852" ry="7.162" fill="#000"/></g><g opacity=".5" filter="url(#filter18_f_1_66)"><ellipse cx="393.671" cy="78.927" rx="32.005" ry="31.957" fill="url(#paint14_linear_1_66)"/></g><g filter="url(#filter19_dddddd_1_66)"><rect x="360.492" y="45.013" width="68.106" height="68.106" rx="15.265" stroke="#fff" stroke-width=".783"/></g><rect x="357.171" y="163.029" width="73.184" height="19.703" rx="5.428" fill="#23232F"/><path d="M379.586 173.063c.318.068.574.227.767.477.193.246.289.527.289.846 0 .459-.161.824-.485 1.096-.318.266-.765.399-1.339.399h-2.559v-5.495h2.473c.559 0 .994.127 1.308.383.318.256.477.603.477 1.041 0 .324-.086.593-.258.807a1.3 1.3 0 01-.673.446zm-1.989-.454h.877c.219 0 .386-.047.501-.141.12-.099.18-.243.18-.431s-.06-.331-.18-.43c-.115-.099-.282-.149-.501-.149h-.877v1.151zm.987 2.192c.224 0 .396-.05.516-.149.125-.104.188-.253.188-.446a.559.559 0 00-.196-.454c-.125-.11-.3-.165-.524-.165h-.971v1.214h.987zm4.424-4.415v3.287c0 .329.081.582.243.76.161.177.399.266.712.266.313 0 .553-.089.72-.266.167-.178.251-.431.251-.76v-3.287h1.338v3.28c0 .49-.104.905-.313 1.244-.209.34-.49.595-.845.767-.35.173-.741.259-1.175.259-.433 0-.822-.084-1.166-.251a1.932 1.932 0 01-.806-.767c-.199-.344-.298-.762-.298-1.252v-3.28h1.339zm9.191 0l-1.902 3.679v1.816h-1.339v-1.816l-1.902-3.679h1.518l1.065 2.301 1.057-2.301h1.503zm7.662 5.495h-1.338l-2.239-3.39v3.39h-1.339v-5.495h1.339l2.239 3.405v-3.405h1.338v5.495zm3.844.055a2.89 2.89 0 01-1.425-.36 2.74 2.74 0 01-1.026-1.002 2.86 2.86 0 01-.375-1.456c0-.538.125-1.021.375-1.449a2.74 2.74 0 011.026-1.002 2.89 2.89 0 011.425-.36c.516 0 .989.12 1.417.36.433.24.772.574 1.017 1.002.251.428.376.911.376 1.449 0 .537-.125 1.023-.376 1.456-.25.428-.589.762-1.017 1.002a2.85 2.85 0 01-1.417.36zm0-1.221c.438 0 .788-.147 1.049-.439.266-.292.399-.678.399-1.158 0-.486-.133-.872-.399-1.159-.261-.292-.611-.438-1.049-.438-.444 0-.799.143-1.065.43-.261.287-.391.676-.391 1.167 0 .485.13.874.391 1.166.266.287.621.431 1.065.431zm11.391-4.329l-1.433 5.495h-1.62l-.877-3.617-.908 3.617h-1.62l-1.394-5.495h1.433l.79 4 .979-4h1.472l.939 4 .798-4h1.441z" fill="#fff"/><rect x="357.171" y="163.029" width="73.184" height="19.703" rx="5.428" stroke="#454558" stroke-width=".402"/></g><g clip-path="url(#clip5_1_66)"><g filter="url(#filter20_d_1_66)" shape-rendering="crispEdges"><rect x="322.525" y="374.465" width="166.233" height="141.987" rx="17.17" transform="rotate(-90 322.525 374.465)" fill="url(#paint15_linear_1_66)"/><rect x="322.811" y="374.179" width="165.66" height="141.414" rx="16.883" transform="rotate(-90 322.811 374.179)" stroke="url(#paint16_linear_1_66)" stroke-opacity=".3" stroke-width=".572"/></g><path d="M345.062 319.904l-3.043 5.887v2.906h-2.142v-2.906l-3.044-5.887h2.43l1.703 3.683 1.691-3.683h2.405zm5.46 8.881a4.616 4.616 0 01-2.28-.577 4.379 4.379 0 01-1.64-1.603c-.401-.693-.602-1.469-.602-2.329 0-.861.201-1.633.602-2.318a4.386 4.386 0 011.64-1.603 4.626 4.626 0 012.28-.576c.827 0 1.582.192 2.267.576a4.174 4.174 0 011.628 1.603c.401.685.601 1.457.601 2.318 0 .86-.2 1.636-.601 2.329a4.283 4.283 0 01-1.628 1.603 4.545 4.545 0 01-2.267.577zm0-1.954c.701 0 1.261-.234 1.678-.702.426-.467.639-1.085.639-1.853 0-.777-.213-1.395-.639-1.854-.417-.468-.977-.702-1.678-.702-.71 0-1.278.23-1.704.689-.417.46-.626 1.082-.626 1.867 0 .776.209 1.398.626 1.866.426.459.994.689 1.704.689zm8.231-6.927v5.261c0 .526.129.931.388 1.215.259.284.639.426 1.14.426.501 0 .885-.142 1.152-.426.267-.284.401-.689.401-1.215v-5.261h2.142v5.248c0 .785-.167 1.449-.501 1.992a3.193 3.193 0 01-1.353 1.227c-.56.276-1.186.414-1.879.414-.693 0-1.315-.134-1.866-.401a3.093 3.093 0 01-1.29-1.228c-.318-.551-.476-1.219-.476-2.004v-5.248h2.142zm11.649 8.793l-1.829-3.319h-.513v3.319h-2.142v-8.793h3.595c.693 0 1.282.121 1.766.363.493.243.86.577 1.102 1.002.242.418.363.886.363 1.403 0 .585-.167 1.107-.501 1.566-.325.459-.81.785-1.453.977l2.03 3.482h-2.418zm-2.342-4.835h1.328c.392 0 .684-.096.876-.288.201-.192.301-.463.301-.814 0-.334-.1-.597-.301-.789-.192-.192-.484-.288-.876-.288h-1.328v2.179zm17.426 4.835h-2.142l-3.582-5.423v5.423h-2.142v-8.793h2.142l3.582 5.449v-5.449h2.142v8.793zm7.715-8.793v1.716h-3.582v1.854h2.68v1.666h-2.68v3.557h-2.142v-8.793h5.724zm7.889 0v1.716h-2.33v7.077h-2.141v-7.077h-2.33v-1.716h6.801zm12.785 3.307l-.351 1.641h1.503v1.929h-1.916l-.413 1.916h-2.004l.413-1.916h-2.079l-.414 1.916h-2.004l.414-1.916h-1.854v-1.929h2.267l.351-1.641h-1.816v-1.929h2.217l.4-1.854h2.004l-.4 1.854h2.079l.401-1.854h2.004l-.401 1.854h1.553v1.929h-1.954zm-2.004 0h-2.079l-.351 1.641h2.079l.351-1.641zm5.377.789c0-1.436.276-2.568.827-3.394.559-.827 1.457-1.24 2.693-1.24 1.235 0 2.129.413 2.68 1.24.56.826.839 1.958.839 3.394 0 1.453-.279 2.593-.839 3.419-.551.827-1.445 1.24-2.68 1.24-1.236 0-2.134-.413-2.693-1.24-.551-.826-.827-1.966-.827-3.419zm4.935 0c0-.843-.092-1.491-.276-1.941-.183-.46-.563-.689-1.139-.689-.577 0-.956.229-1.14.689-.184.45-.276 1.098-.276 1.941 0 .568.034 1.04.1 1.415.067.368.201.668.401.902.209.226.514.338.915.338.4 0 .701-.112.901-.338.209-.234.347-.534.414-.902.067-.375.1-.847.1-1.415zm3.674 0c0-1.436.276-2.568.827-3.394.559-.827 1.457-1.24 2.693-1.24s2.129.413 2.68 1.24c.56.826.839 1.958.839 3.394 0 1.453-.279 2.593-.839 3.419-.551.827-1.444 1.24-2.68 1.24-1.236 0-2.134-.413-2.693-1.24-.551-.826-.827-1.966-.827-3.419zm4.935 0c0-.843-.092-1.491-.275-1.941-.184-.46-.564-.689-1.14-.689s-.956.229-1.14.689c-.184.45-.276 1.098-.276 1.941 0 .568.034 1.04.101 1.415.066.368.2.668.4.902.209.226.514.338.915.338s.701-.112.902-.338c.208-.234.346-.534.413-.902.067-.375.1-.847.1-1.415zm3.674 0c0-1.436.276-2.568.827-3.394.559-.827 1.457-1.24 2.693-1.24s2.129.413 2.68 1.24c.56.826.84 1.958.84 3.394 0 1.453-.28 2.593-.84 3.419-.551.827-1.444 1.24-2.68 1.24-1.236 0-2.134-.413-2.693-1.24-.551-.826-.827-1.966-.827-3.419zm4.935 0c0-.843-.092-1.491-.275-1.941-.184-.46-.564-.689-1.14-.689s-.956.229-1.14.689c-.184.45-.275 1.098-.275 1.941 0 .568.033 1.04.1 1.415.067.368.2.668.401.902.208.226.513.338.914.338s.701-.112.902-.338c.209-.234.346-.534.413-.902.067-.375.1-.847.1-1.415zm8.196-1.979c-.067-.309-.184-.539-.351-.689-.167-.159-.405-.238-.714-.238-.475 0-.818.209-1.027.626-.208.41-.317 1.061-.325 1.954a1.87 1.87 0 01.789-.689c.351-.167.735-.25 1.152-.25.818 0 1.474.259 1.967.777.501.517.751 1.24.751 2.166 0 .61-.125 1.144-.376 1.604a2.577 2.577 0 01-1.077 1.077c-.467.259-1.023.388-1.666.388-1.286 0-2.179-.401-2.68-1.202-.501-.81-.752-1.971-.752-3.482 0-1.587.263-2.764.79-3.532.534-.777 1.386-1.165 2.555-1.165.626 0 1.152.125 1.578.375.434.243.76.564.977.965.225.401.359.839.401 1.315h-1.992zm-.989 2.405c-.359 0-.66.108-.902.326-.234.208-.351.509-.351.901 0 .401.109.714.326.94.225.225.543.338.952.338.367 0 .655-.109.864-.326.217-.225.326-.53.326-.914 0-.393-.105-.702-.314-.927-.208-.225-.509-.338-.901-.338z" fill="#fff"/><g opacity=".5" filter="url(#filter21_f_1_66)"><ellipse cx="393.652" cy="296.165" rx="27.852" ry="7.162" fill="#000"/></g><g opacity=".5" filter="url(#filter22_f_1_66)"><ellipse cx="393.671" cy="259.76" rx="32.005" ry="31.957" fill="url(#paint17_linear_1_66)"/></g><g filter="url(#filter23_dddddd_1_66)"><rect x="360.492" y="225.846" width="68.106" height="68.106" rx="15.265" stroke="#fff" stroke-width=".783"/></g><rect x="357.171" y="343.863" width="73.184" height="19.703" rx="5.428" fill="#23232F"/><path d="M379.586 353.896c.318.068.574.227.767.478.193.245.289.527.289.845 0 .459-.161.825-.485 1.096-.318.266-.765.399-1.339.399h-2.559v-5.495h2.473c.559 0 .994.128 1.308.383.318.256.477.603.477 1.042 0 .323-.086.592-.258.806a1.294 1.294 0 01-.673.446zm-1.989-.454h.877c.219 0 .386-.047.501-.141.12-.099.18-.242.18-.43s-.06-.332-.18-.431c-.115-.099-.282-.149-.501-.149h-.877v1.151zm.987 2.192c.224 0 .396-.05.516-.149.125-.104.188-.253.188-.446a.56.56 0 00-.196-.454c-.125-.11-.3-.164-.524-.164h-.971v1.213h.987zm4.424-4.415v3.288c0 .329.081.582.243.759.161.178.399.266.712.266.313 0 .553-.088.72-.266.167-.177.251-.43.251-.759v-3.288h1.338v3.28c0 .491-.104.905-.313 1.245-.209.339-.49.595-.845.767-.35.172-.741.258-1.175.258-.433 0-.822-.083-1.166-.25a1.934 1.934 0 01-.806-.768c-.199-.344-.298-.761-.298-1.252v-3.28h1.339zm9.191 0l-1.902 3.679v1.816h-1.339v-1.816l-1.902-3.679h1.518l1.065 2.301 1.057-2.301h1.503zm7.662 5.495h-1.338l-2.239-3.389v3.389h-1.339v-5.495h1.339l2.239 3.405v-3.405h1.338v5.495zm3.844.055a2.89 2.89 0 01-1.425-.36 2.74 2.74 0 01-1.026-1.002 2.86 2.86 0 01-.375-1.456c0-.538.125-1.02.375-1.448a2.74 2.74 0 011.026-1.002 2.89 2.89 0 011.425-.36c.516 0 .989.12 1.417.36.433.24.772.574 1.017 1.002.251.428.376.91.376 1.448 0 .537-.125 1.023-.376 1.456-.25.428-.589.762-1.017 1.002a2.85 2.85 0 01-1.417.36zm0-1.221c.438 0 .788-.146 1.049-.438.266-.293.399-.679.399-1.159 0-.485-.133-.872-.399-1.159-.261-.292-.611-.438-1.049-.438-.444 0-.799.144-1.065.431-.261.287-.391.675-.391 1.166 0 .485.13.874.391 1.166.266.287.621.431 1.065.431zm11.391-4.329l-1.433 5.495h-1.62l-.877-3.616-.908 3.616h-1.62l-1.394-5.495h1.433l.79 4 .979-4h1.472l.939 4 .798-4h1.441z" fill="#fff"/><rect x="357.171" y="343.863" width="73.184" height="19.703" rx="5.428" stroke="#454558" stroke-width=".402"/></g><defs><filter id="filter0_d_1_66" x="-25.754" y="3.934" width="193.496" height="217.742" filterUnits="userSpaceOnUse" color-interpolation-filters="sRGB"><feFlood flood-opacity="0" result="BackgroundImageFix"/><feColorMatrix in="SourceAlpha" values="0 0 0 0 0 0 0 0 0 0 0 0 0 0 0 0 0 0 127 0" result="hardAlpha"/><feOffset dy="2.289"/><feGaussianBlur stdDeviation="12.877"/><feComposite in2="hardAlpha" operator="out"/><feColorMatrix values="0 0 0 0 0 0 0 0 0 0 0 0 0 0 0 0 0 0 0.15 0"/><feBlend in2="BackgroundImageFix" result="effect1_dropShadow_1_66"/><feBlend in="SourceGraphic" in2="effect1_dropShadow_1_66" result="shape"/></filter><filter id="filter1_f_1_66" x="35.318" y="100.212" width="71.619" height="30.239" filterUnits="userSpaceOnUse" color-interpolation-filters="sRGB"><feFlood flood-opacity="0" result="BackgroundImageFix"/><feBlend in="SourceGraphic" in2="BackgroundImageFix" result="shape"/><feGaussianBlur stdDeviation="3.979" result="effect1_foregroundBlur_1_66"/></filter><filter id="filter2_f_1_66" x="-40.435" y="-32.607" width="223.163" height="223.068" filterUnits="userSpaceOnUse" color-interpolation-filters="sRGB"><feFlood flood-opacity="0" result="BackgroundImageFix"/><feBlend in="SourceGraphic" in2="BackgroundImageFix" result="shape"/><feGaussianBlur stdDeviation="39.788" result="effect1_foregroundBlur_1_66"/></filter><filter id="filter3_dddddd_1_66" x="-222.824" y="-215.779" width="589.689" height="589.689" filterUnits="userSpaceOnUse" color-interpolation-filters="sRGB"><feFlood flood-opacity="0" result="BackgroundImageFix"/><feColorMatrix in="SourceAlpha" values="0 0 0 0 0 0 0 0 0 0 0 0 0 0 0 0 0 0 127 0" result="hardAlpha"/><feOffset/><feGaussianBlur stdDeviation="3.1"/><feColorMatrix values="0 0 0 0 1 0 0 0 0 1 0 0 0 0 1 0 0 0 1 0"/><feBlend in2="BackgroundImageFix" result="effect1_dropShadow_1_66"/><feColorMatrix in="SourceAlpha" values="0 0 0 0 0 0 0 0 0 0 0 0 0 0 0 0 0 0 127 0" result="hardAlpha"/><feOffset/><feGaussianBlur stdDeviation="6.2"/><feColorMatrix values="0 0 0 0 1 0 0 0 0 1 0 0 0 0 1 0 0 0 1 0"/><feBlend in2="effect1_dropShadow_1_66" result="effect2_dropShadow_1_66"/><feColorMatrix in="SourceAlpha" values="0 0 0 0 0 0 0 0 0 0 0 0 0 0 0 0 0 0 127 0" result="hardAlpha"/><feOffset/><feGaussianBlur stdDeviation="21.7"/><feColorMatrix values="0 0 0 0 1 0 0 0 0 1 0 0 0 0 1 0 0 0 1 0"/><feBlend in2="effect2_dropShadow_1_66" result="effect3_dropShadow_1_66"/><feColorMatrix in="SourceAlpha" values="0 0 0 0 0 0 0 0 0 0 0 0 0 0 0 0 0 0 127 0" result="hardAlpha"/><feOffset/><feGaussianBlur stdDeviation="43.4"/><feColorMatrix values="0 0 0 0 1 0 0 0 0 1 0 0 0 0 1 0 0 0 1 0"/><feBlend in2="effect3_dropShadow_1_66" result="effect4_dropShadow_1_66"/><feColorMatrix in="SourceAlpha" values="0 0 0 0 0 0 0 0 0 0 0 0 0 0 0 0 0 0 127 0" result="hardAlpha"/><feOffset/><feGaussianBlur stdDeviation="74.4"/><feColorMatrix values="0 0 0 0 1 0 0 0 0 1 0 0 0 0 1 0 0 0 1 0"/><feBlend in2="effect4_dropShadow_1_66" result="effect5_dropShadow_1_66"/><feColorMatrix in="SourceAlpha" values="0 0 0 0 0 0 0 0 0 0 0 0 0 0 0 0 0 0 127 0" result="hardAlpha"/><feOffset/><feGaussianBlur stdDeviation="130.2"/><feColorMatrix values="0 0 0 0 1 0 0 0 0 1 0 0 0 0 1 0 0 0 1 0"/><feBlend in2="effect5_dropShadow_1_66" result="effect6_dropShadow_1_66"/><feBlend in="SourceGraphic" in2="effect6_dropShadow_1_66" result="shape"/></filter><filter id="filter4_d_1_66" x="-25.754" y="184.767" width="193.496" height="217.742" filterUnits="userSpaceOnUse" color-interpolation-filters="sRGB"><feFlood flood-opacity="0" result="BackgroundImageFix"/><feColorMatrix in="SourceAlpha" values="0 0 0 0 0 0 0 0 0 0 0 0 0 0 0 0 0 0 127 0" result="hardAlpha"/><feOffset dy="2.289"/><feGaussianBlur stdDeviation="12.877"/><feComposite in2="hardAlpha" operator="out"/><feColorMatrix values="0 0 0 0 0 0 0 0 0 0 0 0 0 0 0 0 0 0 0.15 0"/><feBlend in2="BackgroundImageFix" result="effect1_dropShadow_1_66"/><feBlend in="SourceGraphic" in2="effect1_dropShadow_1_66" result="shape"/></filter><filter id="filter5_f_1_66" x="35.318" y="281.045" width="71.619" height="30.239" filterUnits="userSpaceOnUse" color-interpolation-filters="sRGB"><feFlood flood-opacity="0" result="BackgroundImageFix"/><feBlend in="SourceGraphic" in2="BackgroundImageFix" result="shape"/><feGaussianBlur stdDeviation="3.979" result="effect1_foregroundBlur_1_66"/></filter><filter id="filter6_f_1_66" x="-40.435" y="148.226" width="223.163" height="223.068" filterUnits="userSpaceOnUse" color-interpolation-filters="sRGB"><feFlood flood-opacity="0" result="BackgroundImageFix"/><feBlend in="SourceGraphic" in2="BackgroundImageFix" result="shape"/><feGaussianBlur stdDeviation="39.788" result="effect1_foregroundBlur_1_66"/></filter><filter id="filter7_dddddd_1_66" x="-222.824" y="-34.946" width="589.689" height="589.689" filterUnits="userSpaceOnUse" color-interpolation-filters="sRGB"><feFlood flood-opacity="0" result="BackgroundImageFix"/><feColorMatrix in="SourceAlpha" values="0 0 0 0 0 0 0 0 0 0 0 0 0 0 0 0 0 0 127 0" result="hardAlpha"/><feOffset/><feGaussianBlur stdDeviation="3.1"/><feColorMatrix values="0 0 0 0 1 0 0 0 0 1 0 0 0 0 1 0 0 0 1 0"/><feBlend in2="BackgroundImageFix" result="effect1_dropShadow_1_66"/><feColorMatrix in="SourceAlpha" values="0 0 0 0 0 0 0 0 0 0 0 0 0 0 0 0 0 0 127 0" result="hardAlpha"/><feOffset/><feGaussianBlur stdDeviation="6.2"/><feColorMatrix values="0 0 0 0 1 0 0 0 0 1 0 0 0 0 1 0 0 0 1 0"/><feBlend in2="effect1_dropShadow_1_66" result="effect2_dropShadow_1_66"/><feColorMatrix in="SourceAlpha" values="0 0 0 0 0 0 0 0 0 0 0 0 0 0 0 0 0 0 127 0" result="hardAlpha"/><feOffset/><feGaussianBlur stdDeviation="21.7"/><feColorMatrix values="0 0 0 0 1 0 0 0 0 1 0 0 0 0 1 0 0 0 1 0"/><feBlend in2="effect2_dropShadow_1_66" result="effect3_dropShadow_1_66"/><feColorMatrix in="SourceAlpha" values="0 0 0 0 0 0 0 0 0 0 0 0 0 0 0 0 0 0 127 0" result="hardAlpha"/><feOffset/><feGaussianBlur stdDeviation="43.4"/><feColorMatrix values="0 0 0 0 1 0 0 0 0 1 0 0 0 0 1 0 0 0 1 0"/><feBlend in2="effect3_dropShadow_1_66" result="effect4_dropShadow_1_66"/><feColorMatrix in="SourceAlpha" values="0 0 0 0 0 0 0 0 0 0 0 0 0 0 0 0 0 0 127 0" result="hardAlpha"/><feOffset/><feGaussianBlur stdDeviation="74.4"/><feColorMatrix values="0 0 0 0 1 0 0 0 0 1 0 0 0 0 1 0 0 0 1 0"/><feBlend in2="effect4_dropShadow_1_66" result="effect5_dropShadow_1_66"/><feColorMatrix in="SourceAlpha" values="0 0 0 0 0 0 0 0 0 0 0 0 0 0 0 0 0 0 127 0" result="hardAlpha"/><feOffset/><feGaussianBlur stdDeviation="130.2"/><feColorMatrix values="0 0 0 0 1 0 0 0 0 1 0 0 0 0 1 0 0 0 1 0"/><feBlend in2="effect5_dropShadow_1_66" result="effect6_dropShadow_1_66"/><feBlend in="SourceGraphic" in2="effect6_dropShadow_1_66" result="shape"/></filter><filter id="filter8_d_1_66" x="135.508" y="-23.465" width="193.496" height="217.742" filterUnits="userSpaceOnUse" color-interpolation-filters="sRGB"><feFlood flood-opacity="0" result="BackgroundImageFix"/><feColorMatrix in="SourceAlpha" values="0 0 0 0 0 0 0 0 0 0 0 0 0 0 0 0 0 0 127 0" result="hardAlpha"/><feOffset dy="2.289"/><feGaussianBlur stdDeviation="12.877"/><feComposite in2="hardAlpha" operator="out"/><feColorMatrix values="0 0 0 0 0 0 0 0 0 0 0 0 0 0 0 0 0 0 0.15 0"/><feBlend in2="BackgroundImageFix" result="effect1_dropShadow_1_66"/><feBlend in="SourceGraphic" in2="effect1_dropShadow_1_66" result="shape"/></filter><filter id="filter9_f_1_66" x="196.58" y="72.813" width="71.619" height="30.239" filterUnits="userSpaceOnUse" color-interpolation-filters="sRGB"><feFlood flood-opacity="0" result="BackgroundImageFix"/><feBlend in="SourceGraphic" in2="BackgroundImageFix" result="shape"/><feGaussianBlur stdDeviation="3.979" result="effect1_foregroundBlur_1_66"/></filter><filter id="filter10_f_1_66" x="120.827" y="-60.006" width="223.163" height="223.068" filterUnits="userSpaceOnUse" color-interpolation-filters="sRGB"><feFlood flood-opacity="0" result="BackgroundImageFix"/><feBlend in="SourceGraphic" in2="BackgroundImageFix" result="shape"/><feGaussianBlur stdDeviation="39.788" result="effect1_foregroundBlur_1_66"/></filter><filter id="filter11_dddddd_1_66" x="-61.562" y="-243.178" width="589.689" height="589.689" filterUnits="userSpaceOnUse" color-interpolation-filters="sRGB"><feFlood flood-opacity="0" result="BackgroundImageFix"/><feColorMatrix in="SourceAlpha" values="0 0 0 0 0 0 0 0 0 0 0 0 0 0 0 0 0 0 127 0" result="hardAlpha"/><feOffset/><feGaussianBlur stdDeviation="3.1"/><feColorMatrix values="0 0 0 0 1 0 0 0 0 1 0 0 0 0 1 0 0 0 1 0"/><feBlend in2="BackgroundImageFix" result="effect1_dropShadow_1_66"/><feColorMatrix in="SourceAlpha" values="0 0 0 0 0 0 0 0 0 0 0 0 0 0 0 0 0 0 127 0" result="hardAlpha"/><feOffset/><feGaussianBlur stdDeviation="6.2"/><feColorMatrix values="0 0 0 0 1 0 0 0 0 1 0 0 0 0 1 0 0 0 1 0"/><feBlend in2="effect1_dropShadow_1_66" result="effect2_dropShadow_1_66"/><feColorMatrix in="SourceAlpha" values="0 0 0 0 0 0 0 0 0 0 0 0 0 0 0 0 0 0 127 0" result="hardAlpha"/><feOffset/><feGaussianBlur stdDeviation="21.7"/><feColorMatrix values="0 0 0 0 1 0 0 0 0 1 0 0 0 0 1 0 0 0 1 0"/><feBlend in2="effect2_dropShadow_1_66" result="effect3_dropShadow_1_66"/><feColorMatrix in="SourceAlpha" values="0 0 0 0 0 0 0 0 0 0 0 0 0 0 0 0 0 0 127 0" result="hardAlpha"/><feOffset/><feGaussianBlur stdDeviation="43.4"/><feColorMatrix values="0 0 0 0 1 0 0 0 0 1 0 0 0 0 1 0 0 0 1 0"/><feBlend in2="effect3_dropShadow_1_66" result="effect4_dropShadow_1_66"/><feColorMatrix in="SourceAlpha" values="0 0 0 0 0 0 0 0 0 0 0 0 0 0 0 0 0 0 127 0" result="hardAlpha"/><feOffset/><feGaussianBlur stdDeviation="74.4"/><feColorMatrix values="0 0 0 0 1 0 0 0 0 1 0 0 0 0 1 0 0 0 1 0"/><feBlend in2="effect4_dropShadow_1_66" result="effect5_dropShadow_1_66"/><feColorMatrix in="SourceAlpha" values="0 0 0 0 0 0 0 0 0 0 0 0 0 0 0 0 0 0 127 0" result="hardAlpha"/><feOffset/><feGaussianBlur stdDeviation="130.2"/><feColorMatrix values="0 0 0 0 1 0 0 0 0 1 0 0 0 0 1 0 0 0 1 0"/><feBlend in2="effect5_dropShadow_1_66" result="effect6_dropShadow_1_66"/><feBlend in="SourceGraphic" in2="effect6_dropShadow_1_66" result="shape"/></filter><filter id="filter12_d_1_66" x="135.508" y="157.368" width="193.496" height="217.742" filterUnits="userSpaceOnUse" color-interpolation-filters="sRGB"><feFlood flood-opacity="0" result="BackgroundImageFix"/><feColorMatrix in="SourceAlpha" values="0 0 0 0 0 0 0 0 0 0 0 0 0 0 0 0 0 0 127 0" result="hardAlpha"/><feOffset dy="2.289"/><feGaussianBlur stdDeviation="12.877"/><feComposite in2="hardAlpha" operator="out"/><feColorMatrix values="0 0 0 0 0 0 0 0 0 0 0 0 0 0 0 0 0 0 0.15 0"/><feBlend in2="BackgroundImageFix" result="effect1_dropShadow_1_66"/><feBlend in="SourceGraphic" in2="effect1_dropShadow_1_66" result="shape"/></filter><filter id="filter13_f_1_66" x="196.58" y="253.646" width="71.619" height="30.239" filterUnits="userSpaceOnUse" color-interpolation-filters="sRGB"><feFlood flood-opacity="0" result="BackgroundImageFix"/><feBlend in="SourceGraphic" in2="BackgroundImageFix" result="shape"/><feGaussianBlur stdDeviation="3.979" result="effect1_foregroundBlur_1_66"/></filter><filter id="filter14_f_1_66" x="120.827" y="120.827" width="223.163" height="223.068" filterUnits="userSpaceOnUse" color-interpolation-filters="sRGB"><feFlood flood-opacity="0" result="BackgroundImageFix"/><feBlend in="SourceGraphic" in2="BackgroundImageFix" result="shape"/><feGaussianBlur stdDeviation="39.788" result="effect1_foregroundBlur_1_66"/></filter><filter id="filter15_dddddd_1_66" x="-61.562" y="-62.344" width="589.689" height="589.689" filterUnits="userSpaceOnUse" color-interpolation-filters="sRGB"><feFlood flood-opacity="0" result="BackgroundImageFix"/><feColorMatrix in="SourceAlpha" values="0 0 0 0 0 0 0 0 0 0 0 0 0 0 0 0 0 0 127 0" result="hardAlpha"/><feOffset/><feGaussianBlur stdDeviation="3.1"/><feColorMatrix values="0 0 0 0 1 0 0 0 0 1 0 0 0 0 1 0 0 0 1 0"/><feBlend in2="BackgroundImageFix" result="effect1_dropShadow_1_66"/><feColorMatrix in="SourceAlpha" values="0 0 0 0 0 0 0 0 0 0 0 0 0 0 0 0 0 0 127 0" result="hardAlpha"/><feOffset/><feGaussianBlur stdDeviation="6.2"/><feColorMatrix values="0 0 0 0 1 0 0 0 0 1 0 0 0 0 1 0 0 0 1 0"/><feBlend in2="effect1_dropShadow_1_66" result="effect2_dropShadow_1_66"/><feColorMatrix in="SourceAlpha" values="0 0 0 0 0 0 0 0 0 0 0 0 0 0 0 0 0 0 127 0" result="hardAlpha"/><feOffset/><feGaussianBlur stdDeviation="21.7"/><feColorMatrix values="0 0 0 0 1 0 0 0 0 1 0 0 0 0 1 0 0 0 1 0"/><feBlend in2="effect2_dropShadow_1_66" result="effect3_dropShadow_1_66"/><feColorMatrix in="SourceAlpha" values="0 0 0 0 0 0 0 0 0 0 0 0 0 0 0 0 0 0 127 0" result="hardAlpha"/><feOffset/><feGaussianBlur stdDeviation="43.4"/><feColorMatrix values="0 0 0 0 1 0 0 0 0 1 0 0 0 0 1 0 0 0 1 0"/><feBlend in2="effect3_dropShadow_1_66" result="effect4_dropShadow_1_66"/><feColorMatrix in="SourceAlpha" values="0 0 0 0 0 0 0 0 0 0 0 0 0 0 0 0 0 0 127 0" result="hardAlpha"/><feOffset/><feGaussianBlur stdDeviation="74.4"/><feColorMatrix values="0 0 0 0 1 0 0 0 0 1 0 0 0 0 1 0 0 0 1 0"/><feBlend in2="effect4_dropShadow_1_66" result="effect5_dropShadow_1_66"/><feColorMatrix in="SourceAlpha" values="0 0 0 0 0 0 0 0 0 0 0 0 0 0 0 0 0 0 127 0" result="hardAlpha"/><feOffset/><feGaussianBlur stdDeviation="130.2"/><feColorMatrix values="0 0 0 0 1 0 0 0 0 1 0 0 0 0 1 0 0 0 1 0"/><feBlend in2="effect5_dropShadow_1_66" result="effect6_dropShadow_1_66"/><feBlend in="SourceGraphic" in2="effect6_dropShadow_1_66" result="shape"/></filter><filter id="filter16_d_1_66" x="296.771" y="3.934" width="193.496" height="217.742" filterUnits="userSpaceOnUse" color-interpolation-filters="sRGB"><feFlood flood-opacity="0" result="BackgroundImageFix"/><feColorMatrix in="SourceAlpha" values="0 0 0 0 0 0 0 0 0 0 0 0 0 0 0 0 0 0 127 0" result="hardAlpha"/><feOffset dy="2.289"/><feGaussianBlur stdDeviation="12.877"/><feComposite in2="hardAlpha" operator="out"/><feColorMatrix values="0 0 0 0 0 0 0 0 0 0 0 0 0 0 0 0 0 0 0.15 0"/><feBlend in2="BackgroundImageFix" result="effect1_dropShadow_1_66"/><feBlend in="SourceGraphic" in2="effect1_dropShadow_1_66" result="shape"/></filter><filter id="filter17_f_1_66" x="357.843" y="100.212" width="71.619" height="30.239" filterUnits="userSpaceOnUse" color-interpolation-filters="sRGB"><feFlood flood-opacity="0" result="BackgroundImageFix"/><feBlend in="SourceGraphic" in2="BackgroundImageFix" result="shape"/><feGaussianBlur stdDeviation="3.979" result="effect1_foregroundBlur_1_66"/></filter><filter id="filter18_f_1_66" x="282.09" y="-32.607" width="223.163" height="223.068" filterUnits="userSpaceOnUse" color-interpolation-filters="sRGB"><feFlood flood-opacity="0" result="BackgroundImageFix"/><feBlend in="SourceGraphic" in2="BackgroundImageFix" result="shape"/><feGaussianBlur stdDeviation="39.788" result="effect1_foregroundBlur_1_66"/></filter><filter id="filter19_dddddd_1_66" x="99.701" y="-215.779" width="589.689" height="589.689" filterUnits="userSpaceOnUse" color-interpolation-filters="sRGB"><feFlood flood-opacity="0" result="BackgroundImageFix"/><feColorMatrix in="SourceAlpha" values="0 0 0 0 0 0 0 0 0 0 0 0 0 0 0 0 0 0 127 0" result="hardAlpha"/><feOffset/><feGaussianBlur stdDeviation="3.1"/><feColorMatrix values="0 0 0 0 1 0 0 0 0 1 0 0 0 0 1 0 0 0 1 0"/><feBlend in2="BackgroundImageFix" result="effect1_dropShadow_1_66"/><feColorMatrix in="SourceAlpha" values="0 0 0 0 0 0 0 0 0 0 0 0 0 0 0 0 0 0 127 0" result="hardAlpha"/><feOffset/><feGaussianBlur stdDeviation="6.2"/><feColorMatrix values="0 0 0 0 1 0 0 0 0 1 0 0 0 0 1 0 0 0 1 0"/><feBlend in2="effect1_dropShadow_1_66" result="effect2_dropShadow_1_66"/><feColorMatrix in="SourceAlpha" values="0 0 0 0 0 0 0 0 0 0 0 0 0 0 0 0 0 0 127 0" result="hardAlpha"/><feOffset/><feGaussianBlur stdDeviation="21.7"/><feColorMatrix values="0 0 0 0 1 0 0 0 0 1 0 0 0 0 1 0 0 0 1 0"/><feBlend in2="effect2_dropShadow_1_66" result="effect3_dropShadow_1_66"/><feColorMatrix in="SourceAlpha" values="0 0 0 0 0 0 0 0 0 0 0 0 0 0 0 0 0 0 127 0" result="hardAlpha"/><feOffset/><feGaussianBlur stdDeviation="43.4"/><feColorMatrix values="0 0 0 0 1 0 0 0 0 1 0 0 0 0 1 0 0 0 1 0"/><feBlend in2="effect3_dropShadow_1_66" result="effect4_dropShadow_1_66"/><feColorMatrix in="SourceAlpha" values="0 0 0 0 0 0 0 0 0 0 0 0 0 0 0 0 0 0 127 0" result="hardAlpha"/><feOffset/><feGaussianBlur stdDeviation="74.4"/><feColorMatrix values="0 0 0 0 1 0 0 0 0 1 0 0 0 0 1 0 0 0 1 0"/><feBlend in2="effect4_dropShadow_1_66" result="effect5_dropShadow_1_66"/><feColorMatrix in="SourceAlpha" values="0 0 0 0 0 0 0 0 0 0 0 0 0 0 0 0 0 0 127 0" result="hardAlpha"/><feOffset/><feGaussianBlur stdDeviation="130.2"/><feColorMatrix values="0 0 0 0 1 0 0 0 0 1 0 0 0 0 1 0 0 0 1 0"/><feBlend in2="effect5_dropShadow_1_66" result="effect6_dropShadow_1_66"/><feBlend in="SourceGraphic" in2="effect6_dropShadow_1_66" result="shape"/></filter><filter id="filter20_d_1_66" x="296.771" y="184.767" width="193.496" height="217.742" filterUnits="userSpaceOnUse" color-interpolation-filters="sRGB"><feFlood flood-opacity="0" result="BackgroundImageFix"/><feColorMatrix in="SourceAlpha" values="0 0 0 0 0 0 0 0 0 0 0 0 0 0 0 0 0 0 127 0" result="hardAlpha"/><feOffset dy="2.289"/><feGaussianBlur stdDeviation="12.877"/><feComposite in2="hardAlpha" operator="out"/><feColorMatrix values="0 0 0 0 0 0 0 0 0 0 0 0 0 0 0 0 0 0 0.15 0"/><feBlend in2="BackgroundImageFix" result="effect1_dropShadow_1_66"/><feBlend in="SourceGraphic" in2="effect1_dropShadow_1_66" result="shape"/></filter><filter id="filter21_f_1_66" x="357.843" y="281.045" width="71.619" height="30.239" filterUnits="userSpaceOnUse" color-interpolation-filters="sRGB"><feFlood flood-opacity="0" result="BackgroundImageFix"/><feBlend in="SourceGraphic" in2="BackgroundImageFix" result="shape"/><feGaussianBlur stdDeviation="3.979" result="effect1_foregroundBlur_1_66"/></filter><filter id="filter22_f_1_66" x="282.09" y="148.226" width="223.163" height="223.068" filterUnits="userSpaceOnUse" color-interpolation-filters="sRGB"><feFlood flood-opacity="0" result="BackgroundImageFix"/><feBlend in="SourceGraphic" in2="BackgroundImageFix" result="shape"/><feGaussianBlur stdDeviation="39.788" result="effect1_foregroundBlur_1_66"/></filter><filter id="filter23_dddddd_1_66" x="99.701" y="-34.946" width="589.689" height="589.689" filterUnits="userSpaceOnUse" color-interpolation-filters="sRGB"><feFlood flood-opacity="0" result="BackgroundImageFix"/><feColorMatrix in="SourceAlpha" values="0 0 0 0 0 0 0 0 0 0 0 0 0 0 0 0 0 0 127 0" result="hardAlpha"/><feOffset/><feGaussianBlur stdDeviation="3.1"/><feColorMatrix values="0 0 0 0 1 0 0 0 0 1 0 0 0 0 1 0 0 0 1 0"/><feBlend in2="BackgroundImageFix" result="effect1_dropShadow_1_66"/><feColorMatrix in="SourceAlpha" values="0 0 0 0 0 0 0 0 0 0 0 0 0 0 0 0 0 0 127 0" result="hardAlpha"/><feOffset/><feGaussianBlur stdDeviation="6.2"/><feColorMatrix values="0 0 0 0 1 0 0 0 0 1 0 0 0 0 1 0 0 0 1 0"/><feBlend in2="effect1_dropShadow_1_66" result="effect2_dropShadow_1_66"/><feColorMatrix in="SourceAlpha" values="0 0 0 0 0 0 0 0 0 0 0 0 0 0 0 0 0 0 127 0" result="hardAlpha"/><feOffset/><feGaussianBlur stdDeviation="21.7"/><feColorMatrix values="0 0 0 0 1 0 0 0 0 1 0 0 0 0 1 0 0 0 1 0"/><feBlend in2="effect2_dropShadow_1_66" result="effect3_dropShadow_1_66"/><feColorMatrix in="SourceAlpha" values="0 0 0 0 0 0 0 0 0 0 0 0 0 0 0 0 0 0 127 0" result="hardAlpha"/><feOffset/><feGaussianBlur stdDeviation="43.4"/><feColorMatrix values="0 0 0 0 1 0 0 0 0 1 0 0 0 0 1 0 0 0 1 0"/><feBlend in2="effect3_dropShadow_1_66" result="effect4_dropShadow_1_66"/><feColorMatrix in="SourceAlpha" values="0 0 0 0 0 0 0 0 0 0 0 0 0 0 0 0 0 0 127 0" result="hardAlpha"/><feOffset/><feGaussianBlur stdDeviation="74.4"/><feColorMatrix values="0 0 0 0 1 0 0 0 0 1 0 0 0 0 1 0 0 0 1 0"/><feBlend in2="effect4_dropShadow_1_66" result="effect5_dropShadow_1_66"/><feColorMatrix in="SourceAlpha" values="0 0 0 0 0 0 0 0 0 0 0 0 0 0 0 0 0 0 127 0" result="hardAlpha"/><feOffset/><feGaussianBlur stdDeviation="130.2"/><feColorMatrix values="0 0 0 0 1 0 0 0 0 1 0 0 0 0 1 0 0 0 1 0"/><feBlend in2="effect5_dropShadow_1_66" result="effect6_dropShadow_1_66"/><feBlend in="SourceGraphic" in2="effect6_dropShadow_1_66" result="shape"/></filter><linearGradient id="paint0_linear_1_66" x1="83.116" y1="272.657" x2="83.116" y2="372.373" gradientUnits="userSpaceOnUse"><stop stop-color="#23232F" stop-opacity="0"/><stop offset="1" stop-color="#23232F"/></linearGradient><linearGradient id="paint1_linear_1_66" x1="50.421" y1="335.619" x2="50.421" y2="193.632" gradientUnits="userSpaceOnUse"><stop stop-color="#2F2F42" stop-opacity="0"/><stop offset="1" stop-color="#717185"/></linearGradient><linearGradient id="paint2_linear_1_66" x1="56.364" y1="68.497" x2="112.68" y2="117.359" gradientUnits="userSpaceOnUse"><stop stop-color="#FF00D6"/><stop offset="1" stop-color="#787878"/></linearGradient><linearGradient id="paint3_linear_1_66" x1="83.116" y1="453.49" x2="83.116" y2="553.206" gradientUnits="userSpaceOnUse"><stop stop-color="#23232F" stop-opacity="0"/><stop offset="1" stop-color="#23232F"/></linearGradient><linearGradient id="paint4_linear_1_66" x1="50.421" y1="516.452" x2="50.421" y2="374.465" gradientUnits="userSpaceOnUse"><stop stop-color="#2F2F42" stop-opacity="0"/><stop offset="1" stop-color="#717185"/></linearGradient><linearGradient id="paint5_linear_1_66" x1="56.364" y1="249.331" x2="112.68" y2="298.192" gradientUnits="userSpaceOnUse"><stop stop-color="#00FFD1"/><stop offset="1" stop-color="#787878"/></linearGradient><linearGradient id="paint6_linear_1_66" x1="244.379" y1="245.258" x2="244.379" y2="344.974" gradientUnits="userSpaceOnUse"><stop stop-color="#23232F" stop-opacity="0"/><stop offset="1" stop-color="#23232F"/></linearGradient><linearGradient id="paint7_linear_1_66" x1="211.684" y1="308.22" x2="211.684" y2="166.233" gradientUnits="userSpaceOnUse"><stop stop-color="#2F2F42" stop-opacity="0"/><stop offset="1" stop-color="#717185"/></linearGradient><linearGradient id="paint8_linear_1_66" x1="217.626" y1="41.099" x2="273.942" y2="89.96" gradientUnits="userSpaceOnUse"><stop stop-color="#0057FF"/><stop offset="1" stop-color="#787878"/></linearGradient><linearGradient id="paint9_linear_1_66" x1="244.379" y1="426.091" x2="244.379" y2="525.807" gradientUnits="userSpaceOnUse"><stop stop-color="#23232F" stop-opacity="0"/><stop offset="1" stop-color="#23232F"/></linearGradient><linearGradient id="paint10_linear_1_66" x1="211.684" y1="489.053" x2="211.684" y2="347.066" gradientUnits="userSpaceOnUse"><stop stop-color="#2F2F42" stop-opacity="0"/><stop offset="1" stop-color="#717185"/></linearGradient><linearGradient id="paint11_linear_1_66" x1="217.626" y1="221.932" x2="273.942" y2="270.793" gradientUnits="userSpaceOnUse"><stop stop-color="#FF00D6"/><stop offset="1" stop-color="#787878"/></linearGradient><linearGradient id="paint12_linear_1_66" x1="405.642" y1="272.657" x2="405.642" y2="372.373" gradientUnits="userSpaceOnUse"><stop stop-color="#23232F" stop-opacity="0"/><stop offset="1" stop-color="#23232F"/></linearGradient><linearGradient id="paint13_linear_1_66" x1="372.947" y1="335.619" x2="372.947" y2="193.632" gradientUnits="userSpaceOnUse"><stop stop-color="#2F2F42" stop-opacity="0"/><stop offset="1" stop-color="#717185"/></linearGradient><linearGradient id="paint14_linear_1_66" x1="378.889" y1="68.497" x2="435.205" y2="117.359" gradientUnits="userSpaceOnUse"><stop stop-color="#00FFD1"/><stop offset="1" stop-color="#787878"/></linearGradient><linearGradient id="paint15_linear_1_66" x1="405.642" y1="453.49" x2="405.642" y2="553.206" gradientUnits="userSpaceOnUse"><stop stop-color="#23232F" stop-opacity="0"/><stop offset="1" stop-color="#23232F"/></linearGradient><linearGradient id="paint16_linear_1_66" x1="372.947" y1="516.452" x2="372.947" y2="374.465" gradientUnits="userSpaceOnUse"><stop stop-color="#2F2F42" stop-opacity="0"/><stop offset="1" stop-color="#717185"/></linearGradient><linearGradient id="paint17_linear_1_66" x1="378.889" y1="249.331" x2="435.205" y2="298.192" gradientUnits="userSpaceOnUse"><stop stop-color="#30F"/><stop offset="1" stop-color="#787878"/></linearGradient><clipPath id="clip0_1_66"><path fill="#fff" transform="translate(0 27.399)" d="M0 0h142.475v166.233H0z"/></clipPath><clipPath id="clip1_1_66"><path fill="#fff" transform="translate(0 208.232)" d="M0 0h142.475v166.233H0z"/></clipPath><clipPath id="clip2_1_66"><path fill="#fff" transform="translate(161.263)" d="M0 0h142.475v166.233H0z"/></clipPath><clipPath id="clip3_1_66"><path fill="#fff" transform="translate(161.263 180.833)" d="M0 0h142.475v166.233H0z"/></clipPath><clipPath id="clip4_1_66"><path fill="#fff" transform="translate(322.525 27.399)" d="M0 0h142.475v166.233H0z"/></clipPath><clipPath id="clip5_1_66"><path fill="#fff" transform="translate(322.525 208.232)" d="M0 0h142.475v166.233H0z"/></clipPath></defs></svg>